STARTFONT 2.3
FONT -FontForge-Source Code Pro-Bold-R-Normal--24-240-72-72-M-140-ISO10646-1
SIZE 24 72 72  4
FONTBOUNDINGBOX 25 36 -5 -11
COMMENT "Generated by fontforge, http://fontforge.sourceforge.net"
COMMENT "Copyright 2010, 2012 Adobe Systems Incorporated (http://www.adobe.com/), with Reserved Font Name `Source'."
STARTPROPERTIES 41
FOUNDRY "FontForge"
FAMILY_NAME "Source Code Pro"
WEIGHT_NAME "Bold"
SLANT "R"
SETWIDTH_NAME "Normal"
ADD_STYLE_NAME ""
PIXEL_SIZE 24
POINT_SIZE 240
RESOLUTION_X 72
RESOLUTION_Y 72
SPACING "M"
AVERAGE_WIDTH 140
CHARSET_REGISTRY "ISO10646"
CHARSET_ENCODING "1"
FONTNAME_REGISTRY ""
CHARSET_COLLECTIONS "ASCII ISOLatin1Encoding ISO8859-2 ISO8859-5 ISO8859-7 ISO8859-9 ISO8859-4 ISO10646-1"
BITS_PER_PIXEL 4
FONT_NAME "SourceCodePro-Bold"
FACE_NAME "Source Code Pro Bold"
COPYRIGHT "Copyright 2010, 2012 Adobe Systems Incorporated (http://www.adobe.com/), with Reserved Font Name `Source'."
FONT_VERSION "2.030;PS 1.000;hotconv 16.6.51;makeotf.lib2.5.65220"
FONT_ASCENT 18
FONT_DESCENT 6
UNDERLINE_POSITION -2
UNDERLINE_THICKNESS 2
X_HEIGHT 11
CAP_HEIGHT 15
RAW_ASCENT 750
RAW_DESCENT 250
NORM_SPACE 14
RELATIVE_WEIGHT 70
RELATIVE_SETWIDTH 50
SUPERSCRIPT_X 0
SUPERSCRIPT_Y 8
SUPERSCRIPT_SIZE 14
SUBSCRIPT_X 0
SUBSCRIPT_Y 1
SUBSCRIPT_SIZE 14
FIGURE_WIDTH 14
AVG_LOWERCASE_WIDTH 140
AVG_UPPERCASE_WIDTH 140
ENDPROPERTIES
CHARS 1564
STARTCHAR space
ENCODING 32
SWIDTH 600 0
DWIDTH 14 0
BBX 1 1 0 0
BITMAP
00
ENDCHAR
STARTCHAR exclam
ENCODING 33
SWIDTH 600 0
DWIDTH 14 0
BBX 6 16 4 0
BITMAP
08FFE0
07FFD0
07FFD0
06FFC0
05FFB0
03FF90
02FF80
01FF70
00FF60
000000
000000
04DE90
1EFFF6
2FFFF8
1EFFF5
04DE90
ENDCHAR
STARTCHAR quotedbl
ENCODING 34
SWIDTH 600 0
DWIDTH 14 0
BBX 11 9 2 7
BITMAP
FFFF10AFFF60
EFFF009FFF60
EFFF009FFF50
DFFE008FFF40
BFFC006FFF20
9FFA003FFF00
6FF7001FFD00
4FF5000EFA00
2FF3000BF800
ENDCHAR
STARTCHAR numbersign
ENCODING 35
SWIDTH 600 0
DWIDTH 14 0
BBX 12 15 1 0
BITMAP
0004FC00AF50
0006FA00CF30
0008F800EF10
0DFFF711FF32
0DFFFFFFFFFC
0DFFFA9CFFFC
000FF007F900
002FD009F700
5FFFEBBEFA72
5FFFFFFFFFF5
5FFFB88FFBA4
009F602FE000
00BF403FC000
00DF205FA000
00FF007F8000
ENDCHAR
STARTCHAR dollar
ENCODING 36
SWIDTH 600 0
DWIDTH 14 0
BBX 12 21 1 -3
BITMAP
00000DF70000
00000DF70000
00000DF70000
0007CFFFC500
01CFFFFFFFA0
08FFFFFFFFD1
0CFFB1038E30
0BFFD2000100
07FFFFB50000
00AFFFFFD600
0005CFFFFF90
000004AFFFF4
01400003EFF8
08FB5103EFF7
3FFFFFFFFFF2
1AFFFFFFFF60
004ADFFE9300
00000DF70000
00000DF70000
00000DF70000
00000DF70000
ENDCHAR
STARTCHAR percent
ENCODING 37
SWIDTH 600 0
DWIDTH 14 0
BBX 14 16 0 0
BITMAP
008EEB20000000
0AFFFFE10003A0
2FF62EF7002EFA
5FF10BFA00CFE4
5FF10BFA0AFE30
2FF62EF76FE300
09FFFFD11A2000
008EFB20000000
000000007EFB20
00008508FFFFE1
0009FD2FF72DF8
00AFE24FF20AFB
1BFF404FF20AFB
4FF7001FF72EF8
05900008FFFFE1
000000007EFB20
ENDCHAR
STARTCHAR ampersand
ENCODING 38
SWIDTH 600 0
DWIDTH 14 0
BBX 14 16 0 0
BITMAP
0002BEEB200000
002EFFFFE10000
00AFFFFFF70000
00DFF43FFA0000
00DFF03FFA0000
00AFF8EFF60000
005FFFFFD00111
003FFFFE205FFD
03EFFFE2009FF8
0DFFEFFA11EFF3
4FFF2BFFEBFFB0
6FFE01CFFFFF40
5FFF812DFFFF71
1EFFFFFFFFFFFE
05FFFFFFFCDFFA
003AEFEB5006B5
ENDCHAR
STARTCHAR quotesingle
ENCODING 39
SWIDTH 600 0
DWIDTH 14 0
BBX 5 9 5 7
BITMAP
CFFF30
CFFF30
BFFF20
AFFF10
8FFE00
6FFC00
4FFA00
2FF800
0EF500
ENDCHAR
STARTCHAR parenleft
ENCODING 40
SWIDTH 600 0
DWIDTH 14 0
BBX 8 22 4 -4
BITMAP
00002C30
0002DFE2
000CFF70
007FFA00
02EFE100
09FF7000
0EFF1000
4FFC0000
7FF80000
9FF60000
AFF50000
AFF50000
9FF60000
7FF80000
4FFC0000
0EFF1000
09FF7000
02EFE100
007FFA00
000CFF70
0002DFE2
00002C30
ENDCHAR
STARTCHAR parenright
ENCODING 41
SWIDTH 600 0
DWIDTH 14 0
BBX 8 22 3 -4
BITMAP
09700000
AFF60000
3EFF4000
04FFD000
009FF700
002FFE10
000AFF50
0006FFA0
0002FFD0
0000FFF0
0000EFF1
0000EFF1
0000FFF0
0002FFD0
0005FFA0
000AFF50
001FFE10
009FF700
04FFD000
2EFF4000
AFF60000
09700000
ENDCHAR
STARTCHAR asterisk
ENCODING 42
SWIDTH 600 0
DWIDTH 14 0
BBX 12 13 1 2
BITMAP
000002300000
00000CF30000
00000DF40000
00000EF50000
1C841FF637B6
5FFFFFFFFFFB
18FFFFFFFFB3
002AFFFFD500
0001EFFF7000
000AFFDFE100
004FF72EFA00
00DFA004FF40
005B00006A10
ENDCHAR
STARTCHAR plus
ENCODING 43
SWIDTH 600 0
DWIDTH 14 0
BBX 12 13 1 1
BITMAP
000016630000
00001FF80000
00001FF80000
00001FF80000
00001FF80000
5FFFFFFFFFFB
5FFFFFFFFFFB
5FFFFFFFFFFB
00001FF80000
00001FF80000
00001FF80000
00001FF80000
000016630000
ENDCHAR
STARTCHAR comma
ENCODING 44
SWIDTH 600 0
DWIDTH 14 0
BBX 7 11 4 -6
BITMAP
05DFB200
2FFFFB00
5FFFFF10
2FFFFF30
05DFFF40
0009FF20
001EFD00
02CFF600
6FFF9000
2FE60000
04000000
ENDCHAR
STARTCHAR hyphen
ENCODING 45
SWIDTH 600 0
DWIDTH 14 0
BBX 12 3 1 6
BITMAP
5FFFFFFFFFFB
5FFFFFFFFFFB
5FFFFFFFFFFB
ENDCHAR
STARTCHAR period
ENCODING 46
SWIDTH 600 0
DWIDTH 14 0
BBX 6 6 4 0
BITMAP
05DE91
3FFFF9
7FFFFD
7FFFFE
3FFFF9
06DEA1
ENDCHAR
STARTCHAR slash
ENCODING 47
SWIDTH 600 0
DWIDTH 14 0
BBX 12 21 1 -4
BITMAP
000000008FF7
00000000DFF1
00000004FFA0
0000000AFF50
0000001EFE00
0000006FF800
000000CFF300
000002FFC000
000008FF6000
00000DFF1000
00004FFA0000
0000AFF50000
0001FFE00000
0006FF800000
000CFF300000
002FFC000000
008FF6000000
00DFF1000000
04FFA0000000
0AFF40000000
1FFE00000000
ENDCHAR
STARTCHAR zero
ENCODING 48
SWIDTH 600 0
DWIDTH 14 0
BBX 13 15 1 0
BITMAP
0005BEFD810000
00AFFFFFFD2000
07FFFFFFFFC000
0EFFA216FFF500
4FFE10009FFA00
8FFA07924FFE00
9FF86FFD2FFF00
AFF78FFE2FFF10
9FF82CE62FFF00
7FFA00005FFD00
4FFE10009FFA00
0EFFB216FFF500
06FFFFFFFFC000
009FFFFFFD2000
0005BEFD810000
ENDCHAR
STARTCHAR one
ENCODING 49
SWIDTH 600 0
DWIDTH 14 0
BBX 12 16 1 0
BITMAP
000004663000
027AEFFF8000
06FFFFFF8000
05EEEFFF8000
00000FFF8000
00000FFF8000
00000FFF8000
00000FFF8000
00000FFF8000
00000FFF8000
00000FFF8000
00000FFF8000
00000FFF8000
2FFFFFFFEDDD
2FFFFFFFFFFF
2FFFFFFFFFFF
ENDCHAR
STARTCHAR two
ENCODING 50
SWIDTH 600 0
DWIDTH 14 0
BBX 12 15 1 0
BITMAP
0039DFEB6000
08FFFFFFFB00
8FFFFFFFFF70
1DF8214DFFD0
01400006FFF0
00000006FFE0
0000000CFF90
0000008FFE10
000007FFF400
00007FFF5000
0009FFF50000
01BFFE400000
3DFFFEEFFFFD
9FFFFFFFFFFD
9FFFFFFFFFFD
ENDCHAR
STARTCHAR three
ENCODING 51
SWIDTH 600 0
DWIDTH 14 0
BBX 12 15 1 0
BITMAP
004ADFEC8100
1AFFFFFFFE30
4FFFFFFFFFD0
07F8202BFFF3
00200006FFF2
0000025EFFC0
0006FFFFFB10
0006FFFFB200
0006FFFFFF80
00000149FFF6
04100000DFFA
2EE61027FFFA
BFFFFFFFFFF4
3DFFFFFFFF70
016BEFEC8200
ENDCHAR
STARTCHAR four
ENCODING 52
SWIDTH 600 0
DWIDTH 14 0
BBX 14 15 0 0
BITMAP
0000003FFFF700
000000CFFFF700
000008FFFFF700
00003FFDBFF700
0001DFF4CFF700
0009FF90CFF700
004FFD10CFF700
01DFF400CFF700
0AFF9000CFF700
2FFFFFFFFFFFF6
2FFFFFFFFFFFF6
2FFFFFFFFFFFF6
00000000CFF700
00000000CFF700
00000000CFF700
ENDCHAR
STARTCHAR five
ENCODING 53
SWIDTH 600 0
DWIDTH 14 0
BBX 12 15 1 0
BITMAP
04FFFFFFFFF1
05FFFFFFFFF1
06FFFFFFFFF1
07FFB0000000
08FF90000000
09FFCCFEA400
09FFFFFFFF80
08FFFFFFFFF4
00772029FFF9
00000000DFFB
03100000DFFA
1EE6103AFFF6
AFFFFFFFFFD1
2CFFFFFFFD20
005ADFEC7100
ENDCHAR
STARTCHAR six
ENCODING 54
SWIDTH 600 0
DWIDTH 14 0
BBX 13 15 1 0
BITMAP
00017CEED82000
003DFFFFFFE600
01EFFFFFFFF500
09FFF7203B8000
1FFF7000000000
5FFE15CFD91000
7FFC9FFFFFD100
8FFFFFFFFFF900
8FFFE612BFFE00
6FFF50003FFF10
3FFE00004FFF00
0CFFA203CFFC00
04FFFFFFFFF500
006FFFFFFF8000
00039DFEA40000
ENDCHAR
STARTCHAR seven
ENCODING 55
SWIDTH 600 0
DWIDTH 14 0
BBX 12 15 1 0
BITMAP
8FFFFFFFFFFE
8FFFFFFFFFFE
8FFFFFFFFFFA
00000004FFC0
0000001EFE20
000000AFF600
000003FFD000
00000BFF6000
00002FFF1000
00007FFC0000
0000BFF90000
0000EFF70000
0002FFF50000
0004FFF40000
0005FFF30000
ENDCHAR
STARTCHAR eight
ENCODING 56
SWIDTH 600 0
DWIDTH 14 0
BBX 12 15 1 0
BITMAP
0017CEFDA300
01DFFFFFFF60
09FFFFFFFFE1
0DFF9104EFF4
0BFF5000AFF3
04FFE834EFB0
004EFFFFFB10
007EFFFFFA20
0AFF738EFFD2
4FFA0001BFFA
7FF900006FFD
7FFF6103CFFD
2FFFFFFFFFF8
06FFFFFFFFB1
0029DEFEB500
ENDCHAR
STARTCHAR nine
ENCODING 57
SWIDTH 600 0
DWIDTH 14 0
BBX 12 15 1 0
BITMAP
0028DFEB5000
03EFFFFFFB10
1EFFFFFFFFA0
7FFF5116FFF3
AFF900009FF8
BFF80001DFFC
9FFE413CFFFD
4FFFFFFFFFFD
0AFFFFFD8FFC
006CEE81AFFA
00000002FFF6
03D6115DFFE1
2DFFFFFFFF50
2CFFFFFFF700
006BEFD93000
ENDCHAR
STARTCHAR colon
ENCODING 58
SWIDTH 600 0
DWIDTH 14 0
BBX 6 14 4 0
BITMAP
05DE91
3FFFF9
7FFFFD
7FFFFE
3FFFF9
06DEA1
000000
000000
05DE91
3FFFF9
7FFFFD
7FFFFE
3FFFF9
06DEA1
ENDCHAR
STARTCHAR semicolon
ENCODING 59
SWIDTH 600 0
DWIDTH 14 0
BBX 7 20 4 -6
BITMAP
05DE9100
3FFFF900
7FFFFD00
7FFFFE00
3FFFF900
06DEA100
00000000
00000000
00000000
05DFB200
2FFFFB00
5FFFFF10
2FFFFF30
05DFFF40
0009FF20
001EFD00
02CFF600
6FFF9000
2FE60000
04000000
ENDCHAR
STARTCHAR less
ENCODING 60
SWIDTH 600 0
DWIDTH 14 0
BBX 11 15 2 0
BITMAP
000000001A10
00000005EF10
000002BFFF10
00006EFFE600
002BFFFC2000
07FFFF700000
3FFFD3000000
3FFD10000000
3FFFD3000000
07FFFF700000
002BFFFB2000
00006EFFE600
000002BFFF10
00000005EF10
000000001A10
ENDCHAR
STARTCHAR equal
ENCODING 61
SWIDTH 600 0
DWIDTH 14 0
BBX 12 9 1 3
BITMAP
5FFFFFFFFFFB
5FFFFFFFFFFB
5FFFFFFFFFFB
000000000000
000000000000
000000000000
5FFFFFFFFFFB
5FFFFFFFFFFB
5FFFFFFFFFFB
ENDCHAR
STARTCHAR greater
ENCODING 62
SWIDTH 600 0
DWIDTH 14 0
BBX 10 15 2 0
BITMAP
8400000000
AF91000000
AFFE500000
2CFFFA1000
007FFFE500
0003DFFFB2
000019FFF9
0000008FF9
000019FFF9
0003DFFFB2
007FFFE600
2CFFFA1000
AFFE500000
AF91000000
8400000000
ENDCHAR
STARTCHAR question
ENCODING 63
SWIDTH 600 0
DWIDTH 14 0
BBX 10 16 2 0
BITMAP
006CEEC820
1BFFFFFFE3
5FFFFFFFFB
05D512CFFD
0000008FFA
000007FFD1
0000AFFB10
0007FFC000
000CFF5000
0000000000
0000000000
0008ED5000
005FFFE100
007FFFF300
005FFFE100
0008ED5000
ENDCHAR
STARTCHAR at
ENCODING 64
SWIDTH 600 0
DWIDTH 14 0
BBX 14 20 0 -4
BITMAP
000018CEEC5000
0004EFFFFFF900
003FFFFFFFFF50
00CFFC4115DFC0
05FFC100003FF1
0AFF2000158FF2
0EFB002AFFFFF3
1FF702EFFFFFF3
3FF40AFFD99FF3
3FF30DFC005FF3
3FF30DFC229FF3
2FF40BFFFFFFF3
1FF704FFFFDEF3
0DFB006EEA2BF3
09FF4000000000
03FFD200000000
00AFFE61027800
001DFFFFFFFF20
0002DFFFFFFD20
000006BEEC7000
ENDCHAR
STARTCHAR A
ENCODING 65
SWIDTH 600 0
DWIDTH 14 0
BBX 15 16 0 0
BITMAP
00001FFFF7000000
00005FFFFC000000
0000AFFEFF100000
0000EFDAFF600000
0004FFA6FFA00000
0009FF62FFE00000
000DFF20DFF40000
003FFD009FF90000
007FF9005FFD0000
00CFFFFFFFFF3000
02FFFFFFFFFF8000
06FFFFFFFFFFC000
0BFFA00006FFF200
1FFF600002FFF600
5FFF300000EFFB00
9FFE000000AFFF10
ENDCHAR
STARTCHAR B
ENCODING 66
SWIDTH 600 0
DWIDTH 14 0
BBX 13 16 1 0
BITMAP
3FFFFFEDB71000
3FFFFFFFFFD100
3FFFFFFFFFF800
3FFF4014EFFB00
3FFF4000BFFA00
3FFF4015FFF400
3FFFFFFFFE6000
3FFFFFFFFA4000
3FFFFFFFFFF700
3FFF4002AFFF20
3FFF40001FFF60
3FFF40001FFF70
3FFF4003BFFF40
3FFFFFFFFFFD00
3FFFFFFFFFE300
3FFFFFFEC71000
ENDCHAR
STARTCHAR C
ENCODING 67
SWIDTH 600 0
DWIDTH 14 0
BBX 13 16 1 0
BITMAP
00004ADFEB5000
001BFFFFFFFB10
00CFFFFFFFFD10
08FFFC4017D200
1EFFD100000000
5FFF5000000000
9FFF1000000000
AFFE0000000000
AFFE0000000000
9FFF1000000000
6FFF5000000000
2FFFD100002000
09FFFC4117F800
01DFFFFFFFFF60
002CFFFFFFFC10
00005BEFEB5000
ENDCHAR
STARTCHAR D
ENCODING 68
SWIDTH 600 0
DWIDTH 14 0
BBX 13 16 1 0
BITMAP
5FFFFEDA500000
5FFFFFFFFC2000
5FFFFFFFFFD100
5FFF424CFFF900
5FFF4001DFFE10
5FFF40007FFF40
5FFF40003FFF60
5FFF40002FFF80
5FFF40002FFF70
5FFF40003FFF60
5FFF40007FFF40
5FFF4001EFFE00
5FFF415DFFF800
5FFFFFFFFFD100
5FFFFFFFFC2000
5FFFFFDA500000
ENDCHAR
STARTCHAR E
ENCODING 69
SWIDTH 600 0
DWIDTH 14 0
BBX 11 16 2 0
BITMAP
CFFFFFFFFF90
CFFFFFFFFF90
CFFFFFFFFF90
CFFC00000000
CFFC00000000
CFFC00000000
CFFFFFFFF800
CFFFFFFFF800
CFFFFFFFF800
CFFC00000000
CFFC00000000
CFFC00000000
CFFC00000000
CFFFFFFFFFC0
CFFFFFFFFFC0
CFFFFFFFFFC0
ENDCHAR
STARTCHAR F
ENCODING 70
SWIDTH 600 0
DWIDTH 14 0
BBX 11 16 2 0
BITMAP
7FFFFFFFFFE0
7FFFFFFFFFE0
7FFFFFFFFFE0
7FFF10000000
7FFF10000000
7FFF10000000
7FFF10000000
7FFFFFFFFE00
7FFFFFFFFE00
7FFFFFFFFE00
7FFF10000000
7FFF10000000
7FFF10000000
7FFF10000000
7FFF10000000
7FFF10000000
ENDCHAR
STARTCHAR G
ENCODING 71
SWIDTH 600 0
DWIDTH 14 0
BBX 13 16 1 0
BITMAP
00017BEFD82000
003DFFFFFFE500
03EFFFFFFFF600
0CFFF9203C7000
4FFFA000000000
9FFF2000000000
CFFD0000000000
DFFB005FFFFF20
EFFB005FFFFF20
DFFC005FFFFF20
AFFF10001FFF20
6FFF80001FFF20
0DFFF8204FFF20
04FFFFFFFFFF20
005EFFFFFFF900
00018CEFD93000
ENDCHAR
STARTCHAR H
ENCODING 72
SWIDTH 600 0
DWIDTH 14 0
BBX 12 16 1 0
BITMAP
7FFF1000AFFD
7FFF1000AFFD
7FFF1000AFFD
7FFF1000AFFD
7FFF1000AFFD
7FFF1000AFFD
7FFFFFFFFFFD
7FFFFFFFFFFD
7FFFFFFFFFFD
7FFF1000AFFD
7FFF1000AFFD
7FFF1000AFFD
7FFF1000AFFD
7FFF1000AFFD
7FFF1000AFFD
7FFF1000AFFD
ENDCHAR
STARTCHAR I
ENCODING 73
SWIDTH 600 0
DWIDTH 14 0
BBX 12 16 1 0
BITMAP
3FFFFFFFFFF9
3FFFFFFFFFF9
3FFFFFFFFFF9
00009FFF0000
00009FFF0000
00009FFF0000
00009FFF0000
00009FFF0000
00009FFF0000
00009FFF0000
00009FFF0000
00009FFF0000
00009FFF0000
3FFFFFFFFFF9
3FFFFFFFFFF9
3FFFFFFFFFF9
ENDCHAR
STARTCHAR J
ENCODING 74
SWIDTH 600 0
DWIDTH 14 0
BBX 12 16 1 0
BITMAP
04FFFFFFFFF6
04FFFFFFFFF6
04FFFFFFFFF6
00000002FFF6
00000002FFF6
00000002FFF6
00000002FFF6
00000002FFF6
00000002FFF6
00000002FFF6
00000002FFF6
00700005FFF4
0AFB303CFFF1
5FFFFFFFFFA0
08FFFFFFFC10
003ADFEC6000
ENDCHAR
STARTCHAR K
ENCODING 75
SWIDTH 600 0
DWIDTH 14 0
BBX 14 16 1 0
BITMAP
6FFF30007FFF70
6FFF3003FFFB00
6FFF300CFFD100
6FFF309FFF4000
6FFF34FFF70000
6FFF4EFFB00000
6FFFDFFF400000
6FFFFFFFB00000
6FFFFFFFF40000
6FFFFCDFFC0000
6FFFE25FFF5000
6FFF500DFFD000
6FFF3006FFF600
6FFF3000DFFD00
6FFF30006FFF70
6FFF30000DFFE1
ENDCHAR
STARTCHAR L
ENCODING 76
SWIDTH 600 0
DWIDTH 14 0
BBX 12 16 2 0
BITMAP
7FFF10000000
7FFF10000000
7FFF10000000
7FFF10000000
7FFF10000000
7FFF10000000
7FFF10000000
7FFF10000000
7FFF10000000
7FFF10000000
7FFF10000000
7FFF10000000
7FFF10000000
7FFFFFFFFFF1
7FFFFFFFFFF1
7FFFFFFFFFF1
ENDCHAR
STARTCHAR M
ENCODING 77
SWIDTH 600 0
DWIDTH 14 0
BBX 12 16 1 0
BITMAP
9FFF3000CFFF
9FFF7001FFFF
9FFFC005FFFF
9FEFF10AFEFF
9FEDF50EFBFF
9FF9F93FDAFF
9FF6FC6F9BFF
9FF3FFBF5CFF
9FF3BFFF1DFF
9FF46FFB0EFF
9FF52FF60EFF
9FF509B10FFF
9FF500000FFF
9FF500000FFF
9FF500000FFF
9FF500000FFF
ENDCHAR
STARTCHAR N
ENCODING 78
SWIDTH 600 0
DWIDTH 14 0
BBX 12 16 1 0
BITMAP
6FFF60008FFC
6FFFC0008FFC
6FFFF4008FFC
6FFFFA008FFC
6FFEFF108FFC
6FFAFF708FFC
6FFAAFD08FFC
6FFC5FF57FFC
6FFD0DFB6FFC
6FFE07FF6FFC
6FFF01FF9FFC
6FFF00AFEFFC
6FFF004FFFFC
6FFF000DFFFC
6FFF0006FFFC
6FFF0001EFFC
ENDCHAR
STARTCHAR O
ENCODING 79
SWIDTH 600 0
DWIDTH 14 0
BBX 14 16 0 0
BITMAP
00006BEFD81000
001BFFFFFFE400
00AFFFFFFFFE20
03FFFC218FFF90
09FFF2000BFFE1
0DFFC00006FFF4
0FFF900003FFF6
1FFF800002FFF7
1FFF800002FFF7
0FFF900004FFF6
0DFFC00006FFF3
09FFF3000CFFE0
03FFFC218FFF90
009FFFFFFFFE10
001BFFFFFFE300
00006BEFD81000
ENDCHAR
STARTCHAR P
ENCODING 80
SWIDTH 600 0
DWIDTH 14 0
BBX 13 16 1 0
BITMAP
3FFFFFFEB71000
3FFFFFFFFFD200
3FFFFFFFFFFC00
3FFF5013CFFF30
3FFF50002FFF60
3FFF50000FFF70
3FFF50003FFF50
3FFF5014DFFF10
3FFFFFFFFFF900
3FFFFFFFFFB100
3FFFFFFEB50000
3FFF5000000000
3FFF5000000000
3FFF5000000000
3FFF5000000000
3FFF5000000000
ENDCHAR
STARTCHAR Q
ENCODING 81
SWIDTH 600 0
DWIDTH 14 0
BBX 14 20 0 -4
BITMAP
00006BEFD81000
001BFFFFFFE300
009FFFFFFFFE10
03FFFC218FFF90
09FFF2000BFFE0
0CFFC00006FFF3
0FFF900003FFF6
0FFF800002FFF7
1FFF800003FFF7
0FFF900004FFF6
0DFFC00006FFF4
09FFF2000BFFF1
04FFFC218FFFA0
00BFFFFFFFFF30
002DFFFFFFF600
00019EFFFC3000
000002FFFC4111
0000008FFFFFF8
00000008FFFFFC
000000003ADFE9
ENDCHAR
STARTCHAR R
ENCODING 82
SWIDTH 600 0
DWIDTH 14 0
BBX 13 16 1 0
BITMAP
5FFFFFFDB71000
5FFFFFFFFFD200
5FFFFFFFFFFB00
5FFF3013CFFF10
5FFF30004FFF30
5FFF30005FFF30
5FFF3014DFFE10
5FFFFFFFFFF800
5FFFFFFFFFA000
5FFFFFFFFA0000
5FFF30AFFF2000
5FFF303FFFA000
5FFF300AFFF300
5FFF3003FFFA00
5FFF3000AFFF30
5FFF30003FFFB0
ENDCHAR
STARTCHAR S
ENCODING 83
SWIDTH 600 0
DWIDTH 14 0
BBX 13 16 1 0
BITMAP
0005BEFEB60000
00AFFFFFFFD300
08FFFFFFFFF600
1EFFC2026D9000
2FFF7000010000
1FFFE600000000
0AFFFFE8200000
01CFFFFFFA2000
0017EFFFFFE300
000006CFFFFC00
00000004EFFF20
016000007FFF30
0BFC5102CFFE10
8FFFFFFFFFF800
1AFFFFFFFFA000
0039CEFDA40000
ENDCHAR
STARTCHAR T
ENCODING 84
SWIDTH 600 0
DWIDTH 14 0
BBX 14 16 0 0
BITMAP
4FFFFFFFFFFFFA
4FFFFFFFFFFFFA
4FFFFFFFFFFFFA
000009FFF00000
000009FFF00000
000009FFF00000
000009FFF00000
000009FFF00000
000009FFF00000
000009FFF00000
000009FFF00000
000009FFF00000
000009FFF00000
000009FFF00000
000009FFF00000
000009FFF00000
ENDCHAR
STARTCHAR U
ENCODING 85
SWIDTH 600 0
DWIDTH 14 0
BBX 12 16 1 0
BITMAP
7FFF10008FFD
7FFF10008FFD
7FFF10008FFD
7FFF10008FFD
7FFF10008FFD
7FFF10008FFD
7FFF10008FFD
7FFF10008FFD
7FFF10008FFD
7FFF10008FFD
6FFF20009FFC
4FFF4000CFFA
1FFFC217FFF7
09FFFFFFFFE1
01CFFFFFFF50
0017CEFDA300
ENDCHAR
STARTCHAR V
ENCODING 86
SWIDTH 600 0
DWIDTH 14 0
BBX 14 16 0 0
BITMAP
7FFF300000AFFD
3FFF700000EFF9
0DFFB00002FFF5
09FFE00006FFF1
05FFF3000AFFB0
01FFF7000DFF60
00BFFA002FFF20
006FFE005FFD00
002FFF209FF800
000DFF60DFF400
0008FFA1FFE000
0004FFD5FFA000
0000EFFAFF6000
0000AFFFFF1000
00005FFFFC0000
00001FFFF70000
ENDCHAR
STARTCHAR W
ENCODING 87
SWIDTH 600 0
DWIDTH 14 0
BBX 15 16 0 0
BITMAP
DFFC0000002FFF40
BFFD0000003FFF20
9FFE0000004FFF00
7FFE0000005FFD00
5FFF00DE905FFB00
3FFF12FFC06FFA00
1FFF25FFF17FF800
0EFF39FFF48FF600
0CFF4CFCF78FF400
0AFF4FF9FA9FF200
08FF7FD6FD9FF100
06FFAFA3FFAFE000
04FFEF71FFEFC000
02FFFF50DFFFA000
00FFFF20AFFF9000
00DFFE007FFF7000
ENDCHAR
STARTCHAR X
ENCODING 88
SWIDTH 600 0
DWIDTH 14 0
BBX 14 16 0 0
BITMAP
1EFFD00005FFF6
07FFF6000CFFD0
01DFFD004FFF50
006FFF60AFFC00
000CFFD2FFF400
0004FFFCFFB000
0000BFFFFF3000
00003FFFFA0000
00006FFFFB0000
0001EFFFFF4000
0008FFCBFFD000
002EFF64FFF600
009FFE00CFFE10
03FFF7004FFF80
0BFFE1000BFFF2
4FFF700003FFFA
ENDCHAR
STARTCHAR Y
ENCODING 89
SWIDTH 600 0
DWIDTH 14 0
BBX 14 16 0 0
BITMAP
6FFF600000DFFC
0DFFC00005FFF5
06FFF3000BFFC0
01EFF9002FFF50
007FFE108FFD00
001EFF60DFF600
0008FFC5FFD000
0001EFFDFF7000
00009FFFFE1000
00002FFFF70000
00000AFFF10000
000009FFF00000
000009FFF00000
000009FFF00000
000009FFF00000
000009FFF00000
ENDCHAR
STARTCHAR Z
ENCODING 90
SWIDTH 600 0
DWIDTH 14 0
BBX 13 16 1 0
BITMAP
0EFFFFFFFFFF00
0EFFFFFFFFFF00
0EFFFFFFFFFC00
0000000AFFF300
0000005FFF7000
000001EFFC0000
00000BFFE20000
00006FFF700000
0002EFFB000000
000BFFE2000000
006FFF60000000
02EFFB00000000
0BFFE200000000
6FFFFFFFFFFF20
AFFFFFFFFFFF20
AFFFFFFFFFFF20
ENDCHAR
STARTCHAR bracketleft
ENCODING 91
SWIDTH 600 0
DWIDTH 14 0
BBX 8 21 4 -4
BITMAP
3FFFFFFE
3FFFFFFE
3FF70000
3FF70000
3FF70000
3FF70000
3FF70000
3FF70000
3FF70000
3FF70000
3FF70000
3FF70000
3FF70000
3FF70000
3FF70000
3FF70000
3FF70000
3FF70000
3FF70000
3FFFFFFE
3FFFFFFE
ENDCHAR
STARTCHAR backslash
ENCODING 92
SWIDTH 600 0
DWIDTH 14 0
BBX 12 21 1 -4
BITMAP
1FFE00000000
0AFF40000000
04FFA0000000
00DFF1000000
008FF6000000
002FFC000000
000CFF300000
0006FF800000
0001FFE00000
0000AFF50000
00004FFA0000
00000DFF1000
000008FF6000
000002FFC000
000000CFF300
0000006FF800
0000001EFE00
0000000AFF50
00000004FFA0
00000000DFF1
000000008FF7
ENDCHAR
STARTCHAR bracketright
ENCODING 93
SWIDTH 600 0
DWIDTH 14 0
BBX 8 21 2 -4
BITMAP
8FFFFFF9
8FFFFFF9
00001FF9
00001FF9
00001FF9
00001FF9
00001FF9
00001FF9
00001FF9
00001FF9
00001FF9
00001FF9
00001FF9
00001FF9
00001FF9
00001FF9
00001FF9
00001FF9
00001FF9
8FFFFFF9
8FFFFFF9
ENDCHAR
STARTCHAR asciicircum
ENCODING 94
SWIDTH 600 0
DWIDTH 14 0
BBX 11 10 2 6
BITMAP
0006FFC00000
000CFFF30000
002FFFF80000
008FFCFE0000
00DFC6FF4000
04FF71FFA000
0AFF20BFF100
1EFC006FF600
6FF7001FFC00
BFF2000BFF20
ENDCHAR
STARTCHAR underscore
ENCODING 95
SWIDTH 600 0
DWIDTH 14 0
BBX 12 3 1 -4
BITMAP
8FFFFFFFFFFE
8FFFFFFFFFFE
8FFFFFFFFFFE
ENDCHAR
STARTCHAR grave
ENCODING 96
SWIDTH 600 0
DWIDTH 14 0
BBX 6 6 3 14
BITMAP
03B100
3EFA00
AFFF80
09FFF6
007FFC
0004B1
ENDCHAR
STARTCHAR a
ENCODING 97
SWIDTH 600 0
DWIDTH 14 0
BBX 12 12 1 0
BITMAP
0027BEFEB400
09FFFFFFFF80
0BFFFFFFFFF4
03E83014EFF9
00037ACEFFFC
02CFFFFFFFFD
1EFFFFFFFFFD
6FFF8421AFFD
8FFE2026DFFD
5FFFFFFFFFFD
0CFFFFFEAFFD
018EFD922FFD
ENDCHAR
STARTCHAR b
ENCODING 98
SWIDTH 600 0
DWIDTH 14 0
BBX 13 17 1 0
BITMAP
4FFF4000000000
4FFF4000000000
4FFF4000000000
4FFF4000000000
4FFF4000000000
4FFF48DFD81000
4FFFEFFFFFC100
4FFFFFFFFFF800
4FFFE414EFFE00
4FFF40009FFF20
4FFF40006FFF40
4FFF40007FFF30
4FFF5000AFFF10
4FFFE416FFFC00
4FFFFFFFFFF400
4FFDEFFFFF8000
4FF919EEC50000
ENDCHAR
STARTCHAR c
ENCODING 99
SWIDTH 600 0
DWIDTH 14 0
BBX 12 12 1 0
BITMAP
00016BEFEA40
004EFFFFFFF9
03FFFFFFFFF5
0CFFFA312790
3FFFA0000000
5FFF50000000
5FFF50000000
3FFFA0000000
0DFFF92027E2
05FFFFFFFFFB
006EFFFFFFF9
00028CEFD930
ENDCHAR
STARTCHAR d
ENCODING 100
SWIDTH 600 0
DWIDTH 14 0
BBX 12 17 1 0
BITMAP
00000000DFFA
00000000DFFA
00000000DFFA
00000000DFFA
00000000DFFA
0029EFC5BFFA
03EFFFFFEFFA
1DFFFFFFFFFA
6FFFB218FFFA
BFFE1000DFFA
DFFC0000DFFA
DFFC0000DFFA
BFFE1000EFFA
7FFFA21AFFFA
2EFFFFFFFFFA
06FFFFFFCFFA
004BEEB34FFA
ENDCHAR
STARTCHAR e
ENCODING 101
SWIDTH 600 0
DWIDTH 14 0
BBX 13 12 1 0
BITMAP
0004AEFEA40000
009FFFFFFF9000
08FFFFFFFFF500
2FFF72017FFC00
7FFFFFFFFFFF10
AFFFFFFFFFFF20
AFFFFFFFFFFF10
8FFF2000000000
3FFFD510268000
09FFFFFFFFF200
009FFFFFFFF500
00049DFEC82000
ENDCHAR
STARTCHAR f
ENCODING 102
SWIDTH 600 0
DWIDTH 14 0
BBX 12 17 2 0
BITMAP
000006BEFDB7
0000AFFFFFFD
0006FFFFFFF9
000BFFE41133
000DFFA00000
DEFFFFFFFFB0
FFFFFFFFFFB0
FFFFFFFFFFB0
000DFFA00000
000DFFA00000
000DFFA00000
000DFFA00000
000DFFA00000
000DFFA00000
000DFFA00000
000DFFA00000
000DFFA00000
ENDCHAR
STARTCHAR g
ENCODING 103
SWIDTH 600 0
DWIDTH 14 0
BBX 13 17 1 -5
BITMAP
0028DFFFFFFF90
03EFFFFFFFFF90
0DFFFFFFFFFF90
2FFF712AFF7000
3FFF3008FFB000
1EFFEBCFFF9000
07FFFFFFFF3000
01DFFFFFB30000
0BFD3431000000
1FFFFFFFFDA300
0DFFFFFFFFFF30
03FFEFFFFFFF90
2EF500001CFFA0
AFF921026EFF70
AFFFFFFFFFFD10
3EFFFFFFFFC200
028CEFEDA50000
ENDCHAR
STARTCHAR h
ENCODING 104
SWIDTH 600 0
DWIDTH 14 0
BBX 12 17 1 0
BITMAP
4FFF40000000
4FFF40000000
4FFF40000000
4FFF40000000
4FFF30000000
4FFF24BEEC40
4FFFAFFFFFF2
4FFFFFFFFFF9
4FFFF613EFFC
4FFF7000AFFE
4FFF40008FFE
4FFF40008FFE
4FFF40008FFE
4FFF40008FFE
4FFF40008FFE
4FFF40008FFE
4FFF40008FFE
ENDCHAR
STARTCHAR i
ENCODING 105
SWIDTH 600 0
DWIDTH 14 0
BBX 10 18 1 0
BITMAP
000005DEA1
00000EFFF8
00000EFFF8
000005DEB1
0000000000
0000000000
2FFFFFFFF3
2FFFFFFFF3
2FFFFFFFF3
000005FFF3
000005FFF3
000005FFF3
000005FFF3
000005FFF3
000005FFF3
000005FFF3
000005FFF3
000005FFF3
ENDCHAR
STARTCHAR j
ENCODING 106
SWIDTH 600 0
DWIDTH 14 0
BBX 10 23 1 -5
BITMAP
000005DEA1
00000EFFF8
00000EFFF8
000005DEB1
0000000000
0000000000
2FFFFFFFF3
2FFFFFFFF3
2FFFFFFFF3
000005FFF3
000005FFF3
000005FFF3
000005FFF3
000005FFF3
000005FFF3
000005FFF3
000005FFF3
000005FFF3
000007FFF1
16203DFFE0
5FFFFFFF90
BFFFFFFC10
4ADFEC7000
ENDCHAR
STARTCHAR k
ENCODING 107
SWIDTH 600 0
DWIDTH 14 0
BBX 13 17 1 0
BITMAP
3FFF5000000000
3FFF5000000000
3FFF5000000000
3FFF5000000000
3FFF5000000000
3FFF5000AFFF40
3FFF5008FFF500
3FFF507FFF5000
3FFF55FFF60000
3FFFAFFF800000
3FFFFFFF900000
3FFFFFFFF40000
3FFFFBAFFD1000
3FFFB11EFFA000
3FFF5005FFF500
3FFF5000BFFE10
3FFF50002EFFA0
ENDCHAR
STARTCHAR l
ENCODING 108
SWIDTH 600 0
DWIDTH 14 0
BBX 12 17 1 0
BITMAP
CFFFFFF70000
CFFFFFF70000
CFFFFFF70000
0001FFF70000
0001FFF70000
0001FFF70000
0001FFF70000
0001FFF70000
0001FFF70000
0001FFF70000
0001FFF70000
0001FFF70000
0001FFF80000
0000EFFE3022
00009FFFFFF8
00002EFFFFFC
000002AEFEC7
ENDCHAR
STARTCHAR m
ENCODING 109
SWIDTH 600 0
DWIDTH 14 0
BBX 14 12 0 0
BITMAP
2FF94CE906EE80
2FFCEFFF9FFFF5
2FFFFFFFFFFFFA
2FFFA3FFF4AFFB
2FFF41FFC09FFC
2FFF31FFA09FFC
2FFF31FFA09FFC
2FFF31FFA09FFC
2FFF31FFA09FFC
2FFF31FFA09FFC
2FFF31FFA09FFC
2FFF31FFA09FFC
ENDCHAR
STARTCHAR n
ENCODING 110
SWIDTH 600 0
DWIDTH 14 0
BBX 12 12 1 0
BITMAP
4FFA04BEEC40
4FFD8FFFFFF2
4FFFFFFFFFF9
4FFFF713EFFC
4FFF8000AFFE
4FFF40008FFE
4FFF40008FFE
4FFF40008FFE
4FFF40008FFE
4FFF40008FFE
4FFF40008FFE
4FFF40008FFE
ENDCHAR
STARTCHAR o
ENCODING 111
SWIDTH 600 0
DWIDTH 14 0
BBX 13 12 1 0
BITMAP
0006BEFD820000
01CFFFFFFE5000
0CFFFFFFFFF300
5FFFB216FFFB00
AFFE1000AFFF10
CFFC00006FFF30
CFFC00006FFF30
AFFE1000AFFF10
6FFFA216FFFB00
0CFFFFFFFFF300
01CFFFFFFE5000
0006BEFD820000
ENDCHAR
STARTCHAR p
ENCODING 112
SWIDTH 600 0
DWIDTH 14 0
BBX 13 17 1 -5
BITMAP
4FFB18DFD81000
4FFEDFFFFFC100
4FFFFFFFFFF800
4FFFE514EFFE00
4FFF50009FFF20
4FFF40006FFF40
4FFF40007FFF30
4FFF4000AFFF10
4FFFD316FFFC00
4FFFFFFFFFF400
4FFFEFFFFF8000
4FFF49EEC50000
4FFF3000000000
4FFF4000000000
4FFF4000000000
4FFF4000000000
4FFF4000000000
ENDCHAR
STARTCHAR q
ENCODING 113
SWIDTH 600 0
DWIDTH 14 0
BBX 12 17 1 -5
BITMAP
0029EFC53FFA
03EFFFFFCFFA
1DFFFFFFFFFA
6FFFB21AFFFA
BFFE1000EFFA
DFFC0000DFFA
DFFC0000DFFA
BFFE1000DFFA
7FFFA219FFFA
2EFFFFFFFFFA
06FFFFFFEFFA
004BEEB3BFFA
00000000CFFA
00000000DFFA
00000000DFFA
00000000DFFA
00000000DFFA
ENDCHAR
STARTCHAR r
ENCODING 114
SWIDTH 600 0
DWIDTH 14 0
BBX 12 12 2 0
BITMAP
3FFB017CEEB1
3FFC2DFFFFD0
3FFECFFFFFA0
3FFFFE720220
3FFFE3000000
3FFF70000000
3FFF50000000
3FFF50000000
3FFF50000000
3FFF50000000
3FFF50000000
3FFF50000000
ENDCHAR
STARTCHAR s
ENCODING 115
SWIDTH 600 0
DWIDTH 14 0
BBX 12 12 1 0
BITMAP
0017CEFEA500
03EFFFFFFFC3
0BFFFFFFFFF3
0EFFB1026C80
0CFFFA751000
04EFFFFFFB40
0028DFFFFFF5
02100258EFFC
0CE94101BFFE
7FFFFFFFFFFA
2AFFFFFFFFD1
0038CEFEB600
ENDCHAR
STARTCHAR t
ENCODING 116
SWIDTH 600 0
DWIDTH 14 0
BBX 13 16 1 0
BITMAP
0004FFB0000000
0006FFB0000000
0007FFB0000000
0009FFB0000000
BEEFFFFFFFFB00
CFFFFFFFFFFB00
CFFFFFFFFFFB00
000CFFB0000000
000CFFB0000000
000CFFB0000000
000CFFB0000000
000CFFC0000000
000AFFF7102300
0006FFFFFFFC00
0000BFFFFFFF10
000007CEFEB710
ENDCHAR
STARTCHAR u
ENCODING 117
SWIDTH 600 0
DWIDTH 14 0
BBX 12 12 1 0
BITMAP
8FFF0000EFF9
8FFF0000EFF9
8FFF0000EFF9
8FFF0000EFF9
8FFF0000EFF9
8FFF0000EFF9
8FFF0000EFF9
7FFF1003FFF9
6FFF813DFFF9
2FFFFFFFFFF9
0AFFFFFC9FF9
019EFD705FF9
ENDCHAR
STARTCHAR v
ENCODING 118
SWIDTH 600 0
DWIDTH 14 0
BBX 14 12 0 0
BITMAP
1FFF700000DFF7
0AFFC00003FFF2
05FFF20008FFB0
00EFF7000DFF60
009FFC003FFE10
003FFF208FFA00
000CFF60DFF400
0007FFB2FFE000
0001FFF7FF8000
0000BFFEFF3000
00005FFFFC0000
00000EFFF70000
ENDCHAR
STARTCHAR w
ENCODING 119
SWIDTH 600 0
DWIDTH 14 0
BBX 15 12 0 0
BITMAP
CFF90000000FFF30
AFFB0066402FFF10
8FFD03FFB04FFE00
5FFF05FFE06FFC00
3FFF28FEF27FF900
0FFF4BFAF59FF700
0DFF5EE8F8BFF500
0AFF8FC6FACFF200
08FFCFA4FDEFF000
05FFFF81FFFFD000
03FFFF50EFFFB000
01FFFF30BFFF8000
ENDCHAR
STARTCHAR x
ENCODING 120
SWIDTH 600 0
DWIDTH 14 0
BBX 13 12 1 0
BITMAP
8FFF4000BFFD10
0CFFD004FFF500
03FFF70CFFA000
007FFE6FFE1000
000CFFFFF60000
0003FFFFC00000
0007FFFF900000
003FFFFFF40000
00CFF8AFFE1000
07FFE11EFFB000
2FFF7005FFF600
CFFD0000AFFE20
ENDCHAR
STARTCHAR y
ENCODING 121
SWIDTH 600 0
DWIDTH 14 0
BBX 14 17 0 -5
BITMAP
1EFF700000CFF8
09FFC00002FFF2
03FFF30007FFB0
00BFF9000CFF60
005FFE002FFE10
000DFF507FF900
0007FFA0BFF300
0001EFE2FFD000
00009FFAFF7000
00002FFFFF1000
00000BFFFB0000
000004FFF50000
000005FFE00000
00114EFF800000
00EFFFFE100000
02FFFFE4000000
04EFEA20000000
ENDCHAR
STARTCHAR z
ENCODING 122
SWIDTH 600 0
DWIDTH 14 0
BBX 12 12 1 0
BITMAP
09FFFFFFFFFC
09FFFFFFFFFC
09FFFFFFFFF7
0000008FFF80
000007FFF900
00006FFFB000
0004FFFC1000
003EFFD10000
02EFFD200000
1DFFFFFFFFFE
5FFFFFFFFFFE
5FFFFFFFFFFE
ENDCHAR
STARTCHAR braceleft
ENCODING 123
SWIDTH 600 0
DWIDTH 14 0
BBX 10 21 2 -4
BITMAP
00002ADFFE
0001EFFFFE
0005FFC200
0006FF8000
0005FF7000
0004FF8000
0003FF8000
0004FF9000
014DFF7000
7FFFFE2000
7FFFB20000
7FFFFD2000
014DFF7000
0004FF9000
0003FF8000
0004FF8000
0005FF7000
0006FF8000
0005FFC200
0001EFFFFE
00003ADFFE
ENDCHAR
STARTCHAR bar
ENCODING 124
SWIDTH 600 0
DWIDTH 14 0
BBX 4 24 5 -6
BITMAP
5FFC
5FFC
5FFC
5FFC
5FFC
5FFC
5FFC
5FFC
5FFC
5FFC
5FFC
5FFC
5FFC
5FFC
5FFC
5FFC
5FFC
5FFC
5FFC
5FFC
5FFC
5FFC
5FFC
5FFC
ENDCHAR
STARTCHAR braceright
ENCODING 125
SWIDTH 600 0
DWIDTH 14 0
BBX 10 21 2 -4
BITMAP
7FFEC60000
7FFFFF6000
0018FFB000
0002FFC000
0001FFC000
0002FFA000
0002FF9000
0002FF9000
0001FFF720
00009FFFFD
000007EFFD
00009FFFFD
0001FFF720
0002FF9000
0002FF9000
0002FFA000
0001FFC000
0002FFC000
0018FFB000
7FFFFF6000
7FFEC60000
ENDCHAR
STARTCHAR asciitilde
ENCODING 126
SWIDTH 600 0
DWIDTH 14 0
BBX 12 4 1 6
BITMAP
008DEC7218E8
0BFFFFFFFFFB
6FFFFFFFFFE2
4CC215AEEB30
ENDCHAR
STARTCHAR uni00A0
ENCODING 160
SWIDTH 600 0
DWIDTH 14 0
BBX 1 1 0 0
BITMAP
00
ENDCHAR
STARTCHAR exclamdown
ENCODING 161
SWIDTH 600 0
DWIDTH 14 0
BBX 6 17 4 -5
BITMAP
04DE90
1EFFF5
2FFFF8
1EFFF6
04DE90
000000
000000
00FF60
01FF70
02FF80
03FF90
04FFA0
05FFB0
06FFC0
07FFD0
07FFD0
08FFE0
ENDCHAR
STARTCHAR cent
ENCODING 162
SWIDTH 600 0
DWIDTH 14 0
BBX 11 17 2 -1
BITMAP
000008F60000
000008F60000
0004BFFFB400
009FFFFFFF20
08FFFFFFF900
2FFFC9F76100
7FFF28F60000
9FFD08F60000
AFFB08F60000
9FFD08F60000
7FFF28F60000
2FFFC9F76500
09FFFFFFFD10
01BFFFFFFF50
0006CFFEA400
000008F60000
000008F60000
ENDCHAR
STARTCHAR sterling
ENCODING 163
SWIDTH 600 0
DWIDTH 14 0
BBX 13 15 1 0
BITMAP
00004ADFEB5000
0008FFFFFFF900
005FFFFFFFFB00
00AFFE5116B000
00BFFA00000000
007FFB00000000
4DFFFFFFFE0000
5FFFFFFFFE0000
5FFFFFFFFE0000
0009FF70000000
000CFF50000000
006FFA00000000
29FFFFFFFFFF30
6FFFFFFFFFFF30
6FFFFFFFFFFF30
ENDCHAR
STARTCHAR currency
ENCODING 164
SWIDTH 600 0
DWIDTH 14 0
BBX 13 14 1 1
BITMAP
04000000004100
7FA0000004FC10
CFFAAEEC8FFF40
1DFFFFFFFFF500
06FFFFFFFFB000
0BFFC217FFF200
0EFF4000DFF500
0EFF4000DFF500
0CFFC217FFF200
05FFFFFFFFB000
1CFFFFFFFFF400
CFFBAEEC8FFE30
7FA0000005FC10
05000000004100
ENDCHAR
STARTCHAR yen
ENCODING 165
SWIDTH 600 0
DWIDTH 14 0
BBX 14 15 0 0
BITMAP
1EFF900002FFF6
06FFF20009FFC0
00CFF8002FFF30
004FFE108FFA00
000AFF71EFE200
0002FFD7FF7000
0233AFFFFE4330
09FFFFFFFFFFF0
07CCCEFFFCCCC0
02333AFFE33330
09FFFFFFFFFFF0
07CCCEFFFCCCC0
000009FFE00000
000009FFE00000
000009FFE00000
ENDCHAR
STARTCHAR brokenbar
ENCODING 166
SWIDTH 600 0
DWIDTH 14 0
BBX 4 24 5 -6
BITMAP
5FFC
5FFC
5FFC
5FFC
5FFC
5FFC
5FFC
5FFC
5FFC
5FFC
3886
0000
0000
3886
5FFC
5FFC
5FFC
5FFC
5FFC
5FFC
5FFC
5FFC
5FFC
5FFC
ENDCHAR
STARTCHAR section
ENCODING 167
SWIDTH 600 0
DWIDTH 14 0
BBX 12 19 1 -2
BITMAP
0004BEFD8100
004FFFFFFE40
00CFFFFFFE20
00FFF504C600
00EFF8000000
009FFFD60000
02DFFFFFD500
0DFF6AFFFF80
3FFB002AFFF5
3FFE20008FF9
0EFFE6005FFA
03EFFFD7CFF6
002BFFFFFF90
00003AFFFD00
0000003FFF20
01BB303FFF30
0CFFFFFFFE00
05EFFFFFF600
0029DFEB4000
ENDCHAR
STARTCHAR dieresis
ENCODING 168
SWIDTH 600 0
DWIDTH 14 0
BBX 10 4 2 14
BITMAP
0AEA006ED3
4FFF50EFFA
4FFF50EFFA
0AEA006ED3
ENDCHAR
STARTCHAR copyright
ENCODING 169
SWIDTH 600 0
DWIDTH 14 0
BBX 14 15 0 0
BITMAP
00006BEFD82000
002DC51039E600
01DA0001005F50
09D108EFD308E1
1F70AFFFFE12F6
5F34FFFEF800CB
7F18FF503000AD
8F0AFE0000009E
7F18FF301100AD
5F35FFFDF700CA
1F80CFFFFE12F6
09E11AFFE609E1
01DB0013105F50
002CC51039E500
00006BEFD82000
ENDCHAR
STARTCHAR ordfeminine
ENCODING 170
SWIDTH 600 0
DWIDTH 14 0
BBX 9 8 3 9
BITMAP
018DFD7000
1DFFFFF800
0DFFFFFD00
06CDEFFF00
2EF726FF10
7FE12AFF10
5FFFFFFF10
08EEA3FF10
ENDCHAR
STARTCHAR guillemotleft
ENCODING 171
SWIDTH 600 0
DWIDTH 14 0
BBX 12 11 1 1
BITMAP
0006A00003C2
008FF6003EFB
09FFB004EFE2
AFFE205FFF60
FFF5009FFA00
FFB0009FF200
FFF5009FFA00
AFFE205FFF60
09FFB004EFE2
008FF6003EFB
0006A00003C2
ENDCHAR
STARTCHAR logicalnot
ENCODING 172
SWIDTH 600 0
DWIDTH 14 0
BBX 12 8 1 1
BITMAP
5FFFFFFFFFFB
5FFFFFFFFFFB
5FFFFFFFFFFB
000000000DFB
000000000DFB
000000000DFB
000000000DFB
000000000665
ENDCHAR
STARTCHAR uni00AD
ENCODING 173
SWIDTH 600 0
DWIDTH 14 0
BBX 12 3 1 6
BITMAP
5FFFFFFFFFFB
5FFFFFFFFFFB
5FFFFFFFFFFB
ENDCHAR
STARTCHAR registered
ENCODING 174
SWIDTH 600 0
DWIDTH 14 0
BBX 10 9 2 8
BITMAP
003AEFC600
06E7214DA0
2F58BB61E6
7D0CDDF38C
8B0C95F36D
7D0CFFB08C
2F5863A3E6
06E7214CA0
003BEFC600
ENDCHAR
STARTCHAR macron
ENCODING 175
SWIDTH 600 0
DWIDTH 14 0
BBX 8 2 3 14
BITMAP
5FFFFFFB
5FFFFFFB
ENDCHAR
STARTCHAR degree
ENCODING 176
SWIDTH 600 0
DWIDTH 14 0
BBX 8 8 3 9
BITMAP
007DEB20
07FFFFD0
1EF41BF6
3FA004FA
3FA004FA
1EF41BF6
07FFFFD0
007EFB20
ENDCHAR
STARTCHAR plusminus
ENCODING 177
SWIDTH 600 0
DWIDTH 14 0
BBX 12 14 1 0
BITMAP
00001FF80000
00001FF80000
00001FF80000
00001FF80000
5FFFFFFFFFFB
5FFFFFFFFFFB
5FFFFFFFFFFB
00001FF80000
00001FF80000
00001FF80000
000000000000
5FFFFFFFFFFB
5FFFFFFFFFFB
5FFFFFFFFFFB
ENDCHAR
STARTCHAR two.sups
ENCODING 178
SWIDTH 600 0
DWIDTH 14 0
BBX 8 11 3 8
BITMAP
02AEEA20
2EFFFFE2
AFFFFFF7
3D515FF9
00000EF6
00006FD0
0007FE20
01AFE300
3DFFFFFE
6FFFFFFE
5FFFFFFE
ENDCHAR
STARTCHAR three.sups
ENCODING 179
SWIDTH 600 0
DWIDTH 14 0
BBX 8 12 3 7
BITMAP
019EEB30
0CFFFFE3
4FFFFFF9
07713EF9
00014FF3
000FFF80
00014EF6
000009FD
3D612DFF
AFFFFFFC
2EFFFFF3
02AEEB30
ENDCHAR
STARTCHAR acute
ENCODING 180
SWIDTH 600 0
DWIDTH 14 0
BBX 7 6 5 14
BITMAP
00068000
004FF800
03EFFE20
2DFFD200
6FFB1000
07900000
ENDCHAR
STARTCHAR uni00B5
ENCODING 181
SWIDTH 600 0
DWIDTH 14 0
BBX 13 17 1 -5
BITMAP
7FFF1000FFF800
7FFF1000FFF800
7FFF1000FFF700
7FFF1000FFF700
7FFF1000FFF600
7FFF1000FFF600
7FFF1000FFF500
7FFF2004FFF500
7FFF813EFFF600
7FFFFFFFFFFF90
7FFFFFFE6FFFD0
7FFECFB209FFE0
7FFD0000000100
7FFD0000000000
7FFE0000000000
7FFF0000000000
7FFF1000000000
ENDCHAR
STARTCHAR paragraph
ENCODING 182
SWIDTH 600 0
DWIDTH 14 0
BBX 12 18 1 -3
BITMAP
004ADFD0DFF9
07FFFFD0DFF9
3FFFFFD0DFF9
9FFFFFD0DFF9
CFFFFFD0DFF9
CFFFFFD0DFF9
BFFFFFD0DFF9
7FFFFFD0DFF9
1EFFFFD0DFF9
03EFFFD0DFF9
0017BDC0DFF9
00000000DFF9
00000000DFF9
00000000DFF9
00000000DFF9
00000000DFF9
00000000DFF9
00000000DFF9
ENDCHAR
STARTCHAR periodcentered
ENCODING 183
SWIDTH 600 0
DWIDTH 14 0
BBX 6 6 4 6
BITMAP
05DE91
3FFFF9
7FFFFD
7FFFFE
3FFFF9
06DEA1
ENDCHAR
STARTCHAR cedilla
ENCODING 184
SWIDTH 600 0
DWIDTH 14 0
BBX 6 6 4 -6
BITMAP
00DF30
04FD00
0AFFA1
016FF6
017FF4
6EDA40
ENDCHAR
STARTCHAR one.sups
ENCODING 185
SWIDTH 600 0
DWIDTH 14 0
BBX 8 10 4 8
BITMAP
016EF700
AFFFF700
BFFFF700
002FF700
002FF700
002FF700
002FF700
FFFFFFFF
FFFFFFFF
FFFFFFFF
ENDCHAR
STARTCHAR ordmasculine
ENCODING 186
SWIDTH 600 0
DWIDTH 14 0
BBX 9 8 3 9
BITMAP
019EFB3000
1DFFFFF400
8FFFFFFD00
BFD219FF20
CFD219FF20
8FFFFFFE00
1DFFFFF500
019EFC4000
ENDCHAR
STARTCHAR guillemotright
ENCODING 187
SWIDTH 600 0
DWIDTH 14 0
BBX 13 11 1 1
BITMAP
09700005B10000
5FF8001EFC2000
0BFFA005FFD200
01DFFB009FFE30
004FFF001DFF60
000BFF0005FF60
004FFF001DFF60
01DFFB009FFE30
0BFFA005FFD200
5FF8001EFC2000
09700005B10000
ENDCHAR
STARTCHAR onequarter
ENCODING 188
SWIDTH 600 0
DWIDTH 14 0
BBX 15 16 0 0
BITMAP
004BFC0000000000
0AFFFC000004A000
0BFFFC00002EFA00
000CFC0001CFE400
000CFC000AFE3000
000CFC007FD20000
000CFC001A200000
000CFC0000000000
000000001C700000
000085006FA00000
0009FC00DF422000
00AFE204FC4FF000
1BFF400BF64FF000
4FF6001FFFFFFF40
0590001FFFFFFF40
00000000004FF000
ENDCHAR
STARTCHAR onehalf
ENCODING 189
SWIDTH 600 0
DWIDTH 14 0
BBX 14 16 0 0
BITMAP
004BFC00000000
0AFFFC000004A0
0BFFFC00002EFA
000CFC0001CFE4
000CFC000AFE30
000CFC007FD200
000CFC001A2000
000CFC00000000
000000004CED60
00008504FFFFF5
0009FC08FFFFF7
00AFE200832FE2
1BFF400002BE30
4FF60002AFFFFC
05900007FFFFFC
00000007FFFFFC
ENDCHAR
STARTCHAR threequarters
ENCODING 190
SWIDTH 600 0
DWIDTH 14 0
BBX 15 16 0 0
BITMAP
06CFD80000000000
1EFFFF700002B100
0431EFA0001CFC00
0002EF7000AFF600
004FFD2007FF5000
0641BFD04FE40000
3FFFFFD01A300000
18CEEA2000000000
000000001C700000
000067006FA00000
0007FE10DF422000
008FF404FC4FF000
09FF600BF64FF000
2EF9001FFFFFFF40
03A0001FFFFFFF40
00000000004FF000
ENDCHAR
STARTCHAR questiondown
ENCODING 191
SWIDTH 600 0
DWIDTH 14 0
BBX 10 17 2 -5
BITMAP
0001BEB200
0009FFFB00
000CFFFD00
000AFFFB00
0002BEB200
0000000000
0000000000
0000EFF300
0004FFE100
003EFF7000
04EFF70000
1EFF600000
7FFE000000
7FFF502AB1
4FFFFFFFFB
0AFFFFFFE4
005BDFD820
ENDCHAR
STARTCHAR Agrave
ENCODING 192
SWIDTH 600 0
DWIDTH 14 0
BBX 15 21 0 0
BITMAP
00001B4000000000
0000BFF700000000
0001BFFFA1000000
000006EFF5000000
0000001980000000
00001FFFF7000000
00005FFFFC000000
0000AFFEFF100000
0000EFDAFF600000
0004FFA6FFA00000
0009FF62FFE00000
000DFF20DFF40000
003FFD009FF90000
007FF9005FFD0000
00CFFFFFFFFF3000
02FFFFFFFFFF8000
06FFFFFFFFFFC000
0BFFA00006FFF200
1FFF600002FFF600
5FFF300000EFFB00
9FFE000000AFFF10
ENDCHAR
STARTCHAR Aacute
ENCODING 193
SWIDTH 600 0
DWIDTH 14 0
BBX 15 21 0 0
BITMAP
00000001A4000000
0000003DFE300000
000005EFFE500000
00001EFF91000000
000003C400000000
00001FFFF7000000
00005FFFFC000000
0000AFFEFF100000
0000EFDAFF600000
0004FFA6FFA00000
0009FF62FFE00000
000DFF20DFF40000
003FFD009FF90000
007FF9005FFD0000
00CFFFFFFFFF3000
02FFFFFFFFFF8000
06FFFFFFFFFFC000
0BFFA00006FFF200
1FFF600002FFF600
5FFF300000EFFB00
9FFE000000AFFF10
ENDCHAR
STARTCHAR Acircumflex
ENCODING 194
SWIDTH 600 0
DWIDTH 14 0
BBX 15 20 0 0
BITMAP
00002EFFF7000000
0000CFFEFF300000
0008FF52CFD10000
0003C4001B700000
00001FFFF7000000
00005FFFFC000000
0000AFFEFF100000
0000EFDAFF600000
0004FFA6FFA00000
0009FF62FFE00000
000DFF20DFF40000
003FFD009FF90000
007FF9005FFD0000
00CFFFFFFFFF3000
02FFFFFFFFFF8000
06FFFFFFFFFFC000
0BFFA00006FFF200
1FFF600002FFF600
5FFF300000EFFB00
9FFE000000AFFF10
ENDCHAR
STARTCHAR Atilde
ENCODING 195
SWIDTH 600 0
DWIDTH 14 0
BBX 15 20 0 0
BITMAP
0006DFD716B90000
003FFFFFFFF90000
005BA15BEE910000
0000000000000000
00001FFFF7000000
00005FFFFC000000
0000AFFEFF100000
0000EFDAFF600000
0004FFA6FFA00000
0009FF62FFE00000
000DFF20DFF40000
003FFD009FF90000
007FF9005FFD0000
00CFFFFFFFFF3000
02FFFFFFFFFF8000
06FFFFFFFFFFC000
0BFFA00006FFF200
1FFF600002FFF600
5FFF300000EFFB00
9FFE000000AFFF10
ENDCHAR
STARTCHAR Adieresis
ENCODING 196
SWIDTH 600 0
DWIDTH 14 0
BBX 15 21 0 0
BITMAP
0009E9004EC20000
002FFF30CFF80000
002FFF30CFF80000
0008E9004EC20000
0000000000000000
00001FFFF7000000
00005FFFFC000000
0000AFFEFF100000
0000EFDAFF600000
0004FFA6FFA00000
0009FF62FFE00000
000DFF20DFF40000
003FFD009FF90000
007FF9005FFD0000
00CFFFFFFFFF3000
02FFFFFFFFFF8000
06FFFFFFFFFFC000
0BFFA00006FFF200
1FFF600002FFF600
5FFF300000EFFB00
9FFE000000AFFF10
ENDCHAR
STARTCHAR Aring
ENCODING 197
SWIDTH 600 0
DWIDTH 14 0
BBX 15 21 0 0
BITMAP
000009EEB3000000
00006F61EC000000
00006F61EC000000
000009EEB3000000
0000000000000000
00001FFFF7000000
00005FFFFC000000
0000AFFEFF100000
0000EFDAFF600000
0004FFA6FFA00000
0009FF62FFE00000
000DFF20DFF40000
003FFD009FF90000
007FF9005FFD0000
00CFFFFFFFFF3000
02FFFFFFFFFF8000
06FFFFFFFFFFC000
0BFFA00006FFF200
1FFF600002FFF600
5FFF300000EFFB00
9FFE000000AFFF10
ENDCHAR
STARTCHAR AE
ENCODING 198
SWIDTH 600 0
DWIDTH 14 0
BBX 15 16 0 0
BITMAP
00001EFFFFFFFF10
00005FFFFFFFFF10
0000AFFFFFFFFF10
0001EFFBFF900000
0005FFE8FF900000
000AFFA8FF900000
000EFF68FFFFF600
004FFF28FFFFF600
009FFD08FFFFF600
00EFF908FF900000
04FFFFFFFF900000
09FFFFFFFF900000
0EFFFFFFFF900000
4FFF7008FFFFFF40
9FFF1008FFFFFF40
EFFB0008FFFFFF40
ENDCHAR
STARTCHAR Ccedilla
ENCODING 199
SWIDTH 600 0
DWIDTH 14 0
BBX 13 22 1 -6
BITMAP
00004ADFEB5000
001BFFFFFFFB10
00CFFFFFFFFD10
08FFFC4017D200
1EFFD100000000
5FFF5000000000
9FFF1000000000
AFFE0000000000
AFFE0000000000
9FFF1000000000
6FFF5000000000
2FFFD100002000
09FFFC4117F800
01DFFFFFFFFF60
002CFFFFFFFC10
00005BEFEB5000
000000DF300000
000004FD000000
00000AFFB10000
0000016FF70000
0000016FF40000
00005EDA400000
ENDCHAR
STARTCHAR Egrave
ENCODING 200
SWIDTH 600 0
DWIDTH 14 0
BBX 11 21 2 0
BITMAP
0005A1000000
003EFC200000
005EFFE40000
0001AFFD0000
000004C20000
CFFFFFFFFF90
CFFFFFFFFF90
CFFFFFFFFF90
CFFC00000000
CFFC00000000
CFFC00000000
CFFFFFFFF800
CFFFFFFFF800
CFFFFFFFF800
CFFC00000000
CFFC00000000
CFFC00000000
CFFC00000000
CFFFFFFFFFC0
CFFFFFFFFFC0
CFFFFFFFFFC0
ENDCHAR
STARTCHAR Eacute
ENCODING 201
SWIDTH 600 0
DWIDTH 14 0
BBX 11 21 2 0
BITMAP
0000004B1000
000007FFA000
0001AFFFB100
0006FFE50000
000099100000
CFFFFFFFFF90
CFFFFFFFFF90
CFFFFFFFFF90
CFFC00000000
CFFC00000000
CFFC00000000
CFFFFFFFF800
CFFFFFFFF800
CFFFFFFFF800
CFFC00000000
CFFC00000000
CFFC00000000
CFFC00000000
CFFFFFFFFFC0
CFFFFFFFFFC0
CFFFFFFFFFC0
ENDCHAR
STARTCHAR Ecircumflex
ENCODING 202
SWIDTH 600 0
DWIDTH 14 0
BBX 11 20 2 0
BITMAP
0008FFFE2000
004FFEFFB000
01EFC16FF700
008B1005C300
CFFFFFFFFF90
CFFFFFFFFF90
CFFFFFFFFF90
CFFC00000000
CFFC00000000
CFFC00000000
CFFFFFFFF800
CFFFFFFFF800
CFFFFFFFF800
CFFC00000000
CFFC00000000
CFFC00000000
CFFC00000000
CFFFFFFFFFC0
CFFFFFFFFFC0
CFFFFFFFFFC0
ENDCHAR
STARTCHAR Edieresis
ENCODING 203
SWIDTH 600 0
DWIDTH 14 0
BBX 11 21 2 0
BITMAP
02DE400AE800
09FFC04FFF10
09FFB04FFF10
02DD400AE700
000000000000
CFFFFFFFFF90
CFFFFFFFFF90
CFFFFFFFFF90
CFFC00000000
CFFC00000000
CFFC00000000
CFFFFFFFF800
CFFFFFFFF800
CFFFFFFFF800
CFFC00000000
CFFC00000000
CFFC00000000
CFFC00000000
CFFFFFFFFFC0
CFFFFFFFFFC0
CFFFFFFFFFC0
ENDCHAR
STARTCHAR Igrave
ENCODING 204
SWIDTH 600 0
DWIDTH 14 0
BBX 12 21 1 0
BITMAP
0001B4000000
000BFF700000
001BFFFA1000
00006EFF5000
000001980000
3FFFFFFFFFF9
3FFFFFFFFFF9
3FFFFFFFFFF9
00009FFF0000
00009FFF0000
00009FFF0000
00009FFF0000
00009FFF0000
00009FFF0000
00009FFF0000
00009FFF0000
00009FFF0000
00009FFF0000
3FFFFFFFFFF9
3FFFFFFFFFF9
3FFFFFFFFFF9
ENDCHAR
STARTCHAR Iacute
ENCODING 205
SWIDTH 600 0
DWIDTH 14 0
BBX 12 21 1 0
BITMAP
0000001A4000
000003DFE300
00005EFFE500
0001EFF91000
00003C400000
3FFFFFFFFFF9
3FFFFFFFFFF9
3FFFFFFFFFF9
00009FFF0000
00009FFF0000
00009FFF0000
00009FFF0000
00009FFF0000
00009FFF0000
00009FFF0000
00009FFF0000
00009FFF0000
00009FFF0000
3FFFFFFFFFF9
3FFFFFFFFFF9
3FFFFFFFFFF9
ENDCHAR
STARTCHAR Icircumflex
ENCODING 206
SWIDTH 600 0
DWIDTH 14 0
BBX 12 20 1 0
BITMAP
0002EFFF7000
000CFFEFF300
008FF52CFD10
003C4001B700
3FFFFFFFFFF9
3FFFFFFFFFF9
3FFFFFFFFFF9
00009FFF0000
00009FFF0000
00009FFF0000
00009FFF0000
00009FFF0000
00009FFF0000
00009FFF0000
00009FFF0000
00009FFF0000
00009FFF0000
3FFFFFFFFFF9
3FFFFFFFFFF9
3FFFFFFFFFF9
ENDCHAR
STARTCHAR Idieresis
ENCODING 207
SWIDTH 600 0
DWIDTH 14 0
BBX 12 21 1 0
BITMAP
009E9004EC20
02FFF30CFF80
02FFF30CFF80
008E9004EC20
000000000000
3FFFFFFFFFF9
3FFFFFFFFFF9
3FFFFFFFFFF9
00009FFF0000
00009FFF0000
00009FFF0000
00009FFF0000
00009FFF0000
00009FFF0000
00009FFF0000
00009FFF0000
00009FFF0000
00009FFF0000
3FFFFFFFFFF9
3FFFFFFFFFF9
3FFFFFFFFFF9
ENDCHAR
STARTCHAR Eth
ENCODING 208
SWIDTH 600 0
DWIDTH 14 0
BBX 14 16 0 0
BITMAP
05FFFFEDA50000
05FFFFFFFFC200
05FFFFFFFFFD10
05FFF424CFFF90
05FFF4001DFFE1
05FFF40007FFF4
05FFF40003FFF6
DFFFFFFC02FFF8
FFFFFFFC02FFF7
05FFF40003FFF6
05FFF40007FFF3
05FFF4001EFFE0
05FFF415DFFF80
05FFFFFFFFFD10
05FFFFFFFFC200
05FFFFFDA50000
ENDCHAR
STARTCHAR Ntilde
ENCODING 209
SWIDTH 600 0
DWIDTH 14 0
BBX 12 20 1 0
BITMAP
004CED924BA1
01EFFFFFFFD0
02BB23AEEB20
000000000000
6FFF60008FFC
6FFFC0008FFC
6FFFF4008FFC
6FFFFA008FFC
6FFEFF108FFC
6FFAFF708FFC
6FFAAFD08FFC
6FFC5FF57FFC
6FFD0DFB6FFC
6FFE07FF6FFC
6FFF01FF9FFC
6FFF00AFEFFC
6FFF004FFFFC
6FFF000DFFFC
6FFF0006FFFC
6FFF0001EFFC
ENDCHAR
STARTCHAR Ograve
ENCODING 210
SWIDTH 600 0
DWIDTH 14 0
BBX 14 21 0 0
BITMAP
00001B40000000
0000BFF7000000
0001BFFFA10000
000006EFF50000
00000019800000
00006BEFD81000
001BFFFFFFE400
00AFFFFFFFFE20
03FFFC218FFF90
09FFF2000BFFE1
0DFFC00006FFF4
0FFF900003FFF6
1FFF800002FFF7
1FFF800002FFF7
0FFF900004FFF6
0DFFC00006FFF3
09FFF3000CFFE0
03FFFC218FFF90
009FFFFFFFFE10
001BFFFFFFE300
00006BEFD81000
ENDCHAR
STARTCHAR Oacute
ENCODING 211
SWIDTH 600 0
DWIDTH 14 0
BBX 14 21 0 0
BITMAP
00000001A40000
0000003DFE3000
000005EFFE5000
00001EFF910000
000003C4000000
00006BEFD81000
001BFFFFFFE400
00AFFFFFFFFE20
03FFFC218FFF90
09FFF2000BFFE1
0DFFC00006FFF4
0FFF900003FFF6
1FFF800002FFF7
1FFF800002FFF7
0FFF900004FFF6
0DFFC00006FFF3
09FFF3000CFFE0
03FFFC218FFF90
009FFFFFFFFE10
001BFFFFFFE300
00006BEFD81000
ENDCHAR
STARTCHAR Ocircumflex
ENCODING 212
SWIDTH 600 0
DWIDTH 14 0
BBX 14 20 0 0
BITMAP
00002EFFF70000
0000CFFEFF3000
0008FF52CFD100
0003C4001B7000
00006BEFD81000
001BFFFFFFE400
00AFFFFFFFFE20
03FFFC218FFF90
09FFF2000BFFE1
0DFFC00006FFF4
0FFF900003FFF6
1FFF800002FFF7
1FFF800002FFF7
0FFF900004FFF6
0DFFC00006FFF3
09FFF3000CFFE0
03FFFC218FFF90
009FFFFFFFFE10
001BFFFFFFE300
00006BEFD81000
ENDCHAR
STARTCHAR Otilde
ENCODING 213
SWIDTH 600 0
DWIDTH 14 0
BBX 14 20 0 0
BITMAP
0006DFD716B900
003FFFFFFFF900
005BA15BEE9100
00000000000000
00006BEFD81000
001BFFFFFFE400
00AFFFFFFFFE20
03FFFC218FFF90
09FFF2000BFFE1
0DFFC00006FFF4
0FFF900003FFF6
1FFF800002FFF7
1FFF800002FFF7
0FFF900004FFF6
0DFFC00006FFF3
09FFF3000CFFE0
03FFFC218FFF90
009FFFFFFFFE10
001BFFFFFFE300
00006BEFD81000
ENDCHAR
STARTCHAR Odieresis
ENCODING 214
SWIDTH 600 0
DWIDTH 14 0
BBX 14 21 0 0
BITMAP
0009E9004EC200
002FFF30CFF800
002FFF30CFF800
0008E9004EC200
00000000000000
00006BEFD81000
001BFFFFFFE400
00AFFFFFFFFE20
03FFFC218FFF90
09FFF2000BFFE1
0DFFC00006FFF4
0FFF900003FFF6
1FFF800002FFF7
1FFF800002FFF7
0FFF900004FFF6
0DFFC00006FFF3
09FFF3000CFFE0
03FFFC218FFF90
009FFFFFFFFE10
001BFFFFFFE300
00006BEFD81000
ENDCHAR
STARTCHAR multiply
ENCODING 215
SWIDTH 600 0
DWIDTH 14 0
BBX 11 11 2 3
BITMAP
010000000000
2D800001B300
BFF8002DFE20
2DFF83EFF800
02DFFFFF7000
002DFFF60000
003EFFF80000
03EFFEFF8000
3EFF62DFF900
BFF6001CFE20
1C600001B300
ENDCHAR
STARTCHAR Oslash
ENCODING 216
SWIDTH 600 0
DWIDTH 14 0
BBX 14 18 0 -1
BITMAP
00000000000360
00006BEFD92DFA
001BFFFFFFFFF3
00AFFFFFFFFF80
03FFFC219FFF90
09FFF200BFFFE0
0DFFC006FFFFF4
0FFF903FFCFFF6
1FFF80CFD3FFF7
1FFF89FF42FFF7
0FFFDFF804FFF6
0DFFFFC006FFF3
09FFFE200CFFE0
03FFFD318FFF90
03FFFFFFFFFE10
0CFFFFFFFFE300
4FF46BEFD81000
03600000000000
ENDCHAR
STARTCHAR Ugrave
ENCODING 217
SWIDTH 600 0
DWIDTH 14 0
BBX 12 21 1 0
BITMAP
0001B4000000
000BFF700000
001BFFFA1000
00006EFF5000
000001980000
7FFF10008FFD
7FFF10008FFD
7FFF10008FFD
7FFF10008FFD
7FFF10008FFD
7FFF10008FFD
7FFF10008FFD
7FFF10008FFD
7FFF10008FFD
7FFF10008FFD
6FFF20009FFC
4FFF4000CFFA
1FFFC217FFF7
09FFFFFFFFE1
01CFFFFFFF50
0017CEFDA300
ENDCHAR
STARTCHAR Uacute
ENCODING 218
SWIDTH 600 0
DWIDTH 14 0
BBX 12 21 1 0
BITMAP
0000001A4000
000003DFE300
00005EFFE500
0001EFF91000
00003C400000
7FFF10008FFD
7FFF10008FFD
7FFF10008FFD
7FFF10008FFD
7FFF10008FFD
7FFF10008FFD
7FFF10008FFD
7FFF10008FFD
7FFF10008FFD
7FFF10008FFD
6FFF20009FFC
4FFF4000CFFA
1FFFC217FFF7
09FFFFFFFFE1
01CFFFFFFF50
0017CEFDA300
ENDCHAR
STARTCHAR Ucircumflex
ENCODING 219
SWIDTH 600 0
DWIDTH 14 0
BBX 12 20 1 0
BITMAP
0002EFFF7000
000CFFEFF300
008FF52CFD10
003C4001B700
7FFF10008FFD
7FFF10008FFD
7FFF10008FFD
7FFF10008FFD
7FFF10008FFD
7FFF10008FFD
7FFF10008FFD
7FFF10008FFD
7FFF10008FFD
7FFF10008FFD
6FFF20009FFC
4FFF4000CFFA
1FFFC217FFF7
09FFFFFFFFE1
01CFFFFFFF50
0017CEFDA300
ENDCHAR
STARTCHAR Udieresis
ENCODING 220
SWIDTH 600 0
DWIDTH 14 0
BBX 12 21 1 0
BITMAP
009E9004EC20
02FFF30CFF80
02FFF30CFF80
008E9004EC20
000000000000
7FFF10008FFD
7FFF10008FFD
7FFF10008FFD
7FFF10008FFD
7FFF10008FFD
7FFF10008FFD
7FFF10008FFD
7FFF10008FFD
7FFF10008FFD
7FFF10008FFD
6FFF20009FFC
4FFF4000CFFA
1FFFC217FFF7
09FFFFFFFFE1
01CFFFFFFF50
0017CEFDA300
ENDCHAR
STARTCHAR Yacute
ENCODING 221
SWIDTH 600 0
DWIDTH 14 0
BBX 14 21 0 0
BITMAP
00000001A40000
0000003DFE3000
000005EFFE5000
00001EFF910000
000003C4000000
6FFF600000DFFC
0DFFC00005FFF5
06FFF3000BFFC0
01EFF9002FFF50
007FFE108FFD00
001EFF60DFF600
0008FFC5FFD000
0001EFFDFF7000
00009FFFFE1000
00002FFFF70000
00000AFFF10000
000009FFF00000
000009FFF00000
000009FFF00000
000009FFF00000
000009FFF00000
ENDCHAR
STARTCHAR Thorn
ENCODING 222
SWIDTH 600 0
DWIDTH 14 0
BBX 13 16 1 0
BITMAP
4FFF4000000000
4FFF4000000000
4FFF4000000000
4FFFFFFDC82000
4FFFFFFFFFF500
4FFFFFFFFFFE10
4FFF40029FFF60
4FFF40000EFF80
4FFF40001FFF80
4FFF4003AFFF50
4FFFFFFFFFFD00
4FFFFFFFFFD200
4FFFFFFEB71000
4FFF4000000000
4FFF4000000000
4FFF4000000000
ENDCHAR
STARTCHAR germandbls
ENCODING 223
SWIDTH 600 0
DWIDTH 14 0
BBX 13 17 1 0
BITMAP
0029DFEC600000
03EFFFFFF90000
0DFFFFFFFF3000
4FFFA13FFF6000
7FFF200DFF5000
8FFF001FFF1000
8FFF008FF80000
8FFF01FFF10000
8FFF04FFF40000
8FFF02FFFF7000
8FFF009FFFFA00
8FFF0008FFFF50
8FFF00003EFFA0
8FFF00631AFFA0
8FFF02FFFFFF70
8FFF09FFFFFD10
8FFF029EFE9100
ENDCHAR
STARTCHAR agrave
ENCODING 224
SWIDTH 600 0
DWIDTH 14 0
BBX 12 20 1 0
BITMAP
000095000000
000AFE300000
003EFFE20000
0003EFFC1000
00002CFF4000
000001A50000
000000000000
000000000000
0027BEFEB400
09FFFFFFFF80
0BFFFFFFFFF4
03E83014EFF9
00037ACEFFFC
02CFFFFFFFFD
1EFFFFFFFFFD
6FFF8421AFFD
8FFE2026DFFD
5FFFFFFFFFFD
0CFFFFFEAFFD
018EFD922FFD
ENDCHAR
STARTCHAR aacute
ENCODING 225
SWIDTH 600 0
DWIDTH 14 0
BBX 12 20 1 0
BITMAP
00000001B200
0000000CFD20
000000AFFF80
000008FFF700
00001DFF5000
000002C30000
000000000000
000000000000
0027BEFEB400
09FFFFFFFF80
0BFFFFFFFFF4
03E83014EFF9
00037ACEFFFC
02CFFFFFFFFD
1EFFFFFFFFFD
6FFF8421AFFD
8FFE2026DFFD
5FFFFFFFFFFD
0CFFFFFEAFFD
018EFD922FFD
ENDCHAR
STARTCHAR acircumflex
ENCODING 226
SWIDTH 600 0
DWIDTH 14 0
BBX 12 18 1 0
BITMAP
00008FFFD100
0007FFFFFC10
005FFB28FFB0
002C60003C50
000000000000
000000000000
0027BEFEB400
09FFFFFFFF80
0BFFFFFFFFF4
03E83014EFF9
00037ACEFFFC
02CFFFFFFFFD
1EFFFFFFFFFD
6FFF8421AFFD
8FFE2026DFFD
5FFFFFFFFFFD
0CFFFFFEAFFD
018EFD922FFD
ENDCHAR
STARTCHAR atilde
ENCODING 227
SWIDTH 600 0
DWIDTH 14 0
BBX 12 17 1 0
BITMAP
001BFFB43DC2
009FFFFFFFE0
008B617DEC30
000000000000
000000000000
0027BEFEB400
09FFFFFFFF80
0BFFFFFFFFF4
03E83014EFF9
00037ACEFFFC
02CFFFFFFFFD
1EFFFFFFFFFD
6FFF8421AFFD
8FFE2026DFFD
5FFFFFFFFFFD
0CFFFFFEAFFD
018EFD922FFD
ENDCHAR
STARTCHAR adieresis
ENCODING 228
SWIDTH 600 0
DWIDTH 14 0
BBX 12 18 1 0
BITMAP
004DD401BE80
00CFFD07FFF2
00CFFD07FFF3
004DE401BE80
000000000000
000000000000
0027BEFEB400
09FFFFFFFF80
0BFFFFFFFFF4
03E83014EFF9
00037ACEFFFC
02CFFFFFFFFD
1EFFFFFFFFFD
6FFF8421AFFD
8FFE2026DFFD
5FFFFFFFFFFD
0CFFFFFEAFFD
018EFD922FFD
ENDCHAR
STARTCHAR aring
ENCODING 229
SWIDTH 600 0
DWIDTH 14 0
BBX 12 18 1 0
BITMAP
00007DFEA200
0005FC18FB00
0005FC18FB00
00007DFEA200
000000000000
000000000000
0027BEFEB400
09FFFFFFFF80
0BFFFFFFFFF4
03E83014EFF9
00037ACEFFFC
02CFFFFFFFFD
1EFFFFFFFFFD
6FFF8421AFFD
8FFE2026DFFD
5FFFFFFFFFFD
0CFFFFFEAFFD
018EFD922FFD
ENDCHAR
STARTCHAR ae
ENCODING 230
SWIDTH 600 0
DWIDTH 14 0
BBX 15 12 0 0
BITMAP
018DFD606DFC4000
2EFFFFFAFFFFF300
0BFFFFFFFFEFF900
0388BEFFC10BFE00
02DFFFFFFFFFFF20
1DFFFFFFFFFFFF30
6FFF74FFFFFFFF20
8FF901FFA0000000
8FFB14FFF7127000
6FFFFFFFFFFFF400
1EFFFFBBFFFFFA00
03CFD7007DFD9200
ENDCHAR
STARTCHAR ccedilla
ENCODING 231
SWIDTH 600 0
DWIDTH 14 0
BBX 12 18 1 -6
BITMAP
00016BEFEA40
004EFFFFFFF9
03FFFFFFFFF5
0CFFFA312790
3FFFA0000000
5FFF50000000
5FFF50000000
3FFFA0000000
0DFFF92027E2
05FFFFFFFFFB
006EFFFFFFF9
00028CEFD930
000000DF3000
000004FD0000
00000AFFA100
0000016FF700
0000016FF400
00005EDA4000
ENDCHAR
STARTCHAR egrave
ENCODING 232
SWIDTH 600 0
DWIDTH 14 0
BBX 13 20 1 0
BITMAP
0001B300000000
001CFD10000000
006FFFC1000000
0005FFFA000000
00003EFE200000
000002C3000000
00000000000000
00000000000000
0004AEFEA40000
009FFFFFFF9000
08FFFFFFFFF500
2FFF72017FFC00
7FFFFFFFFFFF10
AFFFFFFFFFFF20
AFFFFFFFFFFF10
8FFF2000000000
3FFFD510268000
09FFFFFFFFF200
009FFFFFFFF500
00049DFEC82000
ENDCHAR
STARTCHAR eacute
ENCODING 233
SWIDTH 600 0
DWIDTH 14 0
BBX 13 20 1 0
BITMAP
00000003B10000
0000002DFC1000
000001CFFF5000
00000BFFE50000
00002EFE300000
000003B2000000
00000000000000
00000000000000
0004AEFEA40000
009FFFFFFF9000
08FFFFFFFFF500
2FFF72017FFC00
7FFFFFFFFFFF10
AFFFFFFFFFFF20
AFFFFFFFFFFF10
8FFF2000000000
3FFFD510268000
09FFFFFFFFF200
009FFFFFFFF500
00049DFEC82000
ENDCHAR
STARTCHAR ecircumflex
ENCODING 234
SWIDTH 600 0
DWIDTH 14 0
BBX 13 18 1 0
BITMAP
0000BFFFB00000
000AFFFFFA0000
008FF92AFF8000
004C40005C3000
00000000000000
00000000000000
0004AEFEA40000
009FFFFFFF9000
08FFFFFFFFF500
2FFF72017FFC00
7FFFFFFFFFFF10
AFFFFFFFFFFF20
AFFFFFFFFFFF10
8FFF2000000000
3FFFD510268000
09FFFFFFFFF200
009FFFFFFFF500
00049DFEC82000
ENDCHAR
STARTCHAR edieresis
ENCODING 235
SWIDTH 600 0
DWIDTH 14 0
BBX 13 18 1 0
BITMAP
006EC203DE6000
00FFFA0AFFE000
01FFFA0AFFE000
006EC203DE6000
00000000000000
00000000000000
0004AEFEA40000
009FFFFFFF9000
08FFFFFFFFF500
2FFF72017FFC00
7FFFFFFFFFFF10
AFFFFFFFFFFF20
AFFFFFFFFFFF10
8FFF2000000000
3FFFD510268000
09FFFFFFFFF200
009FFFFFFFF500
00049DFEC82000
ENDCHAR
STARTCHAR igrave
ENCODING 236
SWIDTH 600 0
DWIDTH 14 0
BBX 10 20 1 0
BITMAP
00002B1000
0003EFB000
0009FFF900
00008FFF70
000006FFD0
0000004B10
0000000000
0000000000
2FFFFFFFF3
2FFFFFFFF3
2FFFFFFFF3
000005FFF3
000005FFF3
000005FFF3
000005FFF3
000005FFF3
000005FFF3
000005FFF3
000005FFF3
000005FFF3
ENDCHAR
STARTCHAR iacute
ENCODING 237
SWIDTH 600 0
DWIDTH 14 0
BBX 12 20 1 0
BITMAP
000000005900
00000003FF90
0000002EFFE3
000001DFFD30
000005FFC200
0000006A1000
000000000000
000000000000
2FFFFFFFF300
2FFFFFFFF300
2FFFFFFFF300
000005FFF300
000005FFF300
000005FFF300
000005FFF300
000005FFF300
000005FFF300
000005FFF300
000005FFF300
000005FFF300
ENDCHAR
STARTCHAR icircumflex
ENCODING 238
SWIDTH 600 0
DWIDTH 14 0
BBX 12 18 1 0
BITMAP
00001DFFF800
0001CFFFFF70
000BFF72CFF5
0006C30007C2
000000000000
000000000000
2FFFFFFFF300
2FFFFFFFF300
2FFFFFFFF300
000005FFF300
000005FFF300
000005FFF300
000005FFF300
000005FFF300
000005FFF300
000005FFF300
000005FFF300
000005FFF300
ENDCHAR
STARTCHAR idieresis
ENCODING 239
SWIDTH 600 0
DWIDTH 14 0
BBX 12 18 1 0
BITMAP
0009EB105ED3
003FFF60DFFB
003FFF70DFFB
0009EB105ED3
000000000000
000000000000
2FFFFFFFF300
2FFFFFFFF300
2FFFFFFFF300
000005FFF300
000005FFF300
000005FFF300
000005FFF300
000005FFF300
000005FFF300
000005FFF300
000005FFF300
000005FFF300
ENDCHAR
STARTCHAR eth
ENCODING 240
SWIDTH 600 0
DWIDTH 14 0
BBX 13 17 1 0
BITMAP
0009A200047000
006FFF95CFF400
002AFFFFFB4000
0006EFFFF40000
02EFFAAFFE3000
00B9200BFFC000
0029DFC7FFF500
05FFFFFFEFFA00
2FFFFFFFFFFF00
9FFF6116EFFF10
CFF800005FFF30
DFF600002FFF20
BFF900005FFE00
7FFF7115EFFA00
1DFFFFFFFFE200
02DFFFFFFE4000
0017CEED820000
ENDCHAR
STARTCHAR ntilde
ENCODING 241
SWIDTH 600 0
DWIDTH 14 0
BBX 12 18 1 0
BITMAP
000010000000
002CFFA34CC1
00BFFFFFFFC0
00AB418DEB20
000000000000
000000000000
4FFA04BEEC40
4FFD8FFFFFF2
4FFFFFFFFFF9
4FFFF713EFFC
4FFF8000AFFE
4FFF40008FFE
4FFF40008FFE
4FFF40008FFE
4FFF40008FFE
4FFF40008FFE
4FFF40008FFE
4FFF40008FFE
ENDCHAR
STARTCHAR ograve
ENCODING 242
SWIDTH 600 0
DWIDTH 14 0
BBX 13 20 1 0
BITMAP
0003B100000000
003EFA00000000
00AFFF80000000
0009FFF6000000
00007FFC000000
000004B1000000
00000000000000
00000000000000
0006BEFD820000
01CFFFFFFE5000
0CFFFFFFFFF300
5FFFB216FFFB00
AFFE1000AFFF10
CFFC00006FFF30
CFFC00006FFF30
AFFE1000AFFF10
6FFFA216FFFB00
0CFFFFFFFFF300
01CFFFFFFE5000
0006BEFD820000
ENDCHAR
STARTCHAR oacute
ENCODING 243
SWIDTH 600 0
DWIDTH 14 0
BBX 13 20 1 0
BITMAP
00000006800000
0000004FF80000
000003EFFE2000
00002DFFD20000
00006FFB100000
00000790000000
00000000000000
00000000000000
0006BEFD820000
01CFFFFFFE5000
0CFFFFFFFFF300
5FFFB216FFFB00
AFFE1000AFFF10
CFFC00006FFF30
CFFC00006FFF30
AFFE1000AFFF10
6FFFA216FFFB00
0CFFFFFFFFF300
01CFFFFFFE5000
0006BEFD820000
ENDCHAR
STARTCHAR ocircumflex
ENCODING 244
SWIDTH 600 0
DWIDTH 14 0
BBX 13 18 1 0
BITMAP
0002EFFF700000
001DFFFFF50000
00CFE63CFF4000
007B20008B1000
00000000000000
00000000000000
0006BEFD820000
01CFFFFFFE5000
0CFFFFFFFFF300
5FFFB216FFFB00
AFFE1000AFFF10
CFFC00006FFF30
CFFC00006FFF30
AFFE1000AFFF10
6FFFA216FFFB00
0CFFFFFFFFF300
01CFFFFFFE5000
0006BEFD820000
ENDCHAR
STARTCHAR otilde
ENCODING 245
SWIDTH 600 0
DWIDTH 14 0
BBX 13 18 1 0
BITMAP
00001000000000
006EFE819C8000
02FFFFFFFF7000
03BB13BEE80000
00000000000000
00000000000000
0006BEFD820000
01CFFFFFFE5000
0CFFFFFFFFF300
5FFFB216FFFB00
AFFE1000AFFF10
CFFC00006FFF30
CFFC00006FFF30
AFFE1000AFFF10
6FFFA216FFFB00
0CFFFFFFFFF300
01CFFFFFFE5000
0006BEFD820000
ENDCHAR
STARTCHAR odieresis
ENCODING 246
SWIDTH 600 0
DWIDTH 14 0
BBX 13 18 1 0
BITMAP
00AEA006ED3000
04FFF50EFFA000
04FFF50EFFA000
00AEA006ED3000
00000000000000
00000000000000
0006BEFD820000
01CFFFFFFE5000
0CFFFFFFFFF300
5FFFB216FFFB00
AFFE1000AFFF10
CFFC00006FFF30
CFFC00006FFF30
AFFE1000AFFF10
6FFFA216FFFB00
0CFFFFFFFFF300
01CFFFFFFE5000
0006BEFD820000
ENDCHAR
STARTCHAR divide
ENCODING 247
SWIDTH 600 0
DWIDTH 14 0
BBX 12 13 1 1
BITMAP
00002CE70000
0000AFFF1000
0000AFFF1000
00003DE70000
000000000000
5FFFFFFFFFFB
5FFFFFFFFFFB
5FFFFFFFFFFB
000000000000
00002CE70000
0000AFFF1000
0000AFFF1000
00003DE70000
ENDCHAR
STARTCHAR oslash
ENCODING 248
SWIDTH 600 0
DWIDTH 14 0
BBX 13 14 1 -1
BITMAP
00000000003000
0006BEEC85F900
01CFFFFFFFF400
0CFFFFFFFFF300
5FFFB21CFFFB00
AFFF10AFEFFF10
CFFC08FB6FFF30
DFFC6FD17FFF30
AFFFFE20AFFF10
6FFFF416FFFB00
0CFFFFFFFFF300
1CFFFFFFFE5000
3E95BEFD820000
02000000000000
ENDCHAR
STARTCHAR ugrave
ENCODING 249
SWIDTH 600 0
DWIDTH 14 0
BBX 12 20 1 0
BITMAP
0004A0000000
004EF9000000
00BFFF700000
000AFFF50000
00008FFB0000
000005B10000
000000000000
000000000000
8FFF0000EFF9
8FFF0000EFF9
8FFF0000EFF9
8FFF0000EFF9
8FFF0000EFF9
8FFF0000EFF9
8FFF0000EFF9
7FFF1003FFF9
6FFF813DFFF9
2FFFFFFFFFF9
0AFFFFFC9FF9
019EFD705FF9
ENDCHAR
STARTCHAR uacute
ENCODING 250
SWIDTH 600 0
DWIDTH 14 0
BBX 12 20 1 0
BITMAP
000000087000
0000005FF700
000004FFFE10
00002EFFC200
00007FFB1000
000008800000
000000000000
000000000000
8FFF0000EFF9
8FFF0000EFF9
8FFF0000EFF9
8FFF0000EFF9
8FFF0000EFF9
8FFF0000EFF9
8FFF0000EFF9
7FFF1003FFF9
6FFF813DFFF9
2FFFFFFFFFF9
0AFFFFFC9FF9
019EFD705FF9
ENDCHAR
STARTCHAR ucircumflex
ENCODING 251
SWIDTH 600 0
DWIDTH 14 0
BBX 12 18 1 0
BITMAP
0003EFFF6000
002EFFFFF400
01DFE63DFE30
008B20008A10
000000000000
000000000000
8FFF0000EFF9
8FFF0000EFF9
8FFF0000EFF9
8FFF0000EFF9
8FFF0000EFF9
8FFF0000EFF9
8FFF0000EFF9
7FFF1003FFF9
6FFF813DFFF9
2FFFFFFFFFF9
0AFFFFFC9FF9
019EFD705FF9
ENDCHAR
STARTCHAR udieresis
ENCODING 252
SWIDTH 600 0
DWIDTH 14 0
BBX 12 18 1 0
BITMAP
00AE9006EC20
06FFF41FFF90
06FFF41FFF90
00BEA007EC20
000000000000
000000000000
8FFF0000EFF9
8FFF0000EFF9
8FFF0000EFF9
8FFF0000EFF9
8FFF0000EFF9
8FFF0000EFF9
8FFF0000EFF9
7FFF1003FFF9
6FFF813DFFF9
2FFFFFFFFFF9
0AFFFFFC9FF9
019EFD705FF9
ENDCHAR
STARTCHAR yacute
ENCODING 253
SWIDTH 600 0
DWIDTH 14 0
BBX 14 25 0 -5
BITMAP
000000004A0000
00000002EFB000
0000001DFFF400
000000CFFE4000
000003FFD20000
0000004B100000
00000000000000
00000000000000
1EFF700000CFF8
09FFC00002FFF2
03FFF30007FFB0
00BFF9000CFF60
005FFE002FFE10
000DFF507FF900
0007FFA0BFF300
0001EFE2FFD000
00009FFAFF7000
00002FFFFF1000
00000BFFFB0000
000004FFF50000
000005FFE00000
00114EFF800000
00EFFFFE100000
02FFFFE4000000
04EFEA20000000
ENDCHAR
STARTCHAR thorn
ENCODING 254
SWIDTH 600 0
DWIDTH 14 0
BBX 13 22 1 -5
BITMAP
4FFF4000000000
4FFF4000000000
4FFF4000000000
4FFF4000000000
4FFF4000000000
4FFF48DFD81000
4FFFEFFFFFC100
4FFFFFFFFFF800
4FFFE414EFFE00
4FFF40009FFF20
4FFF40006FFF40
4FFF40007FFF30
4FFF4000AFFF10
4FFFD316FFFC00
4FFFFFFFFFF400
4FFFEFFFFF7000
4FFF49EEB50000
4FFF3000000000
4FFF4000000000
4FFF4000000000
4FFF4000000000
4FFF4000000000
ENDCHAR
STARTCHAR ydieresis
ENCODING 255
SWIDTH 600 0
DWIDTH 14 0
BBX 14 23 0 -5
BITMAP
0007EC103DE400
002FFF80CFFD00
002FFF80CFFD00
0007EC204DE500
00000000000000
00000000000000
1EFF700000CFF8
09FFC00002FFF2
03FFF30007FFB0
00BFF9000CFF60
005FFE002FFE10
000DFF507FF900
0007FFA0BFF300
0001EFE2FFD000
00009FFAFF7000
00002FFFFF1000
00000BFFFB0000
000004FFF50000
000005FFE00000
00114EFF800000
00EFFFFE100000
02FFFFE4000000
04EFEA20000000
ENDCHAR
STARTCHAR Amacron
ENCODING 256
SWIDTH 600 0
DWIDTH 14 0
BBX 15 19 0 0
BITMAP
0006FFFFFFC00000
0006FFFFFFC00000
0000000000000000
00001FFFF7000000
00005FFFFC000000
0000AFFEFF100000
0000EFDAFF600000
0004FFA6FFA00000
0009FF62FFE00000
000DFF20DFF40000
003FFD009FF90000
007FF9005FFD0000
00CFFFFFFFFF3000
02FFFFFFFFFF8000
06FFFFFFFFFFC000
0BFFA00006FFF200
1FFF600002FFF600
5FFF300000EFFB00
9FFE000000AFFF10
ENDCHAR
STARTCHAR amacron
ENCODING 257
SWIDTH 600 0
DWIDTH 14 0
BBX 12 16 1 0
BITMAP
000DFFFFFF40
000DFFFFFF40
000000000000
000000000000
0027BEFEB400
09FFFFFFFF80
0BFFFFFFFFF4
03E83014EFF9
00037ACEFFFC
02CFFFFFFFFD
1EFFFFFFFFFD
6FFF8421AFFD
8FFE2026DFFD
5FFFFFFFFFFD
0CFFFFFEAFFD
018EFD922FFD
ENDCHAR
STARTCHAR Abreve
ENCODING 258
SWIDTH 600 0
DWIDTH 14 0
BBX 15 21 0 0
BITMAP
0007D5000DB00000
0007FD319FD00000
0001EFFFFF500000
00002AEEC5000000
0000000000000000
00001FFFF7000000
00005FFFFC000000
0000AFFEFF100000
0000EFDAFF600000
0004FFA6FFA00000
0009FF62FFE00000
000DFF20DFF40000
003FFD009FF90000
007FF9005FFD0000
00CFFFFFFFFF3000
02FFFFFFFFFF8000
06FFFFFFFFFFC000
0BFFA00006FFF200
1FFF600002FFF600
5FFF300000EFFB00
9FFE000000AFFF10
ENDCHAR
STARTCHAR abreve
ENCODING 259
SWIDTH 600 0
DWIDTH 14 0
BBX 12 19 1 0
BITMAP
000230001310
004FD0008FA0
001FF814EF70
0008FFFFFD10
00006DFEA200
000000000000
000000000000
0027BEFEB400
09FFFFFFFF80
0BFFFFFFFFF4
03E83014EFF9
00037ACEFFFC
02CFFFFFFFFD
1EFFFFFFFFFD
6FFF8421AFFD
8FFE2026DFFD
5FFFFFFFFFFD
0CFFFFFEAFFD
018EFD922FFD
ENDCHAR
STARTCHAR Aogonek
ENCODING 260
SWIDTH 600 0
DWIDTH 14 0
BBX 15 22 0 -6
BITMAP
00001FFFF7000000
00005FFFFC000000
0000AFFEFF100000
0000EFDAFF600000
0004FFA6FFA00000
0009FF62FFE00000
000DFF20DFF40000
003FFD009FF90000
007FF9005FFD0000
00CFFFFFFFFF3000
02FFFFFFFFFF8000
06FFFFFFFFFFC000
0BFFA00006FFF200
1FFF600002FFF600
5FFF300000EFFB00
9FFE000000AFFF10
00000000004EC300
0000000001EF2000
0000000007FF2300
0000000009FFFF40
0000000006FFFF90
00000000008EEA10
ENDCHAR
STARTCHAR aogonek
ENCODING 261
SWIDTH 600 0
DWIDTH 14 0
BBX 13 18 1 -6
BITMAP
0027BEFEB40000
09FFFFFFFF8000
0BFFFFFFFFF400
03E83014EFF900
00037ACEFFFC00
02CFFFFFFFFD00
1EFFFFFFFFFD00
6FFF8421AFFD00
8FFE2026DFFD00
5FFFFFFFFFFD00
0CFFFFFFCFFD00
018EFDA42FFD00
000000009F8200
00000008F70000
0000000EF81200
0000001FFFFE00
0000000DFFFF40
00000003BED700
ENDCHAR
STARTCHAR Cacute
ENCODING 262
SWIDTH 600 0
DWIDTH 14 0
BBX 13 21 1 0
BITMAP
00000000880000
0000001BFF6000
000003DFFF8000
00000AFFC30000
000001B6000000
00004ADFEB5000
001BFFFFFFFB10
00CFFFFFFFFD10
08FFFC4017D200
1EFFD100000000
5FFF5000000000
9FFF1000000000
AFFE0000000000
AFFE0000000000
9FFF1000000000
6FFF5000000000
2FFFD100002000
09FFFC4117F800
01DFFFFFFFFF60
002CFFFFFFFC10
00005BEFEB5000
ENDCHAR
STARTCHAR cacute
ENCODING 263
SWIDTH 600 0
DWIDTH 14 0
BBX 12 20 1 0
BITMAP
000000006800
00000004FF90
0000003EFFE2
000001DFFD20
000006FFB100
0000007A0000
000000000000
000000000000
00016BEFEA40
004EFFFFFFF9
03FFFFFFFFF5
0CFFFA312790
3FFFA0000000
5FFF50000000
5FFF50000000
3FFFA0000000
0DFFF92027E2
05FFFFFFFFFB
006EFFFFFFF9
00028CEFD930
ENDCHAR
STARTCHAR Ccircumflex
ENCODING 264
SWIDTH 600 0
DWIDTH 14 0
BBX 13 20 1 0
BITMAP
00000CFFFB0000
00008FFEFF7000
0004FF90AFF300
0001B70008A100
00004ADFEB5000
001BFFFFFFFB10
00CFFFFFFFFD10
08FFFC4017D200
1EFFD100000000
5FFF5000000000
9FFF1000000000
AFFE0000000000
AFFE0000000000
9FFF1000000000
6FFF5000000000
2FFFD100002000
09FFFC4117F800
01DFFFFFFFFF60
002CFFFFFFFC10
00005BEFEB5000
ENDCHAR
STARTCHAR ccircumflex
ENCODING 265
SWIDTH 600 0
DWIDTH 14 0
BBX 12 18 1 0
BITMAP
00002EFFF700
0001DFFFFF60
000CFE73CFF4
0006B20007B1
000000000000
000000000000
00016BEFEA40
004EFFFFFFF9
03FFFFFFFFF5
0CFFFA312790
3FFFA0000000
5FFF50000000
5FFF50000000
3FFFA0000000
0DFFF92027E2
05FFFFFFFFFB
006EFFFFFFF9
00028CEFD930
ENDCHAR
STARTCHAR Cdotaccent
ENCODING 266
SWIDTH 600 0
DWIDTH 14 0
BBX 13 21 1 0
BITMAP
000002BEB10000
000009FFF80000
000009FFF80000
000002CEB10000
00000000000000
00004ADFEB5000
001BFFFFFFFB10
00CFFFFFFFFD10
08FFFC4017D200
1EFFD100000000
5FFF5000000000
9FFF1000000000
AFFE0000000000
AFFE0000000000
9FFF1000000000
6FFF5000000000
2FFFD100002000
09FFFC4117F800
01DFFFFFFFFF60
002CFFFFFFFC10
00005BEFEB5000
ENDCHAR
STARTCHAR cdotaccent
ENCODING 267
SWIDTH 600 0
DWIDTH 14 0
BBX 12 18 1 0
BITMAP
000005DEA100
00001FFFF700
00001FFFF700
000006DEA100
000000000000
000000000000
00016BEFEA40
004EFFFFFFF9
03FFFFFFFFF5
0CFFFA312790
3FFFA0000000
5FFF50000000
5FFF50000000
3FFFA0000000
0DFFF92027E2
05FFFFFFFFFB
006EFFFFFFF9
00028CEFD930
ENDCHAR
STARTCHAR Ccaron
ENCODING 268
SWIDTH 600 0
DWIDTH 14 0
BBX 13 21 1 0
BITMAP
0001B70008A100
0004FF90AFF300
00008FFEFF7000
00000CFFFB0000
00000000000000
00004ADFEB5000
001BFFFFFFFB10
00CFFFFFFFFD10
08FFFC4017D200
1EFFD100000000
5FFF5000000000
9FFF1000000000
AFFE0000000000
AFFE0000000000
9FFF1000000000
6FFF5000000000
2FFFD100002000
09FFFC4117F800
01DFFFFFFFFF60
002CFFFFFFFC10
00005BEFEB5000
ENDCHAR
STARTCHAR ccaron
ENCODING 269
SWIDTH 600 0
DWIDTH 14 0
BBX 12 18 1 0
BITMAP
0006B20007B1
000CFE73CFF4
0001DFFFFF60
00002EFFF700
000000000000
000000000000
00016BEFEA40
004EFFFFFFF9
03FFFFFFFFF5
0CFFFA312790
3FFFA0000000
5FFF50000000
5FFF50000000
3FFFA0000000
0DFFF92027E2
05FFFFFFFFFB
006EFFFFFFF9
00028CEFD930
ENDCHAR
STARTCHAR Dcaron
ENCODING 270
SWIDTH 600 0
DWIDTH 14 0
BBX 13 21 1 0
BITMAP
003C4001B70000
008FF52CFD1000
000CFFEFF40000
0002EFFF700000
00000000000000
5FFFFEDA500000
5FFFFFFFFC2000
5FFFFFFFFFD100
5FFF424CFFF900
5FFF4001DFFE10
5FFF40007FFF40
5FFF40003FFF60
5FFF40002FFF80
5FFF40002FFF70
5FFF40003FFF60
5FFF40007FFF40
5FFF4001EFFE00
5FFF415DFFF800
5FFFFFFFFFD100
5FFFFFFFFC2000
5FFFFFDA500000
ENDCHAR
STARTCHAR dcaron
ENCODING 271
SWIDTH 600 0
DWIDTH 14 0
BBX 16 20 0 0
BITMAP
000000000000EFF3
000000000000DFF3
000000000000DFF2
00000002FFF2DFF1
00000002FFF2DFE0
00000002FFF2CFC0
00000002FFF2CFA0
00000002FFF20000
0007DFB3FFF20000
00AFFFFEFFF20000
05FFFFFFFFF20000
0CFFE41BFFF20000
1FFF7003FFF20000
2FFF4002FFF20000
2FFF4002FFF20000
1FFF6003FFF20000
0DFFD32CFFF20000
07FFFFFFFFF20000
01CFFFFEDFF20000
0019EEA29FF20000
ENDCHAR
STARTCHAR Dcroat
ENCODING 272
SWIDTH 600 0
DWIDTH 14 0
BBX 14 16 0 0
BITMAP
05FFFFEDA50000
05FFFFFFFFC200
05FFFFFFFFFD10
05FFF424CFFF90
05FFF4001DFFE1
05FFF40007FFF4
05FFF40003FFF6
DFFFFFFC02FFF8
FFFFFFFC02FFF7
05FFF40003FFF6
05FFF40007FFF3
05FFF4001EFFE0
05FFF415DFFF80
05FFFFFFFFFD10
05FFFFFFFFC200
05FFFFFDA50000
ENDCHAR
STARTCHAR dcroat
ENCODING 273
SWIDTH 600 0
DWIDTH 14 0
BBX 14 17 1 0
BITMAP
00000000DFFA00
00000000DFFA00
00009FFFFFFFF4
00009FFFFFFFE3
00000000DFFA00
00000000DFFA00
003AEFC3BFFA00
05FFFFFFEFFA00
2EFFFFFFFFFA00
8FFFA214EFFA00
CFFE0000DFFA00
DFFC0000DFFA00
CFFE0000EFFA00
9FFF8119FFFA00
3FFFFFFFFFFA00
07FFFFFFDFFA00
005BEEB44FFA00
ENDCHAR
STARTCHAR Emacron
ENCODING 274
SWIDTH 600 0
DWIDTH 14 0
BBX 11 19 2 0
BITMAP
00DFFFFFF600
00DFFFFFF600
000000000000
CFFFFFFFFF90
CFFFFFFFFF90
CFFFFFFFFF90
CFFC00000000
CFFC00000000
CFFC00000000
CFFFFFFFF800
CFFFFFFFF800
CFFFFFFFF800
CFFC00000000
CFFC00000000
CFFC00000000
CFFC00000000
CFFFFFFFFFC0
CFFFFFFFFFC0
CFFFFFFFFFC0
ENDCHAR
STARTCHAR emacron
ENCODING 275
SWIDTH 600 0
DWIDTH 14 0
BBX 13 16 1 0
BITMAP
001FFFFFFF0000
001FFFFFFF0000
00000000000000
00000000000000
0004AEFEA40000
009FFFFFFF9000
08FFFFFFFFF500
2FFF72017FFC00
7FFFFFFFFFFF10
AFFFFFFFFFFF20
AFFFFFFFFFFF10
8FFF2000000000
3FFFD510268000
09FFFFFFFFF200
009FFFFFFFF500
00049DFEC82000
ENDCHAR
STARTCHAR Ebreve
ENCODING 276
SWIDTH 600 0
DWIDTH 14 0
BBX 11 21 2 0
BITMAP
01BD0006D600
00EF813DF600
006FFFFFD100
0006CEDA2000
000000000000
CFFFFFFFFF90
CFFFFFFFFF90
CFFFFFFFFF90
CFFC00000000
CFFC00000000
CFFC00000000
CFFFFFFFF800
CFFFFFFFF800
CFFFFFFFF800
CFFC00000000
CFFC00000000
CFFC00000000
CFFC00000000
CFFFFFFFFFC0
CFFFFFFFFFC0
CFFFFFFFFFC0
ENDCHAR
STARTCHAR ebreve
ENCODING 277
SWIDTH 600 0
DWIDTH 14 0
BBX 13 19 1 0
BITMAP
00032000220000
007FA000BF7000
004FF516FF4000
000BFFFFFB0000
00018DFD910000
00000000000000
00000000000000
0004AEFEA40000
009FFFFFFF9000
08FFFFFFFFF500
2FFF72017FFC00
7FFFFFFFFFFF10
AFFFFFFFFFFF20
AFFFFFFFFFFF10
8FFF2000000000
3FFFD510268000
09FFFFFFFFF200
009FFFFFFFF500
00049DFEC82000
ENDCHAR
STARTCHAR Edotaccent
ENCODING 278
SWIDTH 600 0
DWIDTH 14 0
BBX 11 21 2 0
BITMAP
00009ED30000
0005FFFC0000
0005FFFC0000
00009ED30000
000000000000
CFFFFFFFFF90
CFFFFFFFFF90
CFFFFFFFFF90
CFFC00000000
CFFC00000000
CFFC00000000
CFFFFFFFF800
CFFFFFFFF800
CFFFFFFFF800
CFFC00000000
CFFC00000000
CFFC00000000
CFFC00000000
CFFFFFFFFFC0
CFFFFFFFFFC0
CFFFFFFFFFC0
ENDCHAR
STARTCHAR edotaccent
ENCODING 279
SWIDTH 600 0
DWIDTH 14 0
BBX 13 18 1 0
BITMAP
00003CEC200000
0000BFFFB00000
0000CFFFB00000
00003CFC300000
00000000000000
00000000000000
0004AEFEA40000
009FFFFFFF9000
08FFFFFFFFF500
2FFF72017FFC00
7FFFFFFFFFFF10
AFFFFFFFFFFF20
AFFFFFFFFFFF10
8FFF2000000000
3FFFD510268000
09FFFFFFFFF200
009FFFFFFFF500
00049DFEC82000
ENDCHAR
STARTCHAR Eogonek
ENCODING 280
SWIDTH 600 0
DWIDTH 14 0
BBX 12 22 2 -6
BITMAP
BFFFFFFFFF90
BFFFFFFFFF90
BFFFFFFFFF90
BFFC00000000
BFFC00000000
BFFC00000000
BFFFFFFFF800
BFFFFFFFF800
BFFFFFFFF800
BFFC00000000
BFFC00000000
BFFC00000000
BFFC00000000
BFFFFFFFFFC0
BFFFFFFFFFC0
BFFFFFFFFFC0
00000009F710
0000007FB000
000000DFB120
000000FFFFD0
000000CFFFF3
0000002BED70
ENDCHAR
STARTCHAR eogonek
ENCODING 281
SWIDTH 600 0
DWIDTH 14 0
BBX 13 18 1 -6
BITMAP
0004AEFEA40000
009FFFFFFF9000
08FFFFFFFFF500
2FFF72017FFC00
7FFFFFFFFFFF10
AFFFFFFFFFFF20
AFFFFFFFFFFF10
8FFF2000000000
3FFFD510268000
09FFFFFFFFF300
009FFFFFFFF500
00049DFFFE3000
0000000BE20000
0000006F900000
000000BFB12000
000000CFFFF300
0000008FFFF800
00000019EE8100
ENDCHAR
STARTCHAR Ecaron
ENCODING 282
SWIDTH 600 0
DWIDTH 14 0
BBX 11 21 2 0
BITMAP
008B1005C300
01EFC16FF800
004FFEFFB000
0008FFFE2000
000000000000
CFFFFFFFFF90
CFFFFFFFFF90
CFFFFFFFFF90
CFFC00000000
CFFC00000000
CFFC00000000
CFFFFFFFF800
CFFFFFFFF800
CFFFFFFFF800
CFFC00000000
CFFC00000000
CFFC00000000
CFFC00000000
CFFFFFFFFFC0
CFFFFFFFFFC0
CFFFFFFFFFC0
ENDCHAR
STARTCHAR ecaron
ENCODING 283
SWIDTH 600 0
DWIDTH 14 0
BBX 13 18 1 0
BITMAP
003C40005C3000
008FF92AFF8000
000AFFFFFA0000
0000BFFFB00000
00000000000000
00000000000000
0004AEFEA40000
009FFFFFFF9000
08FFFFFFFFF500
2FFF72017FFC00
7FFFFFFFFFFF10
AFFFFFFFFFFF20
AFFFFFFFFFFF10
8FFF2000000000
3FFFD510268000
09FFFFFFFFF200
009FFFFFFFF500
00049DFEC82000
ENDCHAR
STARTCHAR Gcircumflex
ENCODING 284
SWIDTH 600 0
DWIDTH 14 0
BBX 13 20 1 0
BITMAP
00005FFFF30000
0002EFEFFD1000
000CFD24EFA000
0006C2003C4000
00017BEFD82000
003DFFFFFFE500
03EFFFFFFFF600
0CFFF9203C7000
4FFFA000000000
9FFF2000000000
CFFD0000000000
DFFB005FFFFF20
EFFB005FFFFF20
DFFC005FFFFF20
AFFF10001FFF20
6FFF80001FFF20
0DFFF8204FFF20
04FFFFFFFFFF20
005EFFFFFFF900
00018CEFD93000
ENDCHAR
STARTCHAR gcircumflex
ENCODING 285
SWIDTH 600 0
DWIDTH 14 0
BBX 13 23 1 -5
BITMAP
0001DFFF800000
001CFFFFF70000
00BFF72BFF5000
005C30007C2000
00000000000000
00000000000000
0028DFFFFFFF90
03EFFFFFFFFF90
0DFFFFFFFFFF90
2FFF712AFF7000
3FFF3008FFB000
1EFFEBCFFF9000
07FFFFFFFF3000
01DFFFFFB30000
0BFD3431000000
1FFFFFFFFDA300
0DFFFFFFFFFF30
03FFEFFFFFFF90
2EF500001CFFA0
AFF921026EFF70
AFFFFFFFFFFD10
3EFFFFFFFFC200
028CEFEDA50000
ENDCHAR
STARTCHAR Gbreve
ENCODING 286
SWIDTH 600 0
DWIDTH 14 0
BBX 13 21 1 0
BITMAP
000AE1004D8000
000BFA12CF8000
0004FFFFFE2000
00004CEEB30000
00000000000000
00017BEFD82000
003DFFFFFFE500
03EFFFFFFFF600
0CFFF9203C7000
4FFFA000000000
9FFF2000000000
CFFD0000000000
DFFB005FFFFF20
EFFB005FFFFF20
DFFC005FFFFF20
AFFF10001FFF20
6FFF80001FFF20
0DFFF8204FFF20
04FFFFFFFFFF20
005EFFFFFFF900
00018CEFD93000
ENDCHAR
STARTCHAR gbreve
ENCODING 287
SWIDTH 600 0
DWIDTH 14 0
BBX 13 24 1 -5
BITMAP
00131000320000
00AF7000DF4000
007FE418FF1000
001DFFFFF80000
0001AEFD700000
00000000000000
00000000000000
0028DFFFFFFF90
03EFFFFFFFFF90
0DFFFFFFFFFF90
2FFF712AFF7000
3FFF3008FFB000
1EFFEBCFFF9000
07FFFFFFFF3000
01DFFFFFB30000
0BFD3431000000
1FFFFFFFFDA300
0DFFFFFFFFFF30
03FFEFFFFFFF90
2EF500001CFFA0
AFF921026EFF70
AFFFFFFFFFFD10
3EFFFFFFFFC200
028CEFEDA50000
ENDCHAR
STARTCHAR Gdotaccent
ENCODING 288
SWIDTH 600 0
DWIDTH 14 0
BBX 13 21 1 0
BITMAP
000007ED500000
00002FFFE00000
00002FFFE00000
000007EE500000
00000000000000
00017BEFD82000
003DFFFFFFE500
03EFFFFFFFF600
0CFFF9203C7000
4FFFA000000000
9FFF2000000000
CFFD0000000000
DFFB005FFFFF20
EFFB005FFFFF20
DFFC005FFFFF20
AFFF10001FFF20
6FFF80001FFF20
0DFFF8204FFF20
04FFFFFFFFFF20
005EFFFFFFF900
00018CEFD93000
ENDCHAR
STARTCHAR gdotaccent
ENCODING 289
SWIDTH 600 0
DWIDTH 14 0
BBX 13 23 1 -5
BITMAP
00004DEA100000
0000EFFF800000
0000EFFF800000
00005DEB100000
00000000000000
00000000000000
0028DFFFFFFF90
03EFFFFFFFFF90
0DFFFFFFFFFF90
2FFF712AFF7000
3FFF3008FFB000
1EFFEBCFFF9000
07FFFFFFFF3000
01DFFFFFB30000
0BFD3431000000
1FFFFFFFFDA300
0DFFFFFFFFFF30
03FFEFFFFFFF90
2EF500001CFFA0
AFF921026EFF70
AFFFFFFFFFFD10
3EFFFFFFFFC200
028CEFEDA50000
ENDCHAR
STARTCHAR uni0122
ENCODING 290
SWIDTH 600 0
DWIDTH 14 0
BBX 13 22 1 -6
BITMAP
00017BEFD82000
003DFFFFFFE500
03EFFFFFFFF600
0CFFF9203C7000
4FFFA000000000
9FFF2000000000
CFFD0000000000
DFFB005FFFFF20
EFFB005FFFFF20
DFFC005FFFFF20
AFFF10001FFF20
6FFF80001FFF20
0DFFF8204FFF20
04FFFFFFFFFF20
005EFFFFFFF900
00018CEFD93000
00000000000000
00000ADA200000
000002DFC00000
0000008FF00000
000015EF900000
0000CEB6000000
ENDCHAR
STARTCHAR uni0123
ENCODING 291
SWIDTH 600 0
DWIDTH 14 0
BBX 13 23 1 -5
BITMAP
000017BED00000
0000CFC3100000
0000DFB2000000
00003ADB000000
00000000000000
00000000000000
0028DFFFFFFF90
03EFFFFFFFFF90
0DFFFFFFFFFF90
2FFF712AFF7000
3FFF3008FFB000
1EFFEBCFFF9000
07FFFFFFFF3000
01DFFFFFB30000
0BFD3431000000
1FFFFFFFFDA300
0DFFFFFFFFFF30
03FFEFFFFFFF90
2EF500001CFFA0
AFF921026EFF70
AFFFFFFFFFFD10
3EFFFFFFFFC200
028CEFEDA50000
ENDCHAR
STARTCHAR Hcircumflex
ENCODING 292
SWIDTH 600 0
DWIDTH 14 0
BBX 12 20 1 0
BITMAP
0002EFFF7000
000CFFEFF300
008FF52CFD10
003C4001B700
7FFF1000AFFD
7FFF1000AFFD
7FFF1000AFFD
7FFF1000AFFD
7FFF1000AFFD
7FFF1000AFFD
7FFFFFFFFFFD
7FFFFFFFFFFD
7FFFFFFFFFFD
7FFF1000AFFD
7FFF1000AFFD
7FFF1000AFFD
7FFF1000AFFD
7FFF1000AFFD
7FFF1000AFFD
7FFF1000AFFD
ENDCHAR
STARTCHAR hcircumflex
ENCODING 293
SWIDTH 600 0
DWIDTH 14 0
BBX 14 21 -1 0
BITMAP
00CFFFC0000000
08FFEFF8000000
4FF909FF400000
1A80008A100000
004FFF40000000
004FFF40000000
004FFF40000000
004FFF40000000
004FFF30000000
004FFF24BEEC40
004FFFAFFFFFF2
004FFFFFFFFFF9
004FFFF613EFFC
004FFF7000AFFE
004FFF40008FFE
004FFF40008FFE
004FFF40008FFE
004FFF40008FFE
004FFF40008FFE
004FFF40008FFE
004FFF40008FFE
ENDCHAR
STARTCHAR Hbar
ENCODING 294
SWIDTH 600 0
DWIDTH 14 0
BBX 15 16 0 0
BITMAP
07FFF1000AFFD000
07FFF1000AFFD000
CFFFFFFFFFFFFF50
EFFFFFFFFFFFFF50
07FFF1000AFFD000
07FFF1000AFFD000
07FFFFFFFFFFD000
07FFFFFFFFFFD000
07FFFFFFFFFFD000
07FFF1000AFFD000
07FFF1000AFFD000
07FFF1000AFFD000
07FFF1000AFFD000
07FFF1000AFFD000
07FFF1000AFFD000
07FFF1000AFFD000
ENDCHAR
STARTCHAR hbar
ENCODING 295
SWIDTH 600 0
DWIDTH 14 0
BBX 13 17 0 0
BITMAP
04FFF400000000
04FFF400000000
BEFFFFFFF90000
DFFFFFFFF90000
04FFF400000000
04FFF300000000
04FFF24BEEC400
04FFF9FFFFFF30
04FFFFFFFFFF90
04FFFD403EFFC0
04FFF40009FFE0
04FFF40008FFE0
04FFF40008FFE0
04FFF40008FFE0
04FFF40008FFE0
04FFF40008FFE0
04FFF40008FFE0
ENDCHAR
STARTCHAR Itilde
ENCODING 296
SWIDTH 600 0
DWIDTH 14 0
BBX 12 20 1 0
BITMAP
006DFD716B90
03FFFFFFFF90
05BA15BEE910
000000000000
3FFFFFFFFFF9
3FFFFFFFFFF9
3FFFFFFFFFF9
00009FFF0000
00009FFF0000
00009FFF0000
00009FFF0000
00009FFF0000
00009FFF0000
00009FFF0000
00009FFF0000
00009FFF0000
00009FFF0000
3FFFFFFFFFF9
3FFFFFFFFFF9
3FFFFFFFFFF9
ENDCHAR
STARTCHAR itilde
ENCODING 297
SWIDTH 600 0
DWIDTH 14 0
BBX 12 18 1 0
BITMAP
000001000000
0005DFE828C9
001EFFFFFFF8
002BB13AEE91
000000000000
000000000000
2FFFFFFFF300
2FFFFFFFF300
2FFFFFFFF300
000005FFF300
000005FFF300
000005FFF300
000005FFF300
000005FFF300
000005FFF300
000005FFF300
000005FFF300
000005FFF300
ENDCHAR
STARTCHAR Imacron
ENCODING 298
SWIDTH 600 0
DWIDTH 14 0
BBX 12 19 1 0
BITMAP
006FFFFFFC00
006FFFFFFC00
000000000000
3FFFFFFFFFF9
3FFFFFFFFFF9
3FFFFFFFFFF9
00009FFF0000
00009FFF0000
00009FFF0000
00009FFF0000
00009FFF0000
00009FFF0000
00009FFF0000
00009FFF0000
00009FFF0000
00009FFF0000
3FFFFFFFFFF9
3FFFFFFFFFF9
3FFFFFFFFFF9
ENDCHAR
STARTCHAR imacron
ENCODING 299
SWIDTH 600 0
DWIDTH 14 0
BBX 11 16 1 0
BITMAP
0004FFFFFFC0
0004FFFFFFC0
000000000000
000000000000
2FFFFFFFF300
2FFFFFFFF300
2FFFFFFFF300
000005FFF300
000005FFF300
000005FFF300
000005FFF300
000005FFF300
000005FFF300
000005FFF300
000005FFF300
000005FFF300
ENDCHAR
STARTCHAR Ibreve
ENCODING 300
SWIDTH 600 0
DWIDTH 14 0
BBX 12 21 1 0
BITMAP
007D5000DB00
007FD319FD00
001EFFFFF500
0002AEEC5000
000000000000
3FFFFFFFFFF9
3FFFFFFFFFF9
3FFFFFFFFFF9
00009FFF0000
00009FFF0000
00009FFF0000
00009FFF0000
00009FFF0000
00009FFF0000
00009FFF0000
00009FFF0000
00009FFF0000
00009FFF0000
3FFFFFFFFFF9
3FFFFFFFFFF9
3FFFFFFFFFF9
ENDCHAR
STARTCHAR ibreve
ENCODING 301
SWIDTH 600 0
DWIDTH 14 0
BBX 12 19 1 0
BITMAP
000131000320
000AF7000EF4
0007FE318FF1
0001DFFFFF80
00001AEFD700
000000000000
000000000000
2FFFFFFFF300
2FFFFFFFF300
2FFFFFFFF300
000005FFF300
000005FFF300
000005FFF300
000005FFF300
000005FFF300
000005FFF300
000005FFF300
000005FFF300
000005FFF300
ENDCHAR
STARTCHAR Iogonek
ENCODING 302
SWIDTH 600 0
DWIDTH 14 0
BBX 12 22 1 -6
BITMAP
3FFFFFFFFFF9
3FFFFFFFFFF9
3FFFFFFFFFF9
00009FFF0000
00009FFF0000
00009FFF0000
00009FFF0000
00009FFF0000
00009FFF0000
00009FFF0000
00009FFF0000
00009FFF0000
00009FFF0000
3FFFFFFFFFF9
3FFFFFFFFFF9
3FFFFFFFFFF9
00003EE40000
0000CF500000
0004FF611000
0006FFFF7000
0003FFFFC000
00006DFB3000
ENDCHAR
STARTCHAR iogonek
ENCODING 303
SWIDTH 600 0
DWIDTH 14 0
BBX 10 24 1 -6
BITMAP
000005DEA1
00000EFFF8
00000EFFF8
000005DEB1
0000000000
0000000000
2FFFFFFFF3
2FFFFFFFF3
2FFFFFFFF3
000005FFF3
000005FFF3
000005FFF3
000005FFF3
000005FFF3
000005FFF3
000005FFF3
000005FFF3
000005FFF3
000002CD40
00000CF200
00004FF412
00005FFFFA
00002FFFFE
000005DFC4
ENDCHAR
STARTCHAR Idotaccent
ENCODING 304
SWIDTH 600 0
DWIDTH 14 0
BBX 12 21 1 0
BITMAP
00004DE90000
0000DFFF4000
0000DFFF4000
00004DE90000
000000000000
3FFFFFFFFFF9
3FFFFFFFFFF9
3FFFFFFFFFF9
00009FFF0000
00009FFF0000
00009FFF0000
00009FFF0000
00009FFF0000
00009FFF0000
00009FFF0000
00009FFF0000
00009FFF0000
00009FFF0000
3FFFFFFFFFF9
3FFFFFFFFFF9
3FFFFFFFFFF9
ENDCHAR
STARTCHAR dotlessi
ENCODING 305
SWIDTH 600 0
DWIDTH 14 0
BBX 10 12 1 0
BITMAP
2FFFFFFFF3
2FFFFFFFF3
2FFFFFFFF3
000005FFF3
000005FFF3
000005FFF3
000005FFF3
000005FFF3
000005FFF3
000005FFF3
000005FFF3
000005FFF3
ENDCHAR
STARTCHAR IJ
ENCODING 306
SWIDTH 600 0
DWIDTH 14 0
BBX 12 20 1 -4
BITMAP
3FFF5000EFF9
3FFF5000EFF9
3FFF5000EFF9
3FFF5000EFF9
3FFF5000EFF9
3FFF5000EFF9
3FFF5000EFF9
3FFF5000EFF9
3FFF5000EFF9
3FFF5000EFF9
3FFF5000EFF9
3FFF5000EFF9
3FFF5000EFF9
3FFF5000EFF9
3FFF5000EFF9
3FFF5000EFF9
00000105FFF7
000008FFFFF4
00000CFFFFB0
00000BEFD800
ENDCHAR
STARTCHAR ij
ENCODING 307
SWIDTH 600 0
DWIDTH 14 0
BBX 13 23 1 -5
BITMAP
0AEC20005DE600
5FFF9000EFFF10
5FFF9000EFFF10
0AEC20005DE600
00000000000000
00000000000000
2FFF6000BFFC00
2FFF6000BFFC00
2FFF6000BFFC00
2FFF6000BFFC00
2FFF6000BFFC00
2FFF6000BFFC00
2FFF6000BFFC00
2FFF6000BFFC00
2FFF6000BFFC00
2FFF6000BFFC00
2FFF6000BFFC00
2FFF6000BFFC00
00000000BFFC00
00000012EFFA00
000001FFFFF700
000004FFFFD100
000005EFE91000
ENDCHAR
STARTCHAR Jcircumflex
ENCODING 308
SWIDTH 600 0
DWIDTH 14 0
BBX 12 20 1 0
BITMAP
00006FFFF300
0003FFEFFD10
001DFD24EF90
0007B1003C40
04FFFFFFFFF6
04FFFFFFFFF6
04FFFFFFFFF6
00000002FFF6
00000002FFF6
00000002FFF6
00000002FFF6
00000002FFF6
00000002FFF6
00000002FFF6
00000002FFF6
00700005FFF4
0AFB303CFFF1
5FFFFFFFFFA0
08FFFFFFFC10
003ADFEC6000
ENDCHAR
STARTCHAR jcircumflex
ENCODING 309
SWIDTH 600 0
DWIDTH 14 0
BBX 12 23 1 -5
BITMAP
00001DFFF800
0001CFFFFF70
000BFF72CFF5
0006C30007C2
000000000000
000000000000
2FFFFFFFF300
2FFFFFFFF300
2FFFFFFFF300
000005FFF300
000005FFF300
000005FFF300
000005FFF300
000005FFF300
000005FFF300
000005FFF300
000005FFF300
000005FFF300
000007FFF100
16203DFFE000
5FFFFFFF9000
BFFFFFFC1000
4ADFEC700000
ENDCHAR
STARTCHAR uni0136
ENCODING 310
SWIDTH 600 0
DWIDTH 14 0
BBX 14 22 1 -6
BITMAP
6FFF30007FFF70
6FFF3003FFFB00
6FFF300CFFD100
6FFF309FFF4000
6FFF34FFF70000
6FFF4EFFB00000
6FFFDFFF400000
6FFFFFFFB00000
6FFFFFFFF40000
6FFFFCDFFC0000
6FFFE25FFF5000
6FFF500DFFD000
6FFF3006FFF600
6FFF3000DFFD00
6FFF30006FFF70
6FFF30000DFFE1
00000000000000
00000ADA200000
000002CFD00000
0000008FF10000
000014DFA00000
0000CEB6000000
ENDCHAR
STARTCHAR uni0137
ENCODING 311
SWIDTH 600 0
DWIDTH 14 0
BBX 13 23 1 -6
BITMAP
3FFF5000000000
3FFF5000000000
3FFF5000000000
3FFF5000000000
3FFF5000000000
3FFF5000AFFF40
3FFF5008FFF500
3FFF507FFF5000
3FFF55FFF60000
3FFFAFFF800000
3FFFFFFF900000
3FFFFFFFF40000
3FFFFBAFFD1000
3FFFB11EFFA000
3FFF5005FFF500
3FFF5000BFFE10
3FFF50002EFFA0
00000000000000
00000ADA200000
000002CFD00000
0000008FF00000
000014DFA00000
0000CEB6000000
ENDCHAR
STARTCHAR kgreenlandic
ENCODING 312
SWIDTH 600 0
DWIDTH 14 0
BBX 13 12 1 0
BITMAP
3FFF5000AFFF40
3FFF5009FFF500
3FFF508FFF6000
3FFF57FFF70000
3FFFBFFF900000
3FFFFFFF800000
3FFFFFFFF40000
3FFFFCBFFD1000
3FFFC12EFF9000
3FFF5006FFF500
3FFF5000BFFE10
3FFF50002EFFA0
ENDCHAR
STARTCHAR Lacute
ENCODING 313
SWIDTH 600 0
DWIDTH 14 0
BBX 12 21 2 0
BITMAP
0005A0000000
008FF9000000
1BFFFA000000
8FFD40000000
0A8100000000
7FFF10000000
7FFF10000000
7FFF10000000
7FFF10000000
7FFF10000000
7FFF10000000
7FFF10000000
7FFF10000000
7FFF10000000
7FFF10000000
7FFF10000000
7FFF10000000
7FFF10000000
7FFFFFFFFFF1
7FFFFFFFFFF1
7FFFFFFFFFF1
ENDCHAR
STARTCHAR lacute
ENCODING 314
SWIDTH 600 0
DWIDTH 14 0
BBX 12 22 1 0
BITMAP
0000006A0000
000009FF8000
0002CFFF9000
0008FFD40000
0000A8000000
CFFFFFF70000
CFFFFFF70000
CFFFFFF70000
0001FFF70000
0001FFF70000
0001FFF70000
0001FFF70000
0001FFF70000
0001FFF70000
0001FFF70000
0001FFF70000
0001FFF70000
0001FFF80000
0000EFFE3022
00009FFFFFF8
00002EFFFFFC
000002AEFEC7
ENDCHAR
STARTCHAR uni013B
ENCODING 315
SWIDTH 600 0
DWIDTH 14 0
BBX 12 22 2 -6
BITMAP
7FFF10000000
7FFF10000000
7FFF10000000
7FFF10000000
7FFF10000000
7FFF10000000
7FFF10000000
7FFF10000000
7FFF10000000
7FFF10000000
7FFF10000000
7FFF10000000
7FFF10000000
7FFFFFFFFFF1
7FFFFFFFFFF1
7FFFFFFFFFF1
000000000000
00006EB40000
000019FF2000
000004FF4000
00003BFD1000
0008EC810000
ENDCHAR
STARTCHAR uni013C
ENCODING 316
SWIDTH 600 0
DWIDTH 14 0
BBX 12 23 1 -6
BITMAP
CFFFFFF70000
CFFFFFF70000
CFFFFFF70000
0001FFF70000
0001FFF70000
0001FFF70000
0001FFF70000
0001FFF70000
0001FFF70000
0001FFF70000
0001FFF70000
0001FFF70000
0001FFF80000
0000EFFE3022
00009FFFFFF8
00002EFFFFFC
000002AEFEC7
000000000000
0000009DA300
0000002CFD00
00000007FF10
0000014DFA00
00000BEB6000
ENDCHAR
STARTCHAR Lcaron
ENCODING 317
SWIDTH 600 0
DWIDTH 14 0
BBX 12 19 2 0
BITMAP
0000004FFD00
0000004FFC00
0000003FFC00
7FFF103FFA00
7FFF103FF800
7FFF103FF600
7FFF102FF400
7FFF10000000
7FFF10000000
7FFF10000000
7FFF10000000
7FFF10000000
7FFF10000000
7FFF10000000
7FFF10000000
7FFF10000000
7FFFFFFFFFF1
7FFFFFFFFFF1
7FFFFFFFFFF1
ENDCHAR
STARTCHAR lcaron
ENCODING 318
SWIDTH 600 0
DWIDTH 14 0
BBX 12 20 1 0
BITMAP
000000003FFE
000000003FFE
000000002FFD
CFFFFFF72FFB
CFFFFFF72FF9
CFFFFFF71FF8
0001FFF71FF6
0001FFF70000
0001FFF70000
0001FFF70000
0001FFF70000
0001FFF70000
0001FFF70000
0001FFF70000
0001FFF70000
0001FFF80000
0000EFFE3022
00009FFFFFF8
00002EFFFFFC
000002AEFEC7
ENDCHAR
STARTCHAR Ldot
ENCODING 319
SWIDTH 600 0
DWIDTH 14 0
BBX 12 16 2 0
BITMAP
7FFF10000000
7FFF10000000
7FFF10000000
7FFF10000000
7FFF10000000
7FFF1003CEB2
7FFF100DFFF9
7FFF100DFFFA
7FFF1004CEB2
7FFF10000000
7FFF10000000
7FFF10000000
7FFF10000000
7FFFFFFFFFF1
7FFFFFFFFFF1
7FFFFFFFFFF1
ENDCHAR
STARTCHAR ldot
ENCODING 320
SWIDTH 600 0
DWIDTH 14 0
BBX 16 17 0 0
BITMAP
FFFFFFF400000000
FFFFFFF400000000
FFFFFFF400000000
0004FFF400000000
0004FFF400000000
0004FFF400000000
0004FFF40004DEB1
0004FFF4000EFFF8
0004FFF4000EFFF9
0004FFF40004DEB1
0004FFF400000000
0004FFF400000000
0003FFF600000000
0001FFFC20310000
0000CFFFFFF50000
00004FFFFFFA0000
000003BEFEB60000
ENDCHAR
STARTCHAR Lslash
ENCODING 321
SWIDTH 600 0
DWIDTH 14 0
BBX 15 16 -1 0
BITMAP
0007FFF100000000
0007FFF100000000
0007FFF100000000
0007FFF100000000
0007FFF100790000
0007FFF15DFF3000
0007FFFCFFFC3000
0007FFFFFD600000
004DFFFE71000000
1BFFFFF200000000
0BFFFFF100000000
0287FFF100000000
0007FFF100000000
0007FFFFFFFFFF10
0007FFFFFFFFFF10
0007FFFFFFFFFF10
ENDCHAR
STARTCHAR lslash
ENCODING 322
SWIDTH 600 0
DWIDTH 14 0
BBX 12 17 1 0
BITMAP
CFFFFFF70000
CFFFFFF70000
CFFFFFF70000
0001FFF70000
0001FFF719A0
0001FFFCEFF4
0001FFFFFFA2
0005FFFFB300
04CFFFF80000
2FFFFFF70000
08E7FFF70000
0111FFF70000
0001FFF80000
0000EFFE3022
00009FFFFFF8
00002EFFFFFC
000002AEFEC7
ENDCHAR
STARTCHAR Nacute
ENCODING 323
SWIDTH 600 0
DWIDTH 14 0
BBX 12 21 1 0
BITMAP
000000088000
000001BFF500
00003DFFF700
0000BFFC2000
00001C600000
6FFF60008FFC
6FFFC0008FFC
6FFFF4008FFC
6FFFFA008FFC
6FFEFF108FFC
6FFAFF708FFC
6FFAAFD08FFC
6FFC5FF57FFC
6FFD0DFB6FFC
6FFE07FF6FFC
6FFF01FF9FFC
6FFF00AFEFFC
6FFF004FFFFC
6FFF000DFFFC
6FFF0006FFFC
6FFF0001EFFC
ENDCHAR
STARTCHAR nacute
ENCODING 324
SWIDTH 600 0
DWIDTH 14 0
BBX 12 20 1 0
BITMAP
00000002B100
0000001DFC10
000000BFFF70
000009FFF600
00002EFE4000
000003C20000
000000000000
000000000000
4FFA04BEEC40
4FFD8FFFFFF2
4FFFFFFFFFF9
4FFFF713EFFC
4FFF8000AFFE
4FFF40008FFE
4FFF40008FFE
4FFF40008FFE
4FFF40008FFE
4FFF40008FFE
4FFF40008FFE
4FFF40008FFE
ENDCHAR
STARTCHAR uni0145
ENCODING 325
SWIDTH 600 0
DWIDTH 14 0
BBX 12 22 1 -6
BITMAP
6FFF60008FFC
6FFFC0008FFC
6FFFF4008FFC
6FFFFA008FFC
6FFEFF108FFC
6FFAFF708FFC
6FFAAFD08FFC
6FFC5FF57FFC
6FFD0DFB6FFC
6FFE07FF6FFC
6FFF01FF9FFC
6FFF00AFEFFC
6FFF004FFFFC
6FFF000DFFFC
6FFF0006FFFC
6FFF0001EFFC
000000000000
00004EC60000
000018FF4000
000001FF7000
00003AFE2000
0006EC820000
ENDCHAR
STARTCHAR uni0146
ENCODING 326
SWIDTH 600 0
DWIDTH 14 0
BBX 12 18 1 -6
BITMAP
4FFA04BEEC40
4FFD8FFFFFF2
4FFFFFFFFFF9
4FFFF713EFFC
4FFF8000AFFE
4FFF40008FFE
4FFF40008FFE
4FFF40008FFE
4FFF40008FFE
4FFF40008FFE
4FFF40008FFE
4FFF40008FFE
000000000000
00002EC70000
000005FF7000
000000EF9000
000028FF4000
0003ED930000
ENDCHAR
STARTCHAR Ncaron
ENCODING 327
SWIDTH 600 0
DWIDTH 14 0
BBX 12 21 1 0
BITMAP
002B70009A10
005FF81AFF30
0009FFEFF700
0000CFFFB000
000000000000
6FFF60008FFC
6FFFC0008FFC
6FFFF4008FFC
6FFFFA008FFC
6FFEFF108FFC
6FFAFF708FFC
6FFAAFD08FFC
6FFC5FF57FFC
6FFD0DFB6FFC
6FFE07FF6FFC
6FFF01FF9FFC
6FFF00AFEFFC
6FFF004FFFFC
6FFF000DFFFC
6FFF0006FFFC
6FFF0001EFFC
ENDCHAR
STARTCHAR ncaron
ENCODING 328
SWIDTH 600 0
DWIDTH 14 0
BBX 12 18 1 0
BITMAP
003C50004C40
007FFA29FF90
0009FFFFFB00
0000AFFFC100
000000000000
000000000000
4FFA04BEEC40
4FFD8FFFFFF2
4FFFFFFFFFF9
4FFFF713EFFC
4FFF8000AFFE
4FFF40008FFE
4FFF40008FFE
4FFF40008FFE
4FFF40008FFE
4FFF40008FFE
4FFF40008FFE
4FFF40008FFE
ENDCHAR
STARTCHAR napostrophe
ENCODING 329
SWIDTH 600 0
DWIDTH 14 0
BBX 18 17 -2 0
BITMAP
03DE90000000000000
0DFFF7000000000000
1FFFFC000000000000
0EFFFE000000000000
05DFFF000000000000
0008FD0CFF22AEEA10
001EF90CFF8EFFFFB0
02CFE20CFFFFFFFFF2
0DFE400CFFFA17FFF5
07C3000CFFD102FFF6
0000000CFFB001FFF7
0000000CFFB001FFF7
0000000CFFB001FFF7
0000000CFFB001FFF7
0000000CFFB001FFF7
0000000CFFB001FFF7
0000000CFFB001FFF7
ENDCHAR
STARTCHAR Eng
ENCODING 330
SWIDTH 600 0
DWIDTH 14 0
BBX 13 16 1 0
BITMAP
7FFF07DFD70000
7FFFBFFFFFA000
7FFFFFFFFFF500
7FFFE516FFFB00
7FFF5000BFFF00
7FFF20007FFF30
7FFF20005FFF40
7FFF20004FFF50
7FFF20004FFF50
7FFF20005FFF40
7FFF20006FFF30
7FFF20008FFF10
7FFF2011DFFC00
7FFF20BFFFF700
7FFF20EFFFD100
7FFF22DFE91000
ENDCHAR
STARTCHAR eng
ENCODING 331
SWIDTH 600 0
DWIDTH 14 0
BBX 12 17 1 -5
BITMAP
4FFA04BEEB30
4FFD8FFFFFE2
4FFFFFFFFFF8
4FFFF713EFFC
4FFF8000AFFE
4FFF40009FFE
4FFF40008FFE
4FFF40008FFE
4FFF40008FFE
4FFF40008FFE
4FFF40008FFE
4FFF40008FFE
000000009FFE
00000011DFFC
000000BFFFF8
000000EFFFE2
000001DFEA20
ENDCHAR
STARTCHAR Omacron
ENCODING 332
SWIDTH 600 0
DWIDTH 14 0
BBX 14 19 0 0
BITMAP
0006FFFFFFC000
0006FFFFFFC000
00000000000000
00006BEFD81000
001BFFFFFFE400
00AFFFFFFFFE20
03FFFC218FFF90
09FFF2000BFFE1
0DFFC00006FFF4
0FFF900003FFF6
1FFF800002FFF7
1FFF800002FFF7
0FFF900004FFF6
0DFFC00006FFF3
09FFF3000CFFE0
03FFFC218FFF90
009FFFFFFFFE10
001BFFFFFFE300
00006BEFD81000
ENDCHAR
STARTCHAR omacron
ENCODING 333
SWIDTH 600 0
DWIDTH 14 0
BBX 13 16 1 0
BITMAP
005FFFFFFB0000
005FFFFFFB0000
00000000000000
00000000000000
0006BEFD820000
01CFFFFFFE5000
0CFFFFFFFFF300
5FFFB216FFFB00
AFFE1000AFFF10
CFFC00006FFF30
CFFC00006FFF30
AFFE1000AFFF10
6FFFA216FFFB00
0CFFFFFFFFF300
01CFFFFFFE5000
0006BEFD820000
ENDCHAR
STARTCHAR Obreve
ENCODING 334
SWIDTH 600 0
DWIDTH 14 0
BBX 14 21 0 0
BITMAP
0007D5000DB000
0007FD319FD000
0001EFFFFF5000
00002AEEC50000
00000000000000
00006BEFD81000
001BFFFFFFE400
00AFFFFFFFFE20
03FFFC218FFF90
09FFF2000BFFE1
0DFFC00006FFF4
0FFF900003FFF6
1FFF800002FFF7
1FFF800002FFF7
0FFF900004FFF6
0DFFC00006FFF3
09FFF3000CFFE0
03FFFC218FFF90
009FFFFFFFFE10
001BFFFFFFE300
00006BEFD81000
ENDCHAR
STARTCHAR obreve
ENCODING 335
SWIDTH 600 0
DWIDTH 14 0
BBX 13 19 1 0
BITMAP
00131000320000
00CF6001EF2000
008FD319FE0000
001EFFFFF60000
0002AEFD600000
00000000000000
00000000000000
0006BEFD820000
01CFFFFFFE5000
0CFFFFFFFFF300
5FFFB216FFFB00
AFFE1000AFFF10
CFFC00006FFF30
CFFC00006FFF30
AFFE1000AFFF10
6FFFA216FFFB00
0CFFFFFFFFF300
01CFFFFFFE5000
0006BEFD820000
ENDCHAR
STARTCHAR Ohungarumlaut
ENCODING 336
SWIDTH 600 0
DWIDTH 14 0
BBX 14 21 0 0
BITMAP
000001C4007910
000009FF42FFB0
00003FF90AFE20
0000CFC04FF500
00007C203A8000
00006BEFD81000
001BFFFFFFE400
00AFFFFFFFFE20
03FFFC218FFF90
09FFF2000BFFE1
0DFFC00006FFF4
0FFF900003FFF6
1FFF800002FFF7
1FFF800002FFF7
0FFF900004FFF6
0DFFC00006FFF3
09FFF3000CFFE0
03FFFC218FFF90
009FFFFFFFFE10
001BFFFFFFE300
00006BEFD81000
ENDCHAR
STARTCHAR ohungarumlaut
ENCODING 337
SWIDTH 600 0
DWIDTH 14 0
BBX 13 19 1 0
BITMAP
00002C610B8200
00009FF34FF700
0002FF80CFC000
0009FD14FF3000
0005C403A80000
00000000000000
00000000000000
0006BEFD820000
01CFFFFFFE5000
0CFFFFFFFFF300
5FFFB216FFFB00
AFFE1000AFFF10
CFFC00006FFF30
CFFC00006FFF30
AFFE1000AFFF10
6FFFA216FFFB00
0CFFFFFFFFF300
01CFFFFFFE5000
0006BEFD820000
ENDCHAR
STARTCHAR OE
ENCODING 338
SWIDTH 600 0
DWIDTH 14 0
BBX 15 16 0 0
BITMAP
00018CEFFFFFFF10
004EFFFFFFFFFF10
02EFFFFFFFFFFF10
0AFFF51EFF411100
1FFF900EFF300000
5FFF400EFF300000
7FFF200EFFFFF200
8FFF100EFFFFF200
8FFF100EFFFFF200
7FFF200EFF300000
4FFF400EFF300000
1FFF900EFF300000
0AFFF61EFF522210
02EFFFFFFFFFFF40
004EFFFFFFFFFF40
00018DFFFFFFFF40
ENDCHAR
STARTCHAR oe
ENCODING 339
SWIDTH 600 0
DWIDTH 14 0
BBX 15 12 0 0
BITMAP
004CED503CEC4000
05FFFFF5EFFFF300
1EFFFFFFFEEFF900
5FFE26FFD10BFE00
9FF900EFFFFFFF20
AFF700CFFFFFFF30
AFF700CFFFFFFF20
9FF900EFC0000000
6FFE25FFF7015000
1EFFFFFFFFEFF300
05FFFFF6EFFFFA00
004CFD603BEE9200
ENDCHAR
STARTCHAR Racute
ENCODING 340
SWIDTH 600 0
DWIDTH 14 0
BBX 13 21 1 0
BITMAP
0000001A500000
000002DFE30000
00005EFFE50000
0001DFFA100000
00003C40000000
5FFFFFFDB71000
5FFFFFFFFFD200
5FFFFFFFFFFB00
5FFF3013CFFF10
5FFF30004FFF30
5FFF30005FFF30
5FFF3014DFFE10
5FFFFFFFFFF800
5FFFFFFFFFA000
5FFFFFFFFA0000
5FFF30AFFF2000
5FFF303FFFA000
5FFF300AFFF300
5FFF3003FFFA00
5FFF3000AFFF30
5FFF30003FFFB0
ENDCHAR
STARTCHAR racute
ENCODING 341
SWIDTH 600 0
DWIDTH 14 0
BBX 12 20 2 0
BITMAP
00000004A000
0000003EFB00
000001DFFF40
00001CFFE400
00004FFD2000
000005B10000
000000000000
000000000000
3FFB017CEEB1
3FFC2DFFFFD0
3FFECFFFFFA0
3FFFFE720220
3FFFE3000000
3FFF70000000
3FFF50000000
3FFF50000000
3FFF50000000
3FFF50000000
3FFF50000000
3FFF50000000
ENDCHAR
STARTCHAR uni0156
ENCODING 342
SWIDTH 600 0
DWIDTH 14 0
BBX 13 22 1 -6
BITMAP
5FFFFFFDB71000
5FFFFFFFFFD200
5FFFFFFFFFFB00
5FFF3013CFFF10
5FFF30004FFF30
5FFF30005FFF30
5FFF3014DFFE10
5FFFFFFFFFF800
5FFFFFFFFFA000
5FFFFFFFFA0000
5FFF30AFFF2000
5FFF303FFFA000
5FFF300AFFF300
5FFF3003FFFA00
5FFF3000AFFF30
5FFF30003FFFB0
00000000000000
00000BD9200000
000003DFC00000
0000009FE00000
000015EF800000
0000DDB5000000
ENDCHAR
STARTCHAR uni0157
ENCODING 343
SWIDTH 600 0
DWIDTH 14 0
BBX 12 18 2 -6
BITMAP
3FFB017CEEB1
3FFC2DFFFFD0
3FFECFFFFFA0
3FFFFE720220
3FFFE3000000
3FFF70000000
3FFF50000000
3FFF50000000
3FFF50000000
3FFF50000000
3FFF50000000
3FFF50000000
000000000000
0BD920000000
03DFC0000000
009FE0000000
15EF90000000
DDB500000000
ENDCHAR
STARTCHAR Rcaron
ENCODING 344
SWIDTH 600 0
DWIDTH 14 0
BBX 13 21 1 0
BITMAP
003C4001B70000
008FF61CFE1000
000CFFEFF40000
0002EFFF800000
00000000000000
5FFFFFFDB71000
5FFFFFFFFFD200
5FFFFFFFFFFB00
5FFF3013CFFF10
5FFF30004FFF30
5FFF30005FFF30
5FFF3014DFFE10
5FFFFFFFFFF800
5FFFFFFFFFA000
5FFFFFFFFA0000
5FFF30AFFF2000
5FFF303FFFA000
5FFF300AFFF300
5FFF3003FFFA00
5FFF3000AFFF30
5FFF30003FFFB0
ENDCHAR
STARTCHAR rcaron
ENCODING 345
SWIDTH 600 0
DWIDTH 14 0
BBX 12 18 2 0
BITMAP
005C30006C20
00AFF82BFF60
000BFFFFF800
0001CFFF9000
000000000000
000000000000
3FFB017CEEB1
3FFC2DFFFFD0
3FFECFFFFFA0
3FFFFE720220
3FFFE3000000
3FFF70000000
3FFF50000000
3FFF50000000
3FFF50000000
3FFF50000000
3FFF50000000
3FFF50000000
ENDCHAR
STARTCHAR Sacute
ENCODING 346
SWIDTH 600 0
DWIDTH 14 0
BBX 13 21 1 0
BITMAP
00000005A00000
0000008FF90000
00001BFFFA0000
00008FFD400000
00000A81000000
0005BEFEB60000
00AFFFFFFFD300
08FFFFFFFFF600
1EFFC2026D9000
2FFF7000010000
1FFFE600000000
0AFFFFE8200000
01CFFFFFFA2000
0017EFFFFFE300
000006CFFFFC00
00000004EFFF20
016000007FFF30
0BFC5102CFFE10
8FFFFFFFFFF800
1AFFFFFFFFA000
0039CEFDA40000
ENDCHAR
STARTCHAR sacute
ENCODING 347
SWIDTH 600 0
DWIDTH 14 0
BBX 12 20 1 0
BITMAP
00000003B100
0000002DFC10
000001CFFF50
00000BFFE500
00002EFE3000
000003B20000
000000000000
000000000000
0017CEFEA500
03EFFFFFFFC3
0BFFFFFFFFF3
0EFFB1026C80
0CFFFA751000
04EFFFFFFB40
0028DFFFFFF5
02100258EFFC
0CE94101BFFE
7FFFFFFFFFFA
2AFFFFFFFFD1
0038CEFEB600
ENDCHAR
STARTCHAR Scircumflex
ENCODING 348
SWIDTH 600 0
DWIDTH 14 0
BBX 13 20 1 0
BITMAP
00009FFFD10000
0005FFEFFA0000
002EFB17FF6000
0019A0006B2000
0005BEFEB60000
00AFFFFFFFD300
08FFFFFFFFF600
1EFFC2026D9000
2FFF7000010000
1FFFE600000000
0AFFFFE8200000
01CFFFFFFA2000
0017EFFFFFE300
000006CFFFFC00
00000004EFFF20
016000007FFF30
0BFC5102CFFE10
8FFFFFFFFFF800
1AFFFFFFFFA000
0039CEFDA40000
ENDCHAR
STARTCHAR scircumflex
ENCODING 349
SWIDTH 600 0
DWIDTH 14 0
BBX 12 18 1 0
BITMAP
0000BFFFB000
000AFFFFFA00
008FF92AFF80
004C40005C30
000000000000
000000000000
0017CEFEA500
03EFFFFFFFC3
0BFFFFFFFFF3
0EFFB1026C80
0CFFFA751000
04EFFFFFFB40
0028DFFFFFF5
02100258EFFC
0CE94101BFFE
7FFFFFFFFFFA
2AFFFFFFFFD1
0038CEFEB600
ENDCHAR
STARTCHAR uni015E
ENCODING 350
SWIDTH 600 0
DWIDTH 14 0
BBX 13 22 1 -6
BITMAP
0005BEFEB60000
00AFFFFFFFD300
08FFFFFFFFF600
1EFFC2026D9000
2FFF7000010000
1FFFE600000000
0AFFFFE8200000
01CFFFFFFA2000
0017EFFFFFE300
000006CFFFFC00
00000004EFFF20
016000007FFF30
0BFC5102CFFE10
8FFFFFFFFFF800
1AFFFFFFFFA000
0039CEFDA40000
00000BF5000000
00002FE0000000
00009FFB200000
000015FF800000
000015FF500000
0004FDA4000000
ENDCHAR
STARTCHAR uni015F
ENCODING 351
SWIDTH 600 0
DWIDTH 14 0
BBX 12 18 1 -6
BITMAP
0017CEFEA500
03EFFFFFFFC3
0BFFFFFFFFF3
0EFFB1026C80
0CFFFA751000
04EFFFFFFB40
0028DFFFFFF5
02100258EFFC
0CE94101BFFE
7FFFFFFFFFFA
2AFFFFFFFFD1
0038CEFEB600
000009F70000
00001EF20000
00006FFC3000
000014EFA000
000014EF7000
0002FDB60000
ENDCHAR
STARTCHAR Scaron
ENCODING 352
SWIDTH 600 0
DWIDTH 14 0
BBX 13 21 1 0
BITMAP
0019A0006B2000
002EFB17FF6000
0006FFEFFA0000
0000AFFFD10000
00000000000000
0005BEFEB60000
00AFFFFFFFD300
08FFFFFFFFF600
1EFFC2026D9000
2FFF7000010000
1FFFE600000000
0AFFFFE8200000
01CFFFFFFA2000
0017EFFFFFE300
000006CFFFFC00
00000004EFFF20
016000007FFF30
0BFC5102CFFE10
8FFFFFFFFFF800
1AFFFFFFFFA000
0039CEFDA40000
ENDCHAR
STARTCHAR scaron
ENCODING 353
SWIDTH 600 0
DWIDTH 14 0
BBX 12 18 1 0
BITMAP
003C40005C30
008FF92AFF80
000AFFFFFA00
0000BFFFB000
000000000000
000000000000
0017CEFEA500
03EFFFFFFFC3
0BFFFFFFFFF3
0EFFB1026C80
0CFFFA751000
04EFFFFFFB40
0028DFFFFFF5
02100258EFFC
0CE94101BFFE
7FFFFFFFFFFA
2AFFFFFFFFD1
0038CEFEB600
ENDCHAR
STARTCHAR uni0162
ENCODING 354
SWIDTH 600 0
DWIDTH 14 0
BBX 14 22 0 -6
BITMAP
4FFFFFFFFFFFFA
4FFFFFFFFFFFFA
4FFFFFFFFFFFFA
000009FFF00000
000009FFF00000
000009FFF00000
000009FFF00000
000009FFF00000
000009FFF00000
000009FFF00000
000009FFF00000
000009FFF00000
000009FFF00000
000009FFF00000
000009FFF00000
000009FFF00000
000000DF300000
000004FD000000
00000AFFA10000
0000016FF60000
0000017FF40000
00006EDA400000
ENDCHAR
STARTCHAR uni0163
ENCODING 355
SWIDTH 600 0
DWIDTH 14 0
BBX 13 22 1 -6
BITMAP
0004FFB0000000
0006FFB0000000
0007FFB0000000
0009FFB0000000
BEEFFFFFFFFB00
CFFFFFFFFFFB00
CFFFFFFFFFFB00
000CFFB0000000
000CFFB0000000
000CFFB0000000
000CFFB0000000
000CFFC0000000
000AFFF7102300
0006FFFFFFFC00
0000BFFFFFFF10
000007CEFEB710
0000002FE10000
0000007FA00000
000000DFE90000
00000029FF3000
00000029FE1000
000009EC920000
ENDCHAR
STARTCHAR Tcaron
ENCODING 356
SWIDTH 600 0
DWIDTH 14 0
BBX 14 21 0 0
BITMAP
0003C4001B7000
0008FF52CFD100
0000CFFEFF4000
00002EFFF70000
00000000000000
4FFFFFFFFFFFFA
4FFFFFFFFFFFFA
4FFFFFFFFFFFFA
000009FFF00000
000009FFF00000
000009FFF00000
000009FFF00000
000009FFF00000
000009FFF00000
000009FFF00000
000009FFF00000
000009FFF00000
000009FFF00000
000009FFF00000
000009FFF00000
000009FFF00000
ENDCHAR
STARTCHAR tcaron
ENCODING 357
SWIDTH 600 0
DWIDTH 14 0
BBX 13 20 1 0
BITMAP
00000000EFF300
00000000DFF300
00000000DFF200
00000000DFF100
0004FFB0DFE000
0006FFB0CFC000
0007FFB0CFA000
0009FFB0000000
BEEFFFFFFFFB00
CFFFFFFFFFFB00
CFFFFFFFFFFB00
000CFFB0000000
000CFFB0000000
000CFFB0000000
000CFFB0000000
000CFFC0000000
000AFFF7102300
0006FFFFFFFC00
0000BFFFFFFF10
000007CEFEB710
ENDCHAR
STARTCHAR Tbar
ENCODING 358
SWIDTH 600 0
DWIDTH 14 0
BBX 14 16 0 0
BITMAP
4FFFFFFFFFFFFA
4FFFFFFFFFFFFA
4FFFFFFFFFFFFA
000009FFF00000
000009FFF00000
000009FFF00000
000009FFF00000
00AEFFFFFFFF30
00CFFFFFFFFF30
000009FFF00000
000009FFF00000
000009FFF00000
000009FFF00000
000009FFF00000
000009FFF00000
000009FFF00000
ENDCHAR
STARTCHAR tbar
ENCODING 359
SWIDTH 600 0
DWIDTH 14 0
BBX 13 16 1 0
BITMAP
0002AA70000000
0005FFB0000000
0007FFB0000000
0009FFB0000000
BEEFFFFFFFFB00
CFFFFFFFFFFB00
CFFFFFFFFFFB00
000CFFB0000000
000CFFB0000000
AEEFFFFFFFF400
CFFFFFFFFFF400
000CFFB0000000
000BFFF5102300
0006FFFFFFFC00
0000CFFFFFFF10
000007CEFEB710
ENDCHAR
STARTCHAR Utilde
ENCODING 360
SWIDTH 600 0
DWIDTH 14 0
BBX 12 20 1 0
BITMAP
006DFD716B90
03FFFFFFFF90
05BA15BEE910
000000000000
7FFF10008FFD
7FFF10008FFD
7FFF10008FFD
7FFF10008FFD
7FFF10008FFD
7FFF10008FFD
7FFF10008FFD
7FFF10008FFD
7FFF10008FFD
7FFF10008FFD
6FFF20009FFC
4FFF4000CFFA
1FFFC217FFF7
09FFFFFFFFE1
01CFFFFFFF50
0017CEFDA300
ENDCHAR
STARTCHAR utilde
ENCODING 361
SWIDTH 600 0
DWIDTH 14 0
BBX 12 18 1 0
BITMAP
000010000000
006EFE719C70
03FFFFFFFF60
04BA04BED800
000000000000
000000000000
8FFF0000EFF9
8FFF0000EFF9
8FFF0000EFF9
8FFF0000EFF9
8FFF0000EFF9
8FFF0000EFF9
8FFF0000EFF9
7FFF1003FFF9
6FFF813DFFF9
2FFFFFFFFFF9
0AFFFFFC9FF9
019EFD705FF9
ENDCHAR
STARTCHAR Umacron
ENCODING 362
SWIDTH 600 0
DWIDTH 14 0
BBX 12 19 1 0
BITMAP
006FFFFFFC00
006FFFFFFC00
000000000000
7FFF10008FFD
7FFF10008FFD
7FFF10008FFD
7FFF10008FFD
7FFF10008FFD
7FFF10008FFD
7FFF10008FFD
7FFF10008FFD
7FFF10008FFD
7FFF10008FFD
6FFF20009FFC
4FFF4000CFFA
1FFFC217FFF7
09FFFFFFFFE1
01CFFFFFFF50
0017CEFDA300
ENDCHAR
STARTCHAR umacron
ENCODING 363
SWIDTH 600 0
DWIDTH 14 0
BBX 12 16 1 0
BITMAP
007FFFFFFA00
007FFFFFFA00
000000000000
000000000000
8FFF0000EFF9
8FFF0000EFF9
8FFF0000EFF9
8FFF0000EFF9
8FFF0000EFF9
8FFF0000EFF9
8FFF0000EFF9
7FFF1003FFF9
6FFF813DFFF9
2FFFFFFFFFF9
0AFFFFFC9FF9
019EFD705FF9
ENDCHAR
STARTCHAR Ubreve
ENCODING 364
SWIDTH 600 0
DWIDTH 14 0
BBX 12 21 1 0
BITMAP
007D5000DB00
007FD319FD00
001EFFFFF500
0002AEEC5000
000000000000
7FFF10008FFD
7FFF10008FFD
7FFF10008FFD
7FFF10008FFD
7FFF10008FFD
7FFF10008FFD
7FFF10008FFD
7FFF10008FFD
7FFF10008FFD
7FFF10008FFD
6FFF20009FFC
4FFF4000CFFA
1FFFC217FFF7
09FFFFFFFFE1
01CFFFFFFF50
0017CEFDA300
ENDCHAR
STARTCHAR ubreve
ENCODING 365
SWIDTH 600 0
DWIDTH 14 0
BBX 12 19 1 0
BITMAP
001310003200
00DF5001FF10
00AFD21AFD00
002EFFFFF500
0002BEFC5000
000000000000
000000000000
8FFF0000EFF9
8FFF0000EFF9
8FFF0000EFF9
8FFF0000EFF9
8FFF0000EFF9
8FFF0000EFF9
8FFF0000EFF9
7FFF1003FFF9
6FFF813DFFF9
2FFFFFFFFFF9
0AFFFFFC9FF9
019EFD705FF9
ENDCHAR
STARTCHAR Uring
ENCODING 366
SWIDTH 600 0
DWIDTH 14 0
BBX 12 21 1 0
BITMAP
00009EEB3000
0006F61EC000
0006F61EC000
00009EEB3000
000000000000
7FFF10008FFD
7FFF10008FFD
7FFF10008FFD
7FFF10008FFD
7FFF10008FFD
7FFF10008FFD
7FFF10008FFD
7FFF10008FFD
7FFF10008FFD
7FFF10008FFD
6FFF20009FFC
4FFF4000CFFA
1FFFC217FFF7
09FFFFFFFFE1
01CFFFFFFF50
0017CEFDA300
ENDCHAR
STARTCHAR uring
ENCODING 367
SWIDTH 600 0
DWIDTH 14 0
BBX 12 18 1 0
BITMAP
0003BEEC5000
000EF52EF200
000DF52EF200
0003BEEC5000
000000000000
000000000000
8FFF0000EFF9
8FFF0000EFF9
8FFF0000EFF9
8FFF0000EFF9
8FFF0000EFF9
8FFF0000EFF9
8FFF0000EFF9
7FFF1003FFF9
6FFF813DFFF9
2FFFFFFFFFF9
0AFFFFFC9FF9
019EFD705FF9
ENDCHAR
STARTCHAR Uhungarumlaut
ENCODING 368
SWIDTH 600 0
DWIDTH 14 0
BBX 12 21 1 0
BITMAP
00001C400791
00009FF42FFB
0003FF90AFE2
000CFC04FF50
0007C203A800
7FFF10008FFD
7FFF10008FFD
7FFF10008FFD
7FFF10008FFD
7FFF10008FFD
7FFF10008FFD
7FFF10008FFD
7FFF10008FFD
7FFF10008FFD
7FFF10008FFD
6FFF20009FFC
4FFF4000CFFA
1FFFC217FFF7
09FFFFFFFFE1
01CFFFFFFF50
0017CEFDA300
ENDCHAR
STARTCHAR uhungarumlaut
ENCODING 369
SWIDTH 600 0
DWIDTH 14 0
BBX 12 19 1 0
BITMAP
00002C600C82
0000AFF25FF6
0003FF70DFB0
000AFC06FF20
0006C304B700
000000000000
000000000000
8FFF0000EFF9
8FFF0000EFF9
8FFF0000EFF9
8FFF0000EFF9
8FFF0000EFF9
8FFF0000EFF9
8FFF0000EFF9
7FFF1003FFF9
6FFF813DFFF9
2FFFFFFFFFF9
0AFFFFFC9FF9
019EFD705FF9
ENDCHAR
STARTCHAR Uogonek
ENCODING 370
SWIDTH 600 0
DWIDTH 14 0
BBX 12 22 1 -6
BITMAP
7FFF10008FFD
7FFF10008FFD
7FFF10008FFD
7FFF10008FFD
7FFF10008FFD
7FFF10008FFD
7FFF10008FFD
7FFF10008FFD
7FFF10008FFD
7FFF10008FFD
6FFF20009FFC
5FFF4000CFFA
1FFFC217FFF6
0AFFFFFFFFE1
01DFFFFFFF40
0018DFFFB200
00001DF60000
00009FA00000
0000EFA12000
0000FFFFC000
0000CFFFF200
00002BED6000
ENDCHAR
STARTCHAR uogonek
ENCODING 371
SWIDTH 600 0
DWIDTH 14 0
BBX 13 18 1 -6
BITMAP
8FFF0000EFF900
8FFF0000EFF900
8FFF0000EFF900
8FFF0000EFF900
8FFF0000EFF900
8FFF0000EFF900
8FFF0000EFF900
7FFF1003FFF900
6FFF813DFFF900
2FFFFFFFFFF900
0AFFFFFC8FF900
019EFD705FF900
00000001CE5100
0000000BF30000
0000003FF51200
0000004FFFFB00
0000002FFFFF10
00000005CFC400
ENDCHAR
STARTCHAR Wcircumflex
ENCODING 372
SWIDTH 600 0
DWIDTH 14 0
BBX 15 20 0 0
BITMAP
00002EFFF7000000
0000CFFEFF300000
0008FF52CFD10000
0003C4001B700000
DFFC0000002FFF40
BFFD0000003FFF20
9FFE0000004FFF00
7FFE0000005FFD00
5FFF00DE905FFB00
3FFF12FFC06FFA00
1FFF25FFF17FF800
0EFF39FFF48FF600
0CFF4CFCF78FF400
0AFF4FF9FA9FF200
08FF7FD6FD9FF100
06FFAFA3FFAFE000
04FFEF71FFEFC000
02FFFF50DFFFA000
00FFFF20AFFF9000
00DFFE007FFF7000
ENDCHAR
STARTCHAR wcircumflex
ENCODING 373
SWIDTH 600 0
DWIDTH 14 0
BBX 15 18 0 0
BITMAP
00002EFFF7000000
0001DFFFFF500000
000CFE63CFF40000
0007B20008B10000
0000000000000000
0000000000000000
CFF90000000FFF30
AFFB0066402FFF10
8FFD03FFB04FFE00
5FFF05FFE06FFC00
3FFF28FEF27FF900
0FFF4BFAF59FF700
0DFF5EE8F8BFF500
0AFF8FC6FACFF200
08FFCFA4FDEFF000
05FFFF81FFFFD000
03FFFF50EFFFB000
01FFFF30BFFF8000
ENDCHAR
STARTCHAR Ycircumflex
ENCODING 374
SWIDTH 600 0
DWIDTH 14 0
BBX 14 20 0 0
BITMAP
00002EFFF70000
0000CFFEFF3000
0008FF52CFD100
0003C4001B7000
6FFF600000DFFC
0DFFC00005FFF5
06FFF3000BFFC0
01EFF9002FFF50
007FFE108FFD00
001EFF60DFF600
0008FFC5FFD000
0001EFFDFF7000
00009FFFFE1000
00002FFFF70000
00000AFFF10000
000009FFF00000
000009FFF00000
000009FFF00000
000009FFF00000
000009FFF00000
ENDCHAR
STARTCHAR ycircumflex
ENCODING 375
SWIDTH 600 0
DWIDTH 14 0
BBX 14 23 0 -5
BITMAP
00001CFFFA0000
0000BFFFFF8000
000AFF82BFF700
0004C30006C200
00000000000000
00000000000000
1EFF700000CFF8
09FFC00002FFF2
03FFF30007FFB0
00BFF9000CFF60
005FFE002FFE10
000DFF507FF900
0007FFA0BFF300
0001EFE2FFD000
00009FFAFF7000
00002FFFFF1000
00000BFFFB0000
000004FFF50000
000005FFE00000
00114EFF800000
00EFFFFE100000
02FFFFE4000000
04EFEA20000000
ENDCHAR
STARTCHAR Ydieresis
ENCODING 376
SWIDTH 600 0
DWIDTH 14 0
BBX 14 21 0 0
BITMAP
0009E9004EC200
002FFF30CFF800
002FFF30CFF800
0008E9004EC200
00000000000000
6FFF600000DFFC
0DFFC00005FFF5
06FFF3000BFFC0
01EFF9002FFF50
007FFE108FFD00
001EFF60DFF600
0008FFC5FFD000
0001EFFDFF7000
00009FFFFE1000
00002FFFF70000
00000AFFF10000
000009FFF00000
000009FFF00000
000009FFF00000
000009FFF00000
000009FFF00000
ENDCHAR
STARTCHAR Zacute
ENCODING 377
SWIDTH 600 0
DWIDTH 14 0
BBX 13 21 1 0
BITMAP
00000005A00000
0000008FF90000
00001BFFFA0000
00008FFD400000
00000A81000000
0EFFFFFFFFFF00
0EFFFFFFFFFF00
0EFFFFFFFFFC00
0000000AFFF300
0000005FFF7000
000001EFFC0000
00000BFFE20000
00006FFF700000
0002EFFB000000
000BFFE2000000
006FFF60000000
02EFFB00000000
0BFFE200000000
6FFFFFFFFFFF20
AFFFFFFFFFFF20
AFFFFFFFFFFF20
ENDCHAR
STARTCHAR zacute
ENCODING 378
SWIDTH 600 0
DWIDTH 14 0
BBX 12 20 1 0
BITMAP
00000000A400
00000009FE40
0000007FFFB0
000005FFFA00
00000BFF8000
000001B50000
000000000000
000000000000
09FFFFFFFFFC
09FFFFFFFFFC
09FFFFFFFFF7
0000008FFF80
000007FFF900
00006FFFB000
0004FFFC1000
003EFFD10000
02EFFD200000
1DFFFFFFFFFE
5FFFFFFFFFFE
5FFFFFFFFFFE
ENDCHAR
STARTCHAR Zdotaccent
ENCODING 379
SWIDTH 600 0
DWIDTH 14 0
BBX 13 21 1 0
BITMAP
00000AEC300000
00006FFFB00000
00006FFFB00000
00000AEC300000
00000000000000
0EFFFFFFFFFF00
0EFFFFFFFFFF00
0EFFFFFFFFFC00
0000000AFFF300
0000005FFF7000
000001EFFC0000
00000BFFE20000
00006FFF700000
0002EFFB000000
000BFFE2000000
006FFF60000000
02EFFB00000000
0BFFE200000000
6FFFFFFFFFFF20
AFFFFFFFFFFF20
AFFFFFFFFFFF20
ENDCHAR
STARTCHAR zdotaccent
ENCODING 380
SWIDTH 600 0
DWIDTH 14 0
BBX 12 18 1 0
BITMAP
000009EE6000
00005FFFF200
00006FFFF200
000009EE7000
000000000000
000000000000
09FFFFFFFFFC
09FFFFFFFFFC
09FFFFFFFFF7
0000008FFF80
000007FFF900
00006FFFB000
0004FFFC1000
003EFFD10000
02EFFD200000
1DFFFFFFFFFE
5FFFFFFFFFFE
5FFFFFFFFFFE
ENDCHAR
STARTCHAR Zcaron
ENCODING 381
SWIDTH 600 0
DWIDTH 14 0
BBX 13 21 1 0
BITMAP
0019A0006B2000
002EFB17FF6000
0006FFEFFA0000
0000AFFFD10000
00000000000000
0EFFFFFFFFFF00
0EFFFFFFFFFF00
0EFFFFFFFFFC00
0000000AFFF300
0000005FFF7000
000001EFFC0000
00000BFFE20000
00006FFF700000
0002EFFB000000
000BFFE2000000
006FFF60000000
02EFFB00000000
0BFFE200000000
6FFFFFFFFFFF20
AFFFFFFFFFFF20
AFFFFFFFFFFF20
ENDCHAR
STARTCHAR zcaron
ENCODING 382
SWIDTH 600 0
DWIDTH 14 0
BBX 12 18 1 0
BITMAP
001A80002B80
003EFD36EFD1
0005FFFFFE20
00006FFFE300
000000000000
000000000000
09FFFFFFFFFC
09FFFFFFFFFC
09FFFFFFFFF7
0000008FFF80
000007FFF900
00006FFFB000
0004FFFC1000
003EFFD10000
02EFFD200000
1DFFFFFFFFFE
5FFFFFFFFFFE
5FFFFFFFFFFE
ENDCHAR
STARTCHAR longs
ENCODING 383
SWIDTH 600 0
DWIDTH 14 0
BBX 12 17 2 0
BITMAP
000006BEFDB7
0000AFFFFFFD
0006FFFFFFF9
000BFFF51133
000DFFB00000
DEFFFFA00000
FFFFFFA00000
FFFFFFA00000
000DFFA00000
000DFFA00000
000DFFA00000
000DFFA00000
000DFFA00000
000DFFA00000
000DFFA00000
000DFFA00000
000DFFA00000
ENDCHAR
STARTCHAR uni0180
ENCODING 384
SWIDTH 600 0
DWIDTH 14 0
BBX 14 17 0 0
BITMAP
04FFF400000000
04FFF400000000
BEFFFFFFF90000
DFFFFFFFF90000
04FFF300000000
04FFF300000000
04FFF38DFD9100
04FFFEFFFFFD10
04FFFFFFFFFFA0
04FFFD414EFFF1
04FFF40008FFF3
04FFF40006FFF4
04FFF50008FFF2
04FFFE415EFFD0
04FFFFFFFFFF60
04FFDEFFFFFA00
04FF929EEC6000
ENDCHAR
STARTCHAR uni018A
ENCODING 394
SWIDTH 600 0
DWIDTH 14 0
BBX 14 16 0 0
BITMAP
0017BEFEC92000
03EFFFFFFFF800
1EFFFFFFFFFF70
8FFB9FFB4BFFF1
CFE17FFB01EFF7
DFC07FFB009FFB
CFE17FFB007FFD
9FFB7FFB005FFE
2EF97FFB006FFE
03B17FFB007FFD
00007FFB009FFA
00007FFB00DFF7
00007FFB29FFF1
00007FFFFFFF80
00007FFFFFFA00
00007FFFEB5000
ENDCHAR
STARTCHAR uni018F
ENCODING 399
SWIDTH 600 0
DWIDTH 14 0
BBX 13 16 1 0
BITMAP
0017CEFD810000
02DFFFFFFE3000
00CFFFFFFFE100
002D5116FFF800
000000008FFE00
000000003FFF30
BFFFFFFFFFFF50
CFFFFFFFFFFF60
BFFFFFFFFFFF60
AFFB00003FFF50
7FFE00006FFF30
3FFF3000BFFE00
0CFFC317FFF800
03FFFFFFFFD100
006FFFFFFE3000
0003AEFD810000
ENDCHAR
STARTCHAR uni0192
ENCODING 402
SWIDTH 600 0
DWIDTH 14 0
BBX 13 18 1 -2
BITMAP
00000019DFEB10
000001DFFFFE00
000008FFFFFB00
00000EFFC21200
00002FFF400000
00004FFF100000
009EFFFFFFC000
00BFFFFFFFC000
00BFFFFFFFC000
0000AFFA000000
0000CFF8000000
0000EFF6000000
0002FFF4000000
0006FFF2000000
112DFFE0000000
8FFFFF90000000
BFFFFD10000000
AEFE9200000000
ENDCHAR
STARTCHAR uni0193
ENCODING 403
SWIDTH 600 0
DWIDTH 14 0
BBX 14 20 1 0
BITMAP
0000000004CFE6
000000004FFFF5
00000000AFFFF2
00000000CFF510
00017BEFFFF200
003DFFFFFFF800
03EFFFFFFFF500
0CFFF9203C7000
4FFFA000000000
9FFF2000000000
CFFD0000000000
DFFB005FFFFF20
EFFB005FFFFF20
DFFC005FFFFF20
AFFF10001FFF20
6FFF80001FFF20
0DFFF8204FFF20
04FFFFFFFFFF20
005EFFFFFFF900
00018CEFD93000
ENDCHAR
STARTCHAR Ohorn
ENCODING 416
SWIDTH 600 0
DWIDTH 14 0
BBX 15 20 0 0
BITMAP
0000000000039B00
00000000000DFF20
00000000000BFF40
00000000000DFF10
00006BEED8AFF800
001BFFFFFFFD5000
00AFFFFFFFFE2000
03FFFC218FFF9000
09FFF2000BFFF000
0DFFC00006FFF400
0FFF900003FFF600
1FFF800002FFF700
1FFF800002FFF700
0FFF900004FFF600
0DFFC00006FFF300
09FFF3000CFFE000
03FFFC218FFF9000
009FFFFFFFFE1000
001BFFFFFFE30000
00006BEFD8100000
ENDCHAR
STARTCHAR ohorn
ENCODING 417
SWIDTH 600 0
DWIDTH 14 0
BBX 14 17 1 0
BITMAP
000000000018A0
0000000000EFF1
0000000000BFF3
0000000000CFF2
0000000002FFC0
0006BEFD9DFE30
01CFFFFFFFC200
0CFFFFFFFFE200
5FFFB216FFFA00
AFFE1000AFFF10
CFFC00006FFF30
CFFC00006FFF30
AFFE1000AFFF10
6FFFA216FFFC00
0CFFFFFFFFF400
01CFFFFFFE5000
0006BEFD920000
ENDCHAR
STARTCHAR Uhorn
ENCODING 431
SWIDTH 600 0
DWIDTH 14 0
BBX 15 20 1 0
BITMAP
0000000000016B60
000000000004FFB0
000000000002FFC0
000000000018FF70
7FFF10008FFFC600
7FFF10008FFD0000
7FFF10008FFD0000
7FFF10008FFD0000
7FFF10008FFD0000
7FFF10008FFD0000
7FFF10008FFD0000
7FFF10008FFD0000
7FFF10008FFD0000
7FFF10008FFD0000
6FFF20009FFC0000
4FFF4000CFFA0000
1FFFC217FFF60000
09FFFFFFFFE10000
01CFFFFFFF500000
0017CEFDA3000000
ENDCHAR
STARTCHAR uhorn
ENCODING 432
SWIDTH 600 0
DWIDTH 14 0
BBX 14 17 1 0
BITMAP
000000000004A7
00000000003FFC
00000000000FFD
00000000002FFC
0000000002AFF5
8FFF0000EFFE60
8FFF0000EFF900
8FFF0000EFF900
8FFF0000EFF900
8FFF0000EFF900
8FFF0000EFF900
8FFF0000EFF900
7FFF1003FFF900
6FFF813DFFF900
2FFFFFFFFFF900
0AFFFFFC9FF900
019EFD705FF900
ENDCHAR
STARTCHAR uni01C2
ENCODING 450
SWIDTH 600 0
DWIDTH 14 0
BBX 12 22 1 -5
BITMAP
00008FFE0000
00008FFE0000
00008FFE0000
00008FFE0000
00008FFE0000
00008FFE0000
00008FFE0000
5DEEFFFFFFFC
6FFFFFFFFFFC
00008FFE0000
00008FFE0000
00008FFE0000
5DEEFFFFFFFC
6FFFFFFFFFFC
00008FFE0000
00008FFE0000
00008FFE0000
00008FFE0000
00008FFE0000
00008FFE0000
00008FFE0000
00008FFE0000
ENDCHAR
STARTCHAR uni01CD
ENCODING 461
SWIDTH 600 0
DWIDTH 14 0
BBX 15 21 0 0
BITMAP
0003C4001B700000
0008FF52CFD10000
0000CFFEFF400000
00002EFFF7000000
0000000000000000
00001FFFF7000000
00005FFFFC000000
0000AFFEFF100000
0000EFDAFF600000
0004FFA6FFA00000
0009FF62FFE00000
000DFF20DFF40000
003FFD009FF90000
007FF9005FFD0000
00CFFFFFFFFF3000
02FFFFFFFFFF8000
06FFFFFFFFFFC000
0BFFA00006FFF200
1FFF600002FFF600
5FFF300000EFFB00
9FFE000000AFFF10
ENDCHAR
STARTCHAR uni01CE
ENCODING 462
SWIDTH 600 0
DWIDTH 14 0
BBX 12 18 1 0
BITMAP
002C60003C50
005FFB28FFB0
0007FFFFFC10
00008FFFD100
000000000000
000000000000
0027BEFEB400
09FFFFFFFF80
0BFFFFFFFFF4
03E83014EFF9
00037ACEFFFC
02CFFFFFFFFD
1EFFFFFFFFFD
6FFF8421AFFD
8FFE2026DFFD
5FFFFFFFFFFD
0CFFFFFEAFFD
018EFD922FFD
ENDCHAR
STARTCHAR uni01CF
ENCODING 463
SWIDTH 600 0
DWIDTH 14 0
BBX 12 21 1 0
BITMAP
003C4001B700
008FF52CFD10
000CFFEFF400
0002EFFF7000
000000000000
3FFFFFFFFFF9
3FFFFFFFFFF9
3FFFFFFFFFF9
00009FFF0000
00009FFF0000
00009FFF0000
00009FFF0000
00009FFF0000
00009FFF0000
00009FFF0000
00009FFF0000
00009FFF0000
00009FFF0000
3FFFFFFFFFF9
3FFFFFFFFFF9
3FFFFFFFFFF9
ENDCHAR
STARTCHAR uni01D0
ENCODING 464
SWIDTH 600 0
DWIDTH 14 0
BBX 12 18 1 0
BITMAP
0006C30007C2
000BFF72BFF5
0001CFFFFF70
00001DFFF800
000000000000
000000000000
2FFFFFFFF300
2FFFFFFFF300
2FFFFFFFF300
000005FFF300
000005FFF300
000005FFF300
000005FFF300
000005FFF300
000005FFF300
000005FFF300
000005FFF300
000005FFF300
ENDCHAR
STARTCHAR uni01D1
ENCODING 465
SWIDTH 600 0
DWIDTH 14 0
BBX 14 21 0 0
BITMAP
0003C4001B7000
0008FF52CFD100
0000CFFEFF4000
00002EFFF70000
00000000000000
00006BEFD81000
001BFFFFFFE400
00AFFFFFFFFE20
03FFFC218FFF90
09FFF2000BFFE1
0DFFC00006FFF4
0FFF900003FFF6
1FFF800002FFF7
1FFF800002FFF7
0FFF900004FFF6
0DFFC00006FFF3
09FFF3000CFFE0
03FFFC218FFF90
009FFFFFFFFE10
001BFFFFFFE300
00006BEFD81000
ENDCHAR
STARTCHAR uni01D2
ENCODING 466
SWIDTH 600 0
DWIDTH 14 0
BBX 13 18 1 0
BITMAP
007B20007B1000
00CFE63CFF4000
001DFFFFF50000
0002EFFF700000
00000000000000
00000000000000
0006BEFD820000
01CFFFFFFE5000
0CFFFFFFFFF300
5FFFB216FFFB00
AFFE1000AFFF10
CFFC00006FFF30
CFFC00006FFF30
AFFE1000AFFF10
6FFFA216FFFB00
0CFFFFFFFFF300
01CFFFFFFE5000
0006BEFD820000
ENDCHAR
STARTCHAR uni01D3
ENCODING 467
SWIDTH 600 0
DWIDTH 14 0
BBX 12 21 1 0
BITMAP
003C4001B700
008FF52CFD10
000CFFEFF400
0002EFFF7000
000000000000
7FFF10008FFD
7FFF10008FFD
7FFF10008FFD
7FFF10008FFD
7FFF10008FFD
7FFF10008FFD
7FFF10008FFD
7FFF10008FFD
7FFF10008FFD
7FFF10008FFD
6FFF20009FFC
4FFF4000CFFA
1FFFC217FFF7
09FFFFFFFFE1
01CFFFFFFF50
0017CEFDA300
ENDCHAR
STARTCHAR uni01D4
ENCODING 468
SWIDTH 600 0
DWIDTH 14 0
BBX 12 18 1 0
BITMAP
008B20008A10
01DFE63DFE30
002EFFFFF400
0003EFFF6000
000000000000
000000000000
8FFF0000EFF9
8FFF0000EFF9
8FFF0000EFF9
8FFF0000EFF9
8FFF0000EFF9
8FFF0000EFF9
8FFF0000EFF9
7FFF1003FFF9
6FFF813DFFF9
2FFFFFFFFFF9
0AFFFFFC9FF9
019EFD705FF9
ENDCHAR
STARTCHAR uni01D5
ENCODING 469
SWIDTH 600 0
DWIDTH 14 0
BBX 12 23 1 0
BITMAP
006FFFFFFC00
006FFFFFFC00
000000000000
007E9003EC10
00DFF009FF40
007E9003EC10
000000000000
7FFF10008FFD
7FFF10008FFD
7FFF10008FFD
7FFF10008FFD
7FFF10008FFD
7FFF10008FFD
7FFF10008FFD
7FFF10008FFD
7FFF10008FFD
7FFF10008FFD
6FFF20009FFC
4FFF4000CFFA
1FFFC217FFF7
09FFFFFFFFE1
01CFFFFFFF50
0017CEFDA300
ENDCHAR
STARTCHAR uni01D6
ENCODING 470
SWIDTH 600 0
DWIDTH 14 0
BBX 12 20 1 0
BITMAP
007FFFFFFA00
007FFFFFFA00
000000000000
008E8005EB00
00EFE00BFF30
008E8005EB00
000000000000
000000000000
8FFF0000EFF9
8FFF0000EFF9
8FFF0000EFF9
8FFF0000EFF9
8FFF0000EFF9
8FFF0000EFF9
8FFF0000EFF9
7FFF1003FFF9
6FFF813DFFF9
2FFFFFFFFFF9
0AFFFFFC9FF9
019EFD705FF9
ENDCHAR
STARTCHAR uni01D7
ENCODING 471
SWIDTH 600 0
DWIDTH 14 0
BBX 12 24 1 0
BITMAP
0000003C4000
000001DFE200
00000AFD2000
000008C20000
007E9003EC10
00DFF009FF40
007E9003EC10
000000000000
7FFF10008FFD
7FFF10008FFD
7FFF10008FFD
7FFF10008FFD
7FFF10008FFD
7FFF10008FFD
7FFF10008FFD
7FFF10008FFD
7FFF10008FFD
7FFF10008FFD
6FFF20009FFC
4FFF4000CFFA
1FFFC217FFF7
09FFFFFFFFE1
01CFFFFFFF50
0017CEFDA300
ENDCHAR
STARTCHAR uni01D8
ENCODING 472
SWIDTH 600 0
DWIDTH 14 0
BBX 12 21 1 0
BITMAP
000000781000
000002EF6000
00000AF90000
000007A00000
008E8005EB00
00EFE00BFF30
008E8005EB00
000000000000
000000000000
8FFF0000EFF9
8FFF0000EFF9
8FFF0000EFF9
8FFF0000EFF9
8FFF0000EFF9
8FFF0000EFF9
8FFF0000EFF9
7FFF1003FFF9
6FFF813DFFF9
2FFFFFFFFFF9
0AFFFFFC9FF9
019EFD705FF9
ENDCHAR
STARTCHAR uni01D9
ENCODING 473
SWIDTH 600 0
DWIDTH 14 0
BBX 12 24 1 0
BITMAP
002B9105D600
001CFDAFE400
0001CFFE4000
000000000000
007E9003EC10
00DFF009FF40
007E9003EC10
000000000000
7FFF10008FFD
7FFF10008FFD
7FFF10008FFD
7FFF10008FFD
7FFF10008FFD
7FFF10008FFD
7FFF10008FFD
7FFF10008FFD
7FFF10008FFD
7FFF10008FFD
6FFF20009FFC
4FFF4000CFFA
1FFFC217FFF7
09FFFFFFFFE1
01CFFFFFFF50
0017CEFDA300
ENDCHAR
STARTCHAR uni01DA
ENCODING 474
SWIDTH 600 0
DWIDTH 14 0
BBX 12 21 1 0
BITMAP
002C8005C400
001CFDCFE300
0001BFFD2000
000000000000
008E8005EB00
00EFE00BFF30
008E8005EB00
000000000000
000000000000
8FFF0000EFF9
8FFF0000EFF9
8FFF0000EFF9
8FFF0000EFF9
8FFF0000EFF9
8FFF0000EFF9
8FFF0000EFF9
7FFF1003FFF9
6FFF813DFFF9
2FFFFFFFFFF9
0AFFFFFC9FF9
019EFD705FF9
ENDCHAR
STARTCHAR uni01DB
ENCODING 475
SWIDTH 600 0
DWIDTH 14 0
BBX 12 24 1 0
BITMAP
000199000000
0009FF500000
00009FE20000
000008B20000
007E9003EC10
00DFF009FF40
007E9003EC10
000000000000
7FFF10008FFD
7FFF10008FFD
7FFF10008FFD
7FFF10008FFD
7FFF10008FFD
7FFF10008FFD
7FFF10008FFD
7FFF10008FFD
7FFF10008FFD
7FFF10008FFD
6FFF20009FFC
4FFF4000CFFA
1FFFC217FFF7
09FFFFFFFFE1
01CFFFFFFF50
0017CEFDA300
ENDCHAR
STARTCHAR uni01DC
ENCODING 476
SWIDTH 600 0
DWIDTH 14 0
BBX 12 21 1 0
BITMAP
00006A000000
0003FF500000
00005FD10000
000007A10000
008E8005EB00
00EFE00BFF30
008E8005EB00
000000000000
000000000000
8FFF0000EFF9
8FFF0000EFF9
8FFF0000EFF9
8FFF0000EFF9
8FFF0000EFF9
8FFF0000EFF9
8FFF0000EFF9
7FFF1003FFF9
6FFF813DFFF9
2FFFFFFFFFF9
0AFFFFFC9FF9
019EFD705FF9
ENDCHAR
STARTCHAR uni01E2
ENCODING 482
SWIDTH 600 0
DWIDTH 14 0
BBX 15 19 0 0
BITMAP
000004FFFFFFF000
000004FFFFFFF000
0000000000000000
00001EFFFFFFFF10
00005FFFFFFFFF10
0000AFFFFFFFFF10
0001EFFBFF900000
0005FFE8FF900000
000AFFA8FF900000
000EFF68FFFFF600
004FFF28FFFFF600
009FFD08FFFFF600
00EFF908FF900000
04FFFFFFFF900000
09FFFFFFFF900000
0EFFFFFFFF900000
4FFF7008FFFFFF40
9FFF1008FFFFFF40
EFFB0008FFFFFF40
ENDCHAR
STARTCHAR uni01E3
ENCODING 483
SWIDTH 600 0
DWIDTH 14 0
BBX 15 16 0 0
BITMAP
0002FFFFFFF00000
0002FFFFFFF00000
0000000000000000
0000000000000000
018DFD606DFC4000
2EFFFFFAFFFFF300
0BFFFFFFFFEFF900
0388BEFFC10BFE00
02DFFFFFFFFFFF20
1DFFFFFFFFFFFF30
6FFF74FFFFFFFF20
8FF901FFA0000000
8FFB14FFF7127000
6FFFFFFFFFFFF400
1EFFFFBBFFFFFA00
03CFD7007DFD9200
ENDCHAR
STARTCHAR Gcaron
ENCODING 486
SWIDTH 600 0
DWIDTH 14 0
BBX 13 21 1 0
BITMAP
0006C2003C4000
000CFD24EFA000
0002EFEFFD1000
00006FFFF30000
00000000000000
00017BEFD82000
003DFFFFFFE500
03EFFFFFFFF600
0CFFF9203C7000
4FFFA000000000
9FFF2000000000
CFFD0000000000
DFFB005FFFFF20
EFFB005FFFFF20
DFFC005FFFFF20
AFFF10001FFF20
6FFF80001FFF20
0DFFF8204FFF20
04FFFFFFFFFF20
005EFFFFFFF900
00018CEFD93000
ENDCHAR
STARTCHAR gcaron
ENCODING 487
SWIDTH 600 0
DWIDTH 14 0
BBX 13 23 1 -5
BITMAP
005C30007C2000
00BFF72BFF5000
001CFFFFF70000
0001DFFF800000
00000000000000
00000000000000
0028DFFFFFFF90
03EFFFFFFFFF90
0DFFFFFFFFFF90
2FFF712AFF7000
3FFF3008FFB000
1EFFEBCFFF9000
07FFFFFFFF3000
01DFFFFFB30000
0BFD3431000000
1FFFFFFFFDA300
0DFFFFFFFFFF30
03FFEFFFFFFF90
2EF500001CFFA0
AFF921026EFF70
AFFFFFFFFFFD10
3EFFFFFFFFC200
028CEFEDA50000
ENDCHAR
STARTCHAR uni01EA
ENCODING 490
SWIDTH 600 0
DWIDTH 14 0
BBX 14 22 0 -6
BITMAP
00005BEFD81000
000BFFFFFFE300
009FFFFFFFFE10
03FFFC218FFF90
09FFF2000BFFE0
0DFFC00006FFF3
0FFF900003FFF6
1FFF800002FFF7
1FFF800002FFF7
0FFF900004FFF6
0CFFC00006FFF4
08FFF2000BFFE0
03FFFC218FFF90
009FFFFFFFFD10
000AFFFFFFE300
00005BFFF91000
000001DF300000
000009F9000000
00000EFA120000
00000FFFFC0000
00000CFFFF2000
000002BED60000
ENDCHAR
STARTCHAR uni01EB
ENCODING 491
SWIDTH 600 0
DWIDTH 14 0
BBX 13 18 1 -6
BITMAP
0006BEFD820000
01CFFFFFFE5000
0CFFFFFFFFF300
5FFFB216FFFB00
AFFE1000AFFF10
CFFC00006FFF30
DFFC00006FFF30
AFFF1000AFFF10
6FFFB216FFFC00
0CFFFFFFFFE300
02CFFFFFFE4000
0007CFFF810000
00001DE2000000
00009F70000000
0000EF91200000
0000FFFFE10000
0000CFFFF50000
00002BED800000
ENDCHAR
STARTCHAR uni01F4
ENCODING 500
SWIDTH 600 0
DWIDTH 14 0
BBX 13 21 1 0
BITMAP
00000003B20000
0000005EFC1000
000008FFFC2000
00004FFE700000
000006B2000000
00017BEFD82000
003DFFFFFFE500
03EFFFFFFFF600
0CFFF9203C7000
4FFFA000000000
9FFF2000000000
CFFD0000000000
DFFB005FFFFF20
EFFB005FFFFF20
DFFC005FFFFF20
AFFF10001FFF20
6FFF80001FFF20
0DFFF8204FFF20
04FFFFFFFFFF20
005EFFFFFFF900
00018CEFD93000
ENDCHAR
STARTCHAR uni01F5
ENCODING 501
SWIDTH 600 0
DWIDTH 14 0
BBX 13 25 1 -5
BITMAP
00000005900000
0000003FFA0000
000002EFFE3000
00001DFFE30000
00004FFC200000
000005A1000000
00000000000000
00000000000000
0028DFFFFFFF90
03EFFFFFFFFF90
0DFFFFFFFFFF90
2FFF712AFF7000
3FFF3008FFB000
1EFFEBCFFF9000
07FFFFFFFF3000
01DFFFFFB30000
0BFD3431000000
1FFFFFFFFDA300
0DFFFFFFFFFF30
03FFEFFFFFFF90
2EF500001CFFA0
AFF921026EFF70
AFFFFFFFFFFD10
3EFFFFFFFFC200
028CEFEDA50000
ENDCHAR
STARTCHAR uni01F8
ENCODING 504
SWIDTH 600 0
DWIDTH 14 0
BBX 12 21 1 0
BITMAP
000096000000
0007FF900000
0009FFFC2000
00003CFF9000
0000007B0000
6FFF60008FFC
6FFFC0008FFC
6FFFF4008FFC
6FFFFA008FFC
6FFEFF108FFC
6FFAFF708FFC
6FFAAFD08FFC
6FFC5FF57FFC
6FFD0DFB6FFC
6FFE07FF6FFC
6FFF01FF9FFC
6FFF00AFEFFC
6FFF004FFFFC
6FFF000DFFFC
6FFF0006FFFC
6FFF0001EFFC
ENDCHAR
STARTCHAR uni01F9
ENCODING 505
SWIDTH 600 0
DWIDTH 14 0
BBX 12 20 1 0
BITMAP
0001A3000000
001BFE200000
005FFFD10000
0004EFFB0000
00003DFE3000
000001B40000
000000000000
000000000000
4FFA04BEEC40
4FFD8FFFFFF2
4FFFFFFFFFF9
4FFFF713EFFC
4FFF8000AFFE
4FFF40008FFE
4FFF40008FFE
4FFF40008FFE
4FFF40008FFE
4FFF40008FFE
4FFF40008FFE
4FFF40008FFE
ENDCHAR
STARTCHAR Aringacute
ENCODING 506
SWIDTH 600 0
DWIDTH 14 0
BBX 15 25 0 0
BITMAP
0000000021000000
00000002DA000000
0000003EFE200000
000005EFC1000000
00003FFEF9000000
00007F51ED000000
00005F62EB000000
000007DEB2000000
0000000000000000
0000000000000000
00001FFFF7000000
00006FFFFC000000
0000BFFFFF200000
0001FFEAFF700000
0006FF96FFC00000
000AFF51FFF20000
001FFE00BFF60000
005FFA006FFB0000
00AFFFFFFFFF1000
01EFFFFFFFFF6000
05FFFFFFFFFFB000
0AFFA00006FFF100
0EFF600002FFF600
4FFF300000EFFA00
9FFE000000AFFF10
ENDCHAR
STARTCHAR aringacute
ENCODING 507
SWIDTH 600 0
DWIDTH 14 0
BBX 12 22 1 0
BITMAP
000000003000
0000002CE200
000003EFD500
00006FFF8000
0004FFBEF800
0007FB06FC00
0003FD18F800
00005CED9100
000000000000
000000000000
0027BEFEB400
09FFFFFFFF80
0BFFFFFFFFF4
03E83014EFF9
00037ACEFFFC
02CFFFFFFFFD
1EFFFFFFFFFD
6FFF8421AFFD
8FFE2026DFFD
5FFFFFFFFFFD
0CFFFFFD8FFD
018EFD812FFD
ENDCHAR
STARTCHAR AEacute
ENCODING 508
SWIDTH 600 0
DWIDTH 14 0
BBX 15 21 0 0
BITMAP
0000000000870000
000000001BFF5000
00000003DFFF7000
0000000CFFB20000
00000001C6000000
00001EFFFFFFFF10
00005FFFFFFFFF10
0000AFFFFFFFFF10
0001EFFBFF900000
0005FFE8FF900000
000AFFA8FF900000
000EFF68FFFFF600
004FFF28FFFFF600
009FFD08FFFFF600
00EFF908FF900000
04FFFFFFFF900000
09FFFFFFFF900000
0EFFFFFFFF900000
4FFF7008FFFFFF40
9FFF1008FFFFFF40
EFFB0008FFFFFF40
ENDCHAR
STARTCHAR aeacute
ENCODING 509
SWIDTH 600 0
DWIDTH 14 0
BBX 15 20 0 0
BITMAP
000000003A100000
00000002EFB10000
0000001DFFF50000
000000BFFE400000
000003EFD3000000
0000004B10000000
0000000000000000
0000000000000000
018DFD606DFC4000
2EFFFFFAFFFFF300
0BFFFFFFFFEFF900
0388BEFFC10BFE00
02DFFFFFFFFFFF20
1DFFFFFFFFFFFF30
6FFF74FFFFFFFF20
8FF901FFA0000000
8FFB14FFF7127000
6FFFFFFFFFFFF400
1EFFFFBBFFFFFA00
03CFD7007DFD9200
ENDCHAR
STARTCHAR Oslashacute
ENCODING 510
SWIDTH 600 0
DWIDTH 14 0
BBX 14 22 0 -1
BITMAP
00000001A40000
0000003DFE3000
000005EFFE5000
00001EFF910000
000003C4000360
00006BEFD92DFA
001BFFFFFFFFF3
00AFFFFFFFFF80
03FFFC219FFF90
09FFF200BFFFE0
0DFFC006FFFFF4
0FFF903FFCFFF6
1FFF80CFD3FFF7
1FFF89FF42FFF7
0FFFDFF804FFF6
0DFFFFC006FFF3
09FFFE200CFFE0
03FFFD318FFF90
03FFFFFFFFFE10
0CFFFFFFFFE300
4FF46BEFD81000
03600000000000
ENDCHAR
STARTCHAR oslashacute
ENCODING 511
SWIDTH 600 0
DWIDTH 14 0
BBX 13 21 1 -1
BITMAP
00000006800000
0000004FF80000
000003EFFE2000
00002DFFD20000
00006FFB100000
00000790000000
00000000000000
00000000003000
0006BEEC85F900
01CFFFFFFFF400
0CFFFFFFFFF300
5FFFB21CFFFB00
AFFF10AFEFFF10
CFFC08FB6FFF30
DFFC6FD17FFF30
AFFFFE20AFFF10
6FFFF416FFFB00
0CFFFFFFFFF300
1CFFFFFFFE5000
3E95BEFD820000
02000000000000
ENDCHAR
STARTCHAR uni0218
ENCODING 536
SWIDTH 600 0
DWIDTH 14 0
BBX 13 22 1 -6
BITMAP
0005BEFEB60000
00AFFFFFFFD300
08FFFFFFFFF600
1EFFC2026D9000
2FFF7000010000
1FFFE600000000
0AFFFFE8200000
01CFFFFFFA2000
0017EFFFFFE300
000006CFFFFC00
00000004EFFF20
016000007FFF30
0BFC5102CFFE10
8FFFFFFFFFF800
1AFFFFFFFFA000
0039CEFDA40000
00000000000000
00003EC7000000
000006FF600000
000000FF800000
000029FF300000
0004ED92000000
ENDCHAR
STARTCHAR uni0219
ENCODING 537
SWIDTH 600 0
DWIDTH 14 0
BBX 12 18 1 -6
BITMAP
0017CEFEA500
03EFFFFFFFC3
0BFFFFFFFFF3
0EFFB1026C80
0CFFFA751000
04EFFFFFFB40
0028DFFFFFF5
02100258EFFC
0CE94101BFFE
7FFFFFFFFFFA
2AFFFFFFFFD1
0038CEFEB600
000000000000
00002EC70000
000005FF7000
000000EF9000
000028FF4000
0003ED930000
ENDCHAR
STARTCHAR uni021A
ENCODING 538
SWIDTH 600 0
DWIDTH 14 0
BBX 14 22 0 -6
BITMAP
4FFFFFFFFFFFFA
4FFFFFFFFFFFFA
4FFFFFFFFFFFFA
000009FFF00000
000009FFF00000
000009FFF00000
000009FFF00000
000009FFF00000
000009FFF00000
000009FFF00000
000009FFF00000
000009FFF00000
000009FFF00000
000009FFF00000
000009FFF00000
000009FFF00000
00000000000000
000004EC600000
0000018FF40000
0000001FF70000
000003AFE20000
00006EC8200000
ENDCHAR
STARTCHAR uni021B
ENCODING 539
SWIDTH 600 0
DWIDTH 14 0
BBX 13 22 1 -6
BITMAP
0004FFB0000000
0006FFB0000000
0007FFB0000000
0009FFB0000000
BEEFFFFFFFFB00
CFFFFFFFFFFB00
CFFFFFFFFFFB00
000CFFB0000000
000CFFB0000000
000CFFB0000000
000CFFB0000000
000CFFC0000000
000AFFF7102300
0006FFFFFFFC00
0000BFFFFFFF10
000007CEFEB710
00000000000000
0000009DA30000
0000002CFE0000
00000007FF1000
0000014DFB0000
00000BEB600000
ENDCHAR
STARTCHAR uni0237
ENCODING 567
SWIDTH 600 0
DWIDTH 14 0
BBX 10 17 1 -5
BITMAP
2FFFFFFFF3
2FFFFFFFF3
2FFFFFFFF3
000005FFF3
000005FFF3
000005FFF3
000005FFF3
000005FFF3
000005FFF3
000005FFF3
000005FFF3
000005FFF3
000007FFF1
16203DFFE0
5FFFFFFF90
BFFFFFFC10
4ADFEC7000
ENDCHAR
STARTCHAR uni0243
ENCODING 579
SWIDTH 600 0
DWIDTH 14 0
BBX 14 16 0 0
BITMAP
00FFFFFFDC8100
00FFFFFFFFFE20
00FFFFFFFFFF90
00FFF8003CFFB0
00FFF8013DFF60
00FFFFFFFFE800
00FFFFFFFFA400
00FFFFFFFFFF70
00FFF8003BFFF2
AEFFFFFF12FFF6
CFFFFFFF10FFF8
00FFF80003FFF7
00FFF8013CFFF3
00FFFFFFFFFFB0
00FFFFFFFFFD10
00FFFFFFEB6000
ENDCHAR
STARTCHAR uni0250
ENCODING 592
SWIDTH 600 0
DWIDTH 14 0
BBX 13 12 1 0
BITMAP
4FFA04BEFC4000
4FFEBFFFFFF500
4FFFFFFFFFFE00
4FFFF8118FFF10
4FFF7135CFFE00
4FFFFFFFFFF800
4FFFFFFFFE8000
3FFFFDC9610000
1FFFA2015BB000
0AFFFFFFFFF400
02DFFFFFFFD400
0018CEFDA50000
ENDCHAR
STARTCHAR uni0251
ENCODING 593
SWIDTH 600 0
DWIDTH 14 0
BBX 12 12 1 0
BITMAP
0029EFC53FFA
03EFFFFFCFFA
1DFFFFFFFFFA
6FFFB21AFFFA
BFFE1000EFFA
DFFC0000DFFA
DFFC0000DFFA
BFFE1000EFFA
7FFFA21AFFFA
2EFFFFFFFFFA
06FFFFFFCFFA
004BEEB44FFA
ENDCHAR
STARTCHAR uni0252
ENCODING 594
SWIDTH 600 0
DWIDTH 14 0
BBX 13 12 1 0
BITMAP
4FFB18DFD81000
4FFEDFFFFFC100
4FFFFFFFFFF800
4FFFD415EFFE00
4FFF50009FFF20
4FFF40006FFF40
4FFF40006FFF30
4FFF5000AFFF10
4FFFE416FFFC00
4FFFFFFFFFF400
4FFDEFFFFF8000
4FF929EEB50000
ENDCHAR
STARTCHAR uni0253
ENCODING 595
SWIDTH 600 0
DWIDTH 14 0
BBX 13 17 1 0
BITMAP
0018DFEC500000
02DFFFFF600000
0BFFFFFF200000
1FFFC203000000
3FFF5000000000
4FFF37DFD81000
4FFFDFFFFFC000
4FFFFFFFFFF700
4FFFD415EFFD00
4FFF50009FFF20
4FFF40006FFF30
4FFF40007FFF20
4FFF5000AFFF10
4FFFE416FFFB00
4FFFFFFFFFF400
4FFDDFFFFF7000
4FF919EEC50000
ENDCHAR
STARTCHAR uni0254
ENCODING 596
SWIDTH 600 0
DWIDTH 14 0
BBX 12 12 1 0
BITMAP
018CEFDA4000
4EFFFFFFF900
1DFFFFFFFFA0
04A4116EFFF4
00000004FFF9
00000000DFFB
00000000EFFB
00000004FFF9
0BA3026EFFF4
5FFFFFFFFFA0
5EFFFFFFFA00
018CEFDA4000
ENDCHAR
STARTCHAR uni0255
ENCODING 597
SWIDTH 600 0
DWIDTH 14 0
BBX 13 14 1 -2
BITMAP
00017BEFEA4000
004EFFFFFFF800
04FFFFFFFFF700
0DFFF93127B000
3FFF7000000000
5FFF105BEEA200
5FFF2AFFFFFD00
3FFFEFFFFFFF40
0CFFFFE618FF50
03EFFFDEFFFF20
01EFFFFFFFF700
08FFBBEFEB5000
0EFF2000000000
018B0000000000
ENDCHAR
STARTCHAR uni0256
ENCODING 598
SWIDTH 600 0
DWIDTH 14 0
BBX 14 22 1 -5
BITMAP
00000000FFF800
00000000FFF800
00000000FFF800
00000000FFF800
00000000EFF800
002AEFC3DFF800
03EFFFFFEFF800
1DFFFFFFFFF800
6FFFA22AFFF800
BFFE1000FFF800
DFFC0000FFF800
DFFC0000FFF800
BFFE1000FFF800
7FFFA11AFFF800
2FFFFFFFFFF800
06FFFFFEEFF800
004BEEB2DFF800
00000000DFF900
00000000BFFC10
000000008FFFF6
000000001EFFFA
0000000002BEEA
ENDCHAR
STARTCHAR uni0257
ENCODING 599
SWIDTH 600 0
DWIDTH 14 0
BBX 14 17 1 0
BITMAP
0000000004BEFA
000000004FFFF9
00000000AFFFF6
00000000DFFC10
00000000EFF800
002AEFB4DFF800
03EFFFFFFFF800
1EFFFFFFFFF800
6FFFA22AFFF800
BFFE1001FFF800
DFFC0000FFF800
DFFC0000FFF800
BFFE1002FFF800
8FFF912BFFF800
2FFFFFFFFFF800
06FFFFFEDFF800
004BEEA27FF800
ENDCHAR
STARTCHAR uni0258
ENCODING 600
SWIDTH 600 0
DWIDTH 14 0
BBX 12 12 1 0
BITMAP
0017CEEC8100
02DFFFFFFE30
0DFFFFFFFFE1
5FFC2014DFF9
9FFFFFFFFFFD
AFFFFFFFFFFF
9FFFFFFFFFFF
00000000AFFD
03931139FFF8
0BFFFFFFFFD1
1DFFFFFFFD20
006BEFEB6000
ENDCHAR
STARTCHAR uni0259
ENCODING 601
SWIDTH 600 0
DWIDTH 14 0
BBX 13 12 1 0
BITMAP
0049DFEC710000
0AFFFFFFFE3000
07FFFFFFFFE200
01A52028FFF900
000000009FFE00
9FFFFFFFFFFF10
AFFFFFFFFFFF10
9FFFFFFFFFFE00
5FFC3013CFF900
0DFFFFFFFFE100
03EFFFFFFD3000
0018DEEC710000
ENDCHAR
STARTCHAR uni025A
ENCODING 602
SWIDTH 600 0
DWIDTH 14 0
BBX 15 12 0 0
BITMAP
039DFD9200000000
3FFFFFFE40210000
0CFFFFFFEAFF6000
047215FFFFFFB110
00005CFFFE9FFF70
006DFFFFFC0DFFC0
7EFFFB9FFD03CE70
CFFA307FFB000000
9FF713DFF7000000
4FFFFFFFE2000000
09FFFFFF50000000
006CFEB300000000
ENDCHAR
STARTCHAR uni025B
ENCODING 603
SWIDTH 600 0
DWIDTH 14 0
BBX 12 12 1 0
BITMAP
0028CDEED930
04FFFFFFFFF9
0BFFFFFFFFF6
0AFFD31136A0
02CFFFFFB000
005DFFFFB000
0BFFFFFFB000
3FFF71000000
4FFF921027E2
1EFFFFFFFFFA
05FFFFFFFFFA
0028CDFEDA40
ENDCHAR
STARTCHAR uni025C
ENCODING 604
SWIDTH 600 0
DWIDTH 14 0
BBX 12 12 1 0
BITMAP
016BEFEDB600
4EFFFFFFFFC1
3FFFFFFFFFF6
0AA42015FFF6
0008FFFFFFB1
0008FFFFFC40
0008FFFFFFF6
01000002BFFD
1DB51014CFFE
8FFFFFFFFFFA
5EFFFFFFFFC1
016BEFEDA500
ENDCHAR
STARTCHAR uni025E
ENCODING 606
SWIDTH 600 0
DWIDTH 14 0
BBX 13 12 1 0
BITMAP
0005BEFEC71000
01CFFFFFFFD200
0CFFFFFFFFF800
5FFFB312DFF700
AFFE10FFFFC100
CFFB00FFFD5000
DFFA00FFFFF800
BFFD00019FFF00
6FFFA302AFFF10
0DFFFFFFFFFD00
02DFFFFFFFE300
0006BEFEC82000
ENDCHAR
STARTCHAR uni025F
ENCODING 607
SWIDTH 600 0
DWIDTH 14 0
BBX 13 17 1 -5
BITMAP
2FFFFFFFF30000
2FFFFFFFF30000
2FFFFFFFF30000
000005FFF30000
000005FFF30000
000005FFF30000
06DEEFFFFFFF60
07FFFFFFFFFF60
000005FFF30000
000005FFF30000
000005FFF30000
000005FFF30000
000007FFF20000
16203DFFE00000
5FFFFFFF900000
BFFFFFFC100000
4ADFEC71000000
ENDCHAR
STARTCHAR uni0260
ENCODING 608
SWIDTH 600 0
DWIDTH 14 0
BBX 14 21 1 -5
BITMAP
0000000002AEFB
000000002EFFFA
000000009FFFF6
00000000CFFD10
0019EFB3DFF900
02DFFFFFEFF800
0CFFFFFFFFF800
5FFFB22AFFF800
AFFE1000FFF800
CFFC0000FFF800
CFFC0000FFF800
AFFE1000FFF800
7FFFA22AFFF800
1EFFFFFFFFF800
05FFFFFFFFF800
003AEEA2EFF800
00000001FFF800
02A5202AFFF500
09FFFFFFFFE100
0CFFFFFFFE4000
006BEFEC810000
ENDCHAR
STARTCHAR uni0261
ENCODING 609
SWIDTH 600 0
DWIDTH 14 0
BBX 12 17 1 -5
BITMAP
0029EFC53FFA
03EFFFFFCFFA
0DFFFFFFFFFA
6FFFB21AFFFA
AFFE1001EFFA
CFFC0000DFFA
DFFB0000DFFA
BFFE1000DFFA
7FFFA219FFFA
1EFFFFFFFFFA
05FFFFFFEFFA
003BEEC5AFFA
00000000DFF9
02A42029FFF6
09FFFFFFFFE1
0DFFFFFFFE40
017BEFEC8200
ENDCHAR
STARTCHAR uni0262
ENCODING 610
SWIDTH 600 0
DWIDTH 14 0
BBX 12 12 1 0
BITMAP
00017CEFD920
005EFFFFFFF6
04FFFFFFFFF4
0DFFF8202980
4FFF80000000
6FFF307FFFFC
6FFF307FFFFC
5FFF707FFFFC
1EFFF7205FFC
07FFFFFFFFFC
008FFFFFFFF8
00039DEFD940
ENDCHAR
STARTCHAR uni0263
ENCODING 611
SWIDTH 600 0
DWIDTH 14 0
BBX 14 17 0 -5
BITMAP
1EFF700000EFF7
09FFD00004FFE1
03FFF3000AFF90
00BFF9001EFF30
005FFE006FFC00
000DFF40BFF600
0007FFA1FFE000
0001FFE7FF8000
00009FFEFF2000
00003FFFFB0000
00006FFFFE1000
0001EFEAFF8000
0006FF70DFE000
0008FF71DFF200
0006FFFFFFE000
0001DFFFFF8000
000029DEC60000
ENDCHAR
STARTCHAR uni0264
ENCODING 612
SWIDTH 600 0
DWIDTH 14 0
BBX 14 12 0 0
BITMAP
1BEFC7003BEEC5
0EFFFFC7FFFFF5
08FFFFFFFFFFE0
0112AFFFFD4120
0001BFFFFE4000
000AFFC8FFE200
004FFE20AFFA00
008FFB005FFE00
008FFE31AFFE00
005FFFFFFFFB00
000AFFFFFFE200
00006CEFD92000
ENDCHAR
STARTCHAR uni0265
ENCODING 613
SWIDTH 600 0
DWIDTH 14 0
BBX 12 17 1 -5
BITMAP
8FFF0000DFFA
8FFF0000DFFA
8FFF0000DFFA
8FFF0000DFFA
8FFF0000DFFA
8FFF0000DFFA
8FFF0000DFFA
8FFF1002EFFA
6FFF713DFFFA
3FFFFFFFFFFA
0BFFFFFDCFFA
019EFD81BFFA
00000000CFFA
00000000DFFA
00000000DFFA
00000000DFFA
00000000DFFA
ENDCHAR
STARTCHAR uni0266
ENCODING 614
SWIDTH 600 0
DWIDTH 14 0
BBX 12 17 1 0
BITMAP
0018DFEC5000
02DFFFFF6000
0BFFFFFF2000
1FFFC2030000
3FFF50000000
4FFF34BEEC30
4FFF9FFFFFE2
4FFFFFFFFFF8
4FFFF713EFFC
4FFF8000AFFE
4FFF40009FFE
4FFF40008FFE
4FFF40008FFE
4FFF40008FFE
4FFF40008FFE
4FFF40008FFE
4FFF40008FFE
ENDCHAR
STARTCHAR uni0267
ENCODING 615
SWIDTH 600 0
DWIDTH 14 0
BBX 12 22 1 -5
BITMAP
0018DFEC5000
02DFFFFF6000
0BFFFFFF2000
1FFFC2030000
3FFF50000000
4FFF34BEEB30
4FFF9FFFFFE2
4FFFFFFFFFF9
4FFFF713EFFC
4FFF8000AFFE
4FFF40009FFE
4FFF40008FFE
4FFF40008FFE
4FFF40008FFE
4FFF40008FFE
4FFF40008FFE
4FFF40008FFE
000000009FFD
00000011DFFC
000000FFFFF8
000004FFFFE1
000005DFEA20
ENDCHAR
STARTCHAR uni0268
ENCODING 616
SWIDTH 600 0
DWIDTH 14 0
BBX 13 18 1 0
BITMAP
000005DEA10000
00000EFFF80000
00000EFFF80000
000005DEB10000
00000000000000
00000000000000
2FFFFFFFF30000
2FFFFFFFF30000
2FFFFFFFF30000
000005FFF30000
000005FFF30000
03DEEFFFFFFF60
04FFFFFFFFFF60
000005FFF30000
000005FFF30000
000005FFF30000
000005FFF30000
000005FFF30000
ENDCHAR
STARTCHAR uni026A
ENCODING 618
SWIDTH 600 0
DWIDTH 14 0
BBX 12 12 1 0
BITMAP
2FFFFFFFFFF8
2FFFFFFFFFF8
2FFFFFFFFFF8
00009FFE0000
00009FFE0000
00009FFE0000
00009FFE0000
00009FFE0000
00009FFE0000
2FFFFFFFFFF8
2FFFFFFFFFF8
2FFFFFFFFFF8
ENDCHAR
STARTCHAR uni026B
ENCODING 619
SWIDTH 600 0
DWIDTH 14 0
BBX 12 17 1 0
BITMAP
CFFFFFF70000
CFFFFFF70000
CFFFFFF70000
0001FFF70000
0001FFF70000
0001FFF70000
0011FFF70000
1BFFFFF84A70
8FFFFFFFFFE0
4971FFFFFC40
0001FFF70000
0001FFF70000
0001FFF80000
0000EFFE3022
00009FFFFFF8
00002EFFFFFC
000002AEFEC7
ENDCHAR
STARTCHAR uni026C
ENCODING 620
SWIDTH 600 0
DWIDTH 14 0
BBX 12 17 1 0
BITMAP
CFFFFFF70000
CFFFFFF70000
CFFFFFF70000
0001FFF70000
0001FFF70000
3CECFFF70000
CFFFFFF70000
EF35FFF70000
AFFFFFFFFF90
18DFFFFFFF90
0001FFF70000
0001FFF70000
0000FFF80000
0000DFFE3022
00009FFFFFF8
00001EFFFFFC
0000029EFEC7
ENDCHAR
STARTCHAR uni026D
ENCODING 621
SWIDTH 600 0
DWIDTH 14 0
BBX 12 22 1 -5
BITMAP
CFFFFFF70000
CFFFFFF70000
CFFFFFF70000
0001FFF70000
0001FFF70000
0001FFF70000
0001FFF70000
0001FFF70000
0001FFF70000
0001FFF70000
0001FFF70000
0001FFF70000
0001FFF70000
0001FFF70000
0001FFF70000
0001FFF70000
0001FFF70000
0000FFF80000
0000DFFE3022
00009FFFFFF8
00001EFFFFFC
0000029EFEC7
ENDCHAR
STARTCHAR uni026E
ENCODING 622
SWIDTH 600 0
DWIDTH 14 0
BBX 14 22 1 -5
BITMAP
FFF80000000000
FFF80000000000
FFF80000000000
FFF80000000000
FFF80000000000
FFFFFFFFFFFFC0
FFFFFFFFFFFFC0
FFFFFFFFFFFE30
FFF80000CFF500
FFF80009FF8000
FFF8006FFA0000
FFF803FFFEA200
FFF80DFFFFFE30
FFF807FFFFFFC0
FFF800203DFFF2
FFF8000005FFF5
FFF8000003FFF5
0000100006FFF3
0002E9214EFFE0
000CFFFFFFFF60
0007FFFFFFF900
000039DFEB5000
ENDCHAR
STARTCHAR uni026F
ENCODING 623
SWIDTH 600 0
DWIDTH 14 0
BBX 14 12 0 0
BITMAP
6FFF04FF70CFF8
6FFF04FF70CFF8
6FFF04FF70CFF8
6FFF04FF70CFF8
6FFF04FF70CFF8
6FFF04FF70CFF8
6FFF04FF70CFF8
6FFF06FF70DFF8
5FFF2CFF94FFF8
3FFFFFFFFFFFF8
0DFFFBEFFFAFF8
03CEA15EE83FF8
ENDCHAR
STARTCHAR uni0270
ENCODING 624
SWIDTH 600 0
DWIDTH 14 0
BBX 14 17 0 -5
BITMAP
6FFF04FF70CFF8
6FFF04FF70CFF8
6FFF04FF70CFF8
6FFF04FF70CFF8
6FFF04FF70CFF8
6FFF04FF70CFF8
6FFF04FF70CFF8
6FFF05FF70CFF8
5FFF2BFF93FFF8
3FFFFFFFFFFFF8
0DFFFEFFFFFFF8
03CFC37EE99FF8
0000000000BFF8
0000000000CFF8
0000000000CFF8
0000000000CFF8
0000000000CFF8
ENDCHAR
STARTCHAR uni0271
ENCODING 625
SWIDTH 600 0
DWIDTH 14 0
BBX 14 17 0 -5
BITMAP
2FF94CE906DE80
2FFCEFFF9FFFF4
2FFFFFFFFFFFF9
2FFFA3FFF4AFFB
2FFF41FFC09FFC
2FFF31FFA09FFC
2FFF31FFA09FFC
2FFF31FFA09FFC
2FFF31FFA09FFC
2FFF31FFA09FFC
2FFF31FFA09FFC
2FFF31FFA09FFC
00000000009FFC
0000000001BFFA
000000003FFFF8
000000006FFFF2
000000007EFC40
ENDCHAR
STARTCHAR uni0272
ENCODING 626
SWIDTH 600 0
DWIDTH 14 0
BBX 14 17 -1 -5
BITMAP
000FFE03AEFC40
000FFF7EFFFFF2
000FFFFFFFFFF9
000FFFF913EFFC
000FFFB000AFFE
000FFF80008FFE
000FFF80008FFE
000FFF80008FFE
000FFF80008FFE
000FFF80008FFE
000FFF80008FFE
000FFF80008FFE
001FFF70000000
015FFF60000000
0EFFFF30000000
2FFFFB00000000
3EFD9100000000
ENDCHAR
STARTCHAR uni0273
ENCODING 627
SWIDTH 600 0
DWIDTH 14 0
BBX 14 17 1 -5
BITMAP
4FFA05CEEA2000
4FFD8FFFFFD000
4FFFFFFFFFF500
4FFFF615FFF800
4FFF8000DFFA00
4FFF4000CFFB00
4FFF4000CFFB00
4FFF4000CFFB00
4FFF4000CFFB00
4FFF4000CFFB00
4FFF4000CFFB00
4FFF4000CFFB00
00000000CFFB00
00000000AFFE11
000000007FFFF9
000000001EFFFC
0000000002AEFC
ENDCHAR
STARTCHAR uni0274
ENCODING 628
SWIDTH 600 0
DWIDTH 14 0
BBX 12 12 1 0
BITMAP
3FFF5000AFF9
3FFFE100AFF9
3FFFF900AFF9
3FFFFF30AFF9
3FFDFFC0AFF9
3FFD9FF79FF9
3FFE2EFE8FF9
3FFF07FFDFF9
3FFF10CFFFF9
3FFF103FFFF9
3FFF1009FFF9
3FFF1001DFF9
ENDCHAR
STARTCHAR uni0275
ENCODING 629
SWIDTH 600 0
DWIDTH 14 0
BBX 13 12 1 0
BITMAP
0006BEFD920000
02CFFFFFFF5000
0CFFFFFFFFF400
6FFD4102AFFC00
BFFFFFFFFFFF10
CFFFFFFFFFFF30
DFFFFFFFFFFF30
BFFA00004FFF10
6FFF7114DFFC00
0CFFFFFFFFF400
02DFFFFFFF6000
0017CEFD920000
ENDCHAR
STARTCHAR uni0276
ENCODING 630
SWIDTH 600 0
DWIDTH 14 0
BBX 15 12 0 0
BITMAP
0007CFFFFFFFFF00
01CFFFFFFFFFFF00
09FFFFFFFFFFFF00
2FFFD31EFF300000
6FFF500EFFFFF400
8FFF200EFFFFF400
8FFF200EFFFFF400
6FFF500EFF300000
2FFFC21EFF300000
0AFFFFFFFFFFFF40
01CFFFFFFFFFFF40
0017CFFFFFFFFF40
ENDCHAR
STARTCHAR uni0278
ENCODING 632
SWIDTH 600 0
DWIDTH 14 0
BBX 14 22 0 -5
BITMAP
000004FFA00000
000004FFA00000
000004FFA00000
000004FFA00000
000004FFA00000
0005BEFFFD8100
00AFFFFFFFFD20
07FFFFFFFFFFC0
0EFF95FFB5EFF5
4FFE14FFA09FF9
6FFB04FFA05FFB
6FFB04FFA05FFB
4FFE04FFA08FF9
0EFF95FFB5EFF5
07FFFFFFFFFFC0
00AFFFFFFFFD20
0005BEFFFD8100
000004FFA00000
000004FFA00000
000004FFA00000
000004FFA00000
000004FFA00000
ENDCHAR
STARTCHAR uni0279
ENCODING 633
SWIDTH 600 0
DWIDTH 14 0
BBX 11 12 1 0
BITMAP
0000000EFF90
0000000EFF90
0000000EFF90
0000000EFF90
0000000EFF90
0000000EFF90
0000002FFF90
000001CFFF90
03115CFFFF90
4FFFFFEAFF90
7FFFFE46FF90
7EFD9205FF90
ENDCHAR
STARTCHAR uni027A
ENCODING 634
SWIDTH 600 0
DWIDTH 14 0
BBX 11 17 1 0
BITMAP
0000000EFF90
0000000EFF90
0000000EFF90
0000000EFF90
0000000EFF90
0000000EFF90
0000000EFF90
0000000EFF90
0000000EFF90
0000000EFF90
0000000EFF90
0000002FFF90
000001CFFF90
03115CFFFF90
4FFFFFEAFF90
7FFFFE46FF90
7EFD9205FF90
ENDCHAR
STARTCHAR uni027B
ENCODING 635
SWIDTH 600 0
DWIDTH 14 0
BBX 13 17 1 -5
BITMAP
000001FFF70000
000001FFF70000
000001FFF70000
000001FFF70000
000001FFF70000
000001FFF70000
000003FFF70000
00000BFFF70000
0303AFFFF70000
4FFFFFDFF70000
7FFFF7AFF70000
7EEC50AFF70000
000000AFF70000
0000009FFB1200
0000005FFFFE00
0000000DFFFF30
00000002AEEC40
ENDCHAR
STARTCHAR uni027D
ENCODING 637
SWIDTH 600 0
DWIDTH 14 0
BBX 12 17 2 -5
BITMAP
3FFB006CEEB1
3FFC1BFFFFD0
3FFEAFFFFFA0
3FFFFF720220
3FFFF4000000
3FFF90000000
3FFF50000000
3FFF50000000
3FFF50000000
3FFF50000000
3FFF50000000
3FFF50000000
2FFF70000000
0FFFE4114100
0AFFFFFFF600
02EFFFFFF900
0019DFFDA500
ENDCHAR
STARTCHAR uni027E
ENCODING 638
SWIDTH 600 0
DWIDTH 14 0
BBX 12 12 2 0
BITMAP
00029DEFEDA1
006FFFFFFFE0
04FFFFFFFFA0
0CFFFC410220
1FFFD1000000
3FFF70000000
3FFF50000000
3FFF50000000
3FFF50000000
3FFF50000000
3FFF50000000
3FFF50000000
ENDCHAR
STARTCHAR uni0280
ENCODING 640
SWIDTH 600 0
DWIDTH 14 0
BBX 13 12 1 0
BITMAP
3FFFFFFEC71000
3FFFFFFFFFD100
3FFFFFFFFFF800
3FFF4002DFFB00
3FFF4003EFFA00
3FFFFFFFFFF500
3FFFFFFFFF9000
3FFFFFFFFA0000
3FFF40AFFF3000
3FFF401EFFD000
3FFF4005FFF800
3FFF4000BFFF40
ENDCHAR
STARTCHAR uni0281
ENCODING 641
SWIDTH 600 0
DWIDTH 14 0
BBX 12 12 1 0
BITMAP
BFFF4000EFF9
1CFFE200EFF9
02DFFD10EFF9
004FFFFFFFF9
03EFFFFFFFF9
0DFFFFFFFFF9
3FFF9100EFF9
5FFF3000EFF9
4FFF8100EFF9
1EFFFFFFFFF9
06FFFFFFFFF9
004BDFFFFFF9
ENDCHAR
STARTCHAR uni0282
ENCODING 642
SWIDTH 600 0
DWIDTH 14 0
BBX 12 17 1 -5
BITMAP
0017CEFEA500
03EFFFFFFFC3
0BFFFFFFFFF3
0EFFB1026C80
0CFFFA751000
04EFFFFFFB40
0028DFFFFFF5
02100258EFFC
0CE94101BFFE
7FFFFFFFFFFA
BFFFFFFFFFD1
BFFCDEFEB600
AFF600000000
8FFB11000000
4FFFFB000000
0CFFFE000000
02AEFD100000
ENDCHAR
STARTCHAR uni0283
ENCODING 643
SWIDTH 600 0
DWIDTH 14 0
BBX 13 22 1 -5
BITMAP
0000005BEFD920
000007FFFFFF30
00002FFFFFFD00
00005FFF812400
00007FFF100000
00008FFF000000
00008FFF000000
00008FFF000000
00008FFF000000
00008FFF000000
00008FFF000000
00008FFF000000
00008FFF000000
00008FFF000000
00008FFF000000
00008FFF000000
00008FFF000000
00009FFE000000
0412DFFD000000
5FFFFFF9000000
BFFFFFE2000000
5BEFE920000000
ENDCHAR
STARTCHAR uni0284
ENCODING 644
SWIDTH 600 0
DWIDTH 14 0
BBX 13 22 1 -5
BITMAP
0000005BEFD920
000007FFFFFF30
00002FFFFFFD00
00005FFF812400
00007FFF100000
00008FFF000000
00008FFF000000
00008FFF000000
00008FFF000000
00008FFF000000
1DEEFFFFFFF900
1FFFFFFFFFF900
00008FFF000000
00008FFF000000
00008FFF000000
00008FFF000000
00008FFF000000
00009FFE000000
0412DFFD000000
5FFFFFF9000000
BFFFFFE2000000
5BEFE920000000
ENDCHAR
STARTCHAR uni0287
ENCODING 647
SWIDTH 600 0
DWIDTH 14 0
BBX 13 16 1 -4
BITMAP
5ADEFD92000000
9FFFFFFE300000
6FFFFFFFC00000
14114DFFF10000
000006FFF30000
000005FFF30000
000004FFF30000
000004FFF30000
000004FFF30000
5FFFFFFFFFFF30
5FFFFFFFFFFF30
5FFFFFFFFFED30
000004FFF00000
000004FFD00000
000004FFC00000
000004FFA00000
ENDCHAR
STARTCHAR uni0288
ENCODING 648
SWIDTH 600 0
DWIDTH 14 0
BBX 13 21 1 -5
BITMAP
0004FFB0000000
0006FFB0000000
0007FFB0000000
0009FFB0000000
BEEFFFFFFFFB00
CFFFFFFFFFFB00
CFFFFFFFFFFB00
000CFFB0000000
000CFFB0000000
000CFFB0000000
000CFFB0000000
000CFFB0000000
000CFFB0000000
000CFFB0000000
000CFFB0000000
000CFFB0000000
000CFFD0000000
0009FFF8102300
0004FFFFFFFC00
0000AFFFFFFF10
000006CEFDB710
ENDCHAR
STARTCHAR uni0289
ENCODING 649
SWIDTH 600 0
DWIDTH 14 0
BBX 16 12 -1 0
BITMAP
004FFF4003FFF500
004FFF4003FFF500
004FFF4003FFF500
3EFFFFFFFFFFFFF6
4FFFFFFFFFFFFFF6
004FFF4003FFF500
004FFF4003FFF500
004FFF5004FFF500
002FFFA13DFFF500
000DFFFFFFFFF500
0007FFFFFDDFF500
00008DFD919FF500
ENDCHAR
STARTCHAR uni028A
ENCODING 650
SWIDTH 600 0
DWIDTH 14 0
BBX 14 12 0 0
BITMAP
1FFFFF40ABBBB5
1FFFFF40DFFFF7
1FFFFF20BFFDC5
005FF8002EFB00
02EFF10009FF70
08FFC00006FFD0
0BFFC00006FFF2
0BFFE10009FFF2
08FFFA216FFFE0
01EFFFFFFFFF60
003EFFFFFFF800
00017CEFDA3000
ENDCHAR
STARTCHAR uni028B
ENCODING 651
SWIDTH 600 0
DWIDTH 14 0
BBX 13 12 1 0
BITMAP
8FFF007FEC4000
8FFF006FFFF500
8FFF004FFFFD00
8FFF0001CFFF20
8FFF00007FFF40
8FFF00006FFF30
8FFF10007FFF20
6FFF3000BFFE00
3FFFC217FFF900
0CFFFFFFFFE200
02DFFFFFFE4000
0018CEFD920000
ENDCHAR
STARTCHAR uni028C
ENCODING 652
SWIDTH 600 0
DWIDTH 14 0
BBX 14 12 0 0
BITMAP
00001FFFF50000
00007FFFFB0000
0000CFFEFF2000
0002FFC9FF7000
0008FF85FFD000
000DFF41FFF300
004FFE00BFF900
009FF9006FFE00
00EFF4001FFF50
05FFE0000BFFB0
0BFF900006FFF2
1FFF400001FFF7
ENDCHAR
STARTCHAR uni028D
ENCODING 653
SWIDTH 600 0
DWIDTH 14 0
BBX 15 12 0 0
BITMAP
02FFFF20CFFF7000
05FFFF50EFFF9000
07FFFF72FFFFB000
09FFBFA4FCFFE000
0BFF8FC6F8FFF100
0EFF3FE8F5EFF400
1FFF0EFBF2DFF600
3FFE0BFEE0BFF900
6FFC08FFB09FFB00
8FFA05FF907FFD00
AFF80166305FFF10
CFF60000003FFF30
ENDCHAR
STARTCHAR uni028E
ENCODING 654
SWIDTH 600 0
DWIDTH 14 0
BBX 14 17 0 0
BITMAP
000000006CEFA0
00000009FFFF80
0000006FFFFF50
000000DFFB2100
000005FFD10000
00000CFF900000
00002FFFE10000
00008FFFF70000
0000EFDFFD0000
0005FF8AFF5000
000BFF35FFC000
002FFE01EFF300
008FF9009FFA00
00EFF4003FFF20
05FFD0000CFF80
0BFF800007FFE1
2FFF300001FFF7
ENDCHAR
STARTCHAR uni028F
ENCODING 655
SWIDTH 600 0
DWIDTH 14 0
BBX 14 12 0 0
BITMAP
1DFFB00004FFF6
06FFF4000BFFC0
00CFFB003FFF40
004FFF30AFFB00
000AFF92FFF200
0002FFE9FF9000
00009FFFFE1000
00001EFFF70000
000009FFF10000
000008FFF00000
000008FFF00000
000008FFF00000
ENDCHAR
STARTCHAR uni0290
ENCODING 656
SWIDTH 600 0
DWIDTH 14 0
BBX 15 17 1 -5
BITMAP
09FFFFFFFFFC0000
09FFFFFFFFFC0000
09FFFFFFFFF60000
0000009FFF800000
000008FFF9000000
00006FFFA0000000
0005FFFC10000000
003FFFD100000000
02EFFD2000000000
1DFFFFFFFFFD0000
5FFFFFFFFFFD0000
5FFFFFFFFFFD0000
000000009FFE0000
000000008FFF3100
000000004FFFFB00
000000000CFFFE00
00000000019EFD20
ENDCHAR
STARTCHAR uni0291
ENCODING 657
SWIDTH 600 0
DWIDTH 14 0
BBX 14 15 1 -3
BITMAP
09FFFFFFFFC000
09FFFFFFFFC000
09FFFFFFFF6000
000002DFF90000
00001CFFB00000
0000AFFD2AEC30
0008FFE39FFFD0
005FFF53FB1EF1
03FFF809F33EF1
2EFFFFEFFFFFD0
5FFFFFFFFFFF50
5FFFFFFFFEB400
000000BF100000
000000ED000000
00000187000000
ENDCHAR
STARTCHAR uni0292
ENCODING 658
SWIDTH 600 0
DWIDTH 14 0
BBX 12 17 1 -5
BITMAP
0EFFFFFFFFF4
0EFFFFFFFFF4
0EFFFFFFFFB1
0000009FFA00
00001BFF9000
0002CFF70000
003EFFFEB400
007FFFFFFF70
001EFFFFFFF3
0004203BFFF9
00000000EFFC
00000000CFFB
03200001EFF9
1DE7213CFFF4
8FFFFFFFFFB0
1AFFFFFFFC10
004ADFEB6000
ENDCHAR
STARTCHAR uni0294
ENCODING 660
SWIDTH 600 0
DWIDTH 14 0
BBX 12 17 1 0
BITMAP
004ADFEC7100
1BFFFFFFFD30
9FFFFFFFFFD1
1DF7213BFFF6
03400001FFF9
00000000EFF9
00000003FFF6
0000002DFFE1
000005EFFE40
0000BFFFE400
0001FFFC2000
0001FFF70000
0001FFF70000
0001FFF70000
0001FFF70000
0001FFF70000
0001FFF70000
ENDCHAR
STARTCHAR uni0295
ENCODING 661
SWIDTH 600 0
DWIDTH 14 0
BBX 12 17 1 0
BITMAP
0005AEFEC610
01BFFFFFFFD3
0AFFFFFFFFFD
2FFFE5115DF4
4FFF60000150
5FFF40000000
2FFF80000000
0AFFF5000000
01DFFF810000
001CFFFD3000
00009FFF6000
00002FFF6000
00002FFF6000
00002FFF6000
00002FFF6000
00002FFF6000
00002FFF6000
ENDCHAR
STARTCHAR uni0298
ENCODING 664
SWIDTH 600 0
DWIDTH 14 0
BBX 13 17 1 0
BITMAP
0005BEFD810000
009FFFFFFD2000
06FFFFFFFFC000
0EFFC217FFF600
5FFF2000AFFB00
9FFB00005FFF00
BFF803502FFF30
CFF64FF90FFF40
DFF67FFD0FFF40
CFF62EF70FFF40
BFF800102FFF20
8FFB00005FFF00
5FFF1000AFFB00
0EFFB217FFF500
06FFFFFFFFC000
008FFFFFFD2000
0004BEFC710000
ENDCHAR
STARTCHAR uni0299
ENCODING 665
SWIDTH 600 0
DWIDTH 14 0
BBX 12 12 2 0
BITMAP
6FFFFFFDB710
6FFFFFFFFFB0
6FFFFFFFFFF3
6FFF1016FFF2
6FFFFFFFFF80
6FFFFFFFFB20
6FFFFFFFFFE3
6FFF1003DFF9
6FFF1002DFFA
6FFFFFFFFFF8
6FFFFFFFFFD1
6FFFFFFEC610
ENDCHAR
STARTCHAR uni029C
ENCODING 668
SWIDTH 600 0
DWIDTH 14 0
BBX 12 12 1 0
BITMAP
4FFF4000DFFA
4FFF4000DFFA
4FFF4000DFFA
4FFF4000DFFA
4FFFFFFFFFFA
4FFFFFFFFFFA
4FFFFFFFFFFA
4FFF4000DFFA
4FFF4000DFFA
4FFF4000DFFA
4FFF4000DFFA
4FFF4000DFFA
ENDCHAR
STARTCHAR uni029D
ENCODING 669
SWIDTH 600 0
DWIDTH 14 0
BBX 13 24 0 -6
BITMAP
0000005DEA1000
000000EFFF8000
000000EFFF8000
0000005DEB1000
00000000000000
00000000000000
02FFFFFFFF3000
02FFFFFFFF3000
02FFFFFFFF3000
0000005FFF3000
0000005FFF3000
0000005FFF3000
0000005FFF3000
0000005FFF3000
0000005FFF3000
008DFECFFF3000
0AFFFFFFFF3000
3FFFFFFFFF2000
5FF702AFFF8000
5FF812DFFFF300
1FFFFFFFFFFB00
07FFFFFF9FFF30
004CEEC50AFF60
0000000004B300
ENDCHAR
STARTCHAR uni029E
ENCODING 670
SWIDTH 600 0
DWIDTH 14 0
BBX 13 17 0 -5
BITMAP
1DFFA0000EFF90
04FFF4000EFF90
009FFD100EFF90
001DFF906FFF90
0004FFF9FFFF90
00009FFFFFFF90
00001DFFFFFF90
00005FFF9EFF90
0004FFFA0EFF90
004EFFB00EFF90
03EFFC100EFF90
3EFFC1000EFF90
000000000EFF90
000000000EFF90
000000000EFF90
000000000EFF90
000000000EFF90
ENDCHAR
STARTCHAR uni029F
ENCODING 671
SWIDTH 600 0
DWIDTH 14 0
BBX 11 12 2 0
BITMAP
1FFF70000000
1FFF70000000
1FFF70000000
1FFF70000000
1FFF70000000
1FFF70000000
1FFF70000000
1FFF70000000
1FFF70000000
1FFFFFFFFFD0
1FFFFFFFFFD0
1FFFFFFFFFD0
ENDCHAR
STARTCHAR uni02A1
ENCODING 673
SWIDTH 600 0
DWIDTH 14 0
BBX 12 17 1 0
BITMAP
004ADFEC8200
1AFFFFFFFE40
9FFFFFFFFFE2
1DF8203BFFF7
03400001FFF9
00000000EFF7
00000007FFF2
0000006FFF60
00002AFFF600
9EFFFFFFFFFE
BFFFFFFFFFFE
0001FFF70000
0001FFF70000
0001FFF70000
0001FFF70000
0001FFF70000
0001FFF70000
ENDCHAR
STARTCHAR uni02A2
ENCODING 674
SWIDTH 600 0
DWIDTH 14 0
BBX 12 17 1 0
BITMAP
0006BEFEB600
01CFFFFFFFD3
0BFFFFFFFFFD
2FFFD4115DF4
4FFF50000160
3FFF50000000
0CFFB0000000
03EFFA100000
003DFFD40000
8EFFFFFFFFFF
9FFFFFFFFFFF
00002FFF6000
00002FFF6000
00002FFF6000
00002FFF6000
00002FFF6000
00002FFF6000
ENDCHAR
STARTCHAR uni02A4
ENCODING 676
SWIDTH 600 0
DWIDTH 14 0
BBX 16 22 -1 -5
BITMAP
0000009FF2000000
0000009FF2000000
0000009FF2000000
0000009FF2000000
0000008FF2000000
002BFB9FFFFFFFF4
01EFFFFFFFFFFFF4
08FFFFFFFFFFFFE2
0DFF82DFF204FF60
1FFF109FF21DFB00
2FFE009FF2AFE200
2FFE009FF8FFFB20
1FFF109FF5FFFFD0
0DFF82DFF2BFFFF5
08FFFFFFF211CFFA
01EFFFEFF2005FFB
003CFB2BC2004FFC
0000000000006FFB
000000000622CFF8
000000003FFFFFF2
00000000AFFFFF80
0000000018DFD600
ENDCHAR
STARTCHAR uni02A6
ENCODING 678
SWIDTH 600 0
DWIDTH 14 0
BBX 15 16 0 0
BITMAP
0035520000000000
00BFF50000000000
00DFF50000000000
00FFF50000000000
BEFFFFFFFFFE9200
CFFFFFFFFFFFFD00
CFFFFFFFFFFFF900
03FFF51FFF617100
03FFF50AFFF80000
03FFF501BFFFC100
03FFF50007FFF900
03FFF600004FFF10
01FFFD41014FFF20
00BFFFFFFFFFFE00
002DFFFFFFFFF500
00017BEFFEC82000
ENDCHAR
STARTCHAR uni02A7
ENCODING 679
SWIDTH 600 0
DWIDTH 14 0
BBX 16 22 0 -5
BITMAP
000000000007CFE6
00AFF40000AFFFF6
00CFF40003FFFFF2
00EFF40006FFF610
00FFF40008FFF100
BEFFFFFFFFFFF000
DFFFFFFFFFFFF000
DFFFFFFFFFFFF000
03FFF40008FFF000
03FFF40008FFF000
03FFF40008FFF000
03FFF40008FFF000
03FFF50008FFF000
02FFFA1208FFF000
00EFFFFE08FFF000
007FFFFF28FFF000
0007DFEB28FFF000
0000000008FFF000
000000011CFFD000
0000000AFFFFA000
0000000EFFFE2000
0000001DFEB30000
ENDCHAR
STARTCHAR h.sups
ENCODING 688
SWIDTH 600 0
DWIDTH 14 0
BBX 9 12 3 8
BITMAP
2AA2000000
4FF4000000
4FF4000000
4FF4AEC200
4FFCFFFB00
4FFFFFFF10
4FF817FF30
4FF404FF40
4FF404FF40
4FF404FF40
4FF404FF40
4FF303FF40
ENDCHAR
STARTCHAR j.sups
ENCODING 690
SWIDTH 600 0
DWIDTH 14 0
BBX 7 15 3 6
BITMAP
0004DD30
0009FF80
0004ED30
4FFFFF40
4FFFFF40
4FFFFF40
0003FF40
0003FF40
0003FF40
0003FF40
0003FF40
1207FF30
5FFFFF10
9FFFFA00
5CFD8100
ENDCHAR
STARTCHAR r.sups
ENCODING 691
SWIDTH 600 0
DWIDTH 14 0
BBX 7 9 5 8
BITMAP
DF42BFC0
DF5DFFA0
DFCFFF80
DFFA2110
DFD00000
DF900000
DF900000
DF900000
CE900000
ENDCHAR
STARTCHAR w.sups
ENCODING 695
SWIDTH 600 0
DWIDTH 14 0
BBX 12 8 1 9
BITMAP
EF704FE00AF9
BFB09FF40DF5
7FE0EFF81FF2
3FF5FCFC4FD0
0EFBF8DF7F90
0BFFF5AFCF60
07FFF17FFF20
04FFD03FFE00
ENDCHAR
STARTCHAR y.sups
ENCODING 696
SWIDTH 600 0
DWIDTH 14 0
BBX 9 11 3 6
BITMAP
BFB004FF20
4FF208FB00
0DF70CF600
07FC2FF100
01FF7FB000
00AFEF5000
004FFE1000
000DFA0000
004FF40000
0EFFB00000
2EE9100000
ENDCHAR
STARTCHAR uni02B9
ENCODING 697
SWIDTH 600 0
DWIDTH 14 0
BBX 5 8 5 8
BITMAP
0FFF70
1FFF40
2FFF20
3FFE00
4FFB00
5FF700
6FF300
7FE000
ENDCHAR
STARTCHAR uni02BB
ENCODING 699
SWIDTH 600 0
DWIDTH 14 0
BBX 6 11 4 7
BITMAP
000010
0018D0
01CFF5
0AFE50
2FF600
7FE000
8FFE90
8FFFF5
6FFFF7
1EFFF4
05DE80
ENDCHAR
STARTCHAR uni02BC
ENCODING 700
SWIDTH 600 0
DWIDTH 14 0
BBX 6 10 4 7
BITMAP
04DE90
0EFFF6
2FFFFB
0EFFFD
05DFFE
0009FC
001EF8
02CFE1
0EFE40
08B200
ENDCHAR
STARTCHAR uni02BE
ENCODING 702
SWIDTH 600 0
DWIDTH 14 0
BBX 6 7 5 13
BITMAP
AEB600
AFFF80
03DFE0
007FF1
03CFE0
AFFF80
AEC600
ENDCHAR
STARTCHAR uni02BF
ENCODING 703
SWIDTH 600 0
DWIDTH 14 0
BBX 6 7 4 13
BITMAP
02ADF1
2EFFF1
8FF610
AFD000
8FF610
2EFFF1
03AEF1
ENDCHAR
STARTCHAR uni02C1
ENCODING 705
SWIDTH 600 0
DWIDTH 14 0
BBX 8 11 3 10
BITMAP
006CFD60
06FFFFF8
1EFFFFFD
6FF712B4
6FF10000
3FF60000
0AFF7000
00AFFA00
000CFC00
000CFC00
00023200
ENDCHAR
STARTCHAR circumflex
ENCODING 710
SWIDTH 600 0
DWIDTH 14 0
BBX 9 4 3 14
BITMAP
02EFFF7000
1DFFFFF500
CFE63CFF40
7B20008B10
ENDCHAR
STARTCHAR caron
ENCODING 711
SWIDTH 600 0
DWIDTH 14 0
BBX 9 4 3 14
BITMAP
7B20007B10
CFE63CFF40
1DFFFFF500
02EFFF7000
ENDCHAR
STARTCHAR uni02C8
ENCODING 712
SWIDTH 600 0
DWIDTH 14 0
BBX 4 9 5 9
BITMAP
9FFF
8FFE
6FFC
5FFB
4FFA
3FF9
1FF7
0FF6
0EF5
ENDCHAR
STARTCHAR uni02C9
ENCODING 713
SWIDTH 600 0
DWIDTH 14 0
BBX 8 2 3 14
BITMAP
5FFFFFFB
5FFFFFFB
ENDCHAR
STARTCHAR uni02CA
ENCODING 714
SWIDTH 600 0
DWIDTH 14 0
BBX 7 6 5 14
BITMAP
00068000
004FF800
03EFFE20
2DFFD200
6FFB1000
07900000
ENDCHAR
STARTCHAR uni02CB
ENCODING 715
SWIDTH 600 0
DWIDTH 14 0
BBX 6 6 3 14
BITMAP
03B100
3EFA00
AFFF80
09FFF6
007FFC
0004B1
ENDCHAR
STARTCHAR uni02CC
ENCODING 716
SWIDTH 600 0
DWIDTH 14 0
BBX 4 9 5 -6
BITMAP
0EF5
0FF6
1FF7
3FF9
4FFA
5FFB
6FFC
8FFE
9FFF
ENDCHAR
STARTCHAR uni02D0
ENCODING 720
SWIDTH 600 0
DWIDTH 14 0
BBX 7 13 4 0
BITMAP
ACCCCC30
4FFFFA00
0AFFF200
02FF8000
008D1000
00130000
00000000
00000000
004A0000
00DF4000
08FFD100
2FFFF800
BFFFFF30
ENDCHAR
STARTCHAR uni02D1
ENCODING 721
SWIDTH 600 0
DWIDTH 14 0
BBX 7 5 4 8
BITMAP
BFFFFF30
2FFFF800
08FFD100
00DF5000
004A0000
ENDCHAR
STARTCHAR breve
ENCODING 728
SWIDTH 600 0
DWIDTH 14 0
BBX 9 5 3 14
BITMAP
1310003200
CF6001EF20
8FD319FE00
1EFFFFF600
02AEFD6000
ENDCHAR
STARTCHAR dotaccent
ENCODING 729
SWIDTH 600 0
DWIDTH 14 0
BBX 6 4 4 14
BITMAP
05DEA0
1FFFF6
1FFFF7
06DEA1
ENDCHAR
STARTCHAR ring
ENCODING 730
SWIDTH 600 0
DWIDTH 14 0
BBX 7 4 4 14
BITMAP
2BEEC600
CF61EF30
CF61EF30
2BEFD600
ENDCHAR
STARTCHAR ogonek
ENCODING 731
SWIDTH 600 0
DWIDTH 14 0
BBX 7 5 4 -5
BITMAP
02DD2000
0DF30000
3FF51200
2FFFFD00
06DFD810
ENDCHAR
STARTCHAR tilde
ENCODING 732
SWIDTH 600 0
DWIDTH 14 0
BBX 10 4 2 14
BITMAP
0001000000
06EFE819C8
2FFFFFFFF7
3BB13BEE80
ENDCHAR
STARTCHAR hungarumlaut
ENCODING 733
SWIDTH 600 0
DWIDTH 14 0
BBX 9 5 4 14
BITMAP
02C610B820
09FF34FF70
2FF80CFC00
9FD14FF300
5C403A8000
ENDCHAR
STARTCHAR uni02DE
ENCODING 734
SWIDTH 600 0
DWIDTH 14 0
BBX 8 7 2 5
BITMAP
00014000
028ED000
9FFFF200
DFFFF911
DD7AFFF7
4002EFFC
00004DE6
ENDCHAR
STARTCHAR uni02E0
ENCODING 736
SWIDTH 600 0
DWIDTH 14 0
BBX 9 12 3 5
BITMAP
AFC004FF20
5FF208FB00
0EF60DF600
09FB3FF100
03FF9FA000
00DFFF5000
008FFE1000
00AFEF3000
01FE6F9000
04FC4FC000
01FFFF9000
005DEA1000
ENDCHAR
STARTCHAR l.sups
ENCODING 737
SWIDTH 600 0
DWIDTH 14 0
BBX 8 11 4 9
BITMAP
AFFF8000
AFFF8000
AFFF8000
00FF8000
00FF8000
00FF8000
00FF8000
00FFA120
00EFFFD0
00BFFFF1
002AEEB1
ENDCHAR
STARTCHAR s.sups
ENCODING 738
SWIDTH 600 0
DWIDTH 14 0
BBX 8 8 3 9
BITMAP
019DFD92
0BFFFFF9
0EFA0270
06FFD830
0017BFF8
086209FF
4FFFFFFB
05BEFD81
ENDCHAR
STARTCHAR x.sups
ENCODING 739
SWIDTH 600 0
DWIDTH 14 0
BBX 9 8 3 9
BITMAP
8FF209FD10
1DFA2FF500
04FFBFB000
009FFF2000
00CFFE1000
06FDDFA000
2EF64FF500
BFC009FE10
ENDCHAR
STARTCHAR uni02E4
ENCODING 740
SWIDTH 600 0
DWIDTH 14 0
BBX 8 13 3 8
BITMAP
006CFD70
06FFFFF9
1EFFFFFD
6FF712A3
6FF10000
3FF60000
0AFF7000
00AFFA00
000CFC00
000CFC00
000CFC00
000CFC00
00034300
ENDCHAR
STARTCHAR uni0300
ENCODING 768
SWIDTH 600 0
DWIDTH 14 0
BBX 6 6 3 14
BITMAP
03B100
3EFA00
AFFF80
09FFF6
007FFC
0004B1
ENDCHAR
STARTCHAR uni0301
ENCODING 769
SWIDTH 600 0
DWIDTH 14 0
BBX 7 6 5 14
BITMAP
00068000
004FF800
03EFFE20
2DFFD200
6FFB1000
07900000
ENDCHAR
STARTCHAR uni0302
ENCODING 770
SWIDTH 600 0
DWIDTH 14 0
BBX 9 4 3 14
BITMAP
02EFFF7000
1DFFFFF500
CFE63CFF40
7B20008B10
ENDCHAR
STARTCHAR uni0303
ENCODING 771
SWIDTH 600 0
DWIDTH 14 0
BBX 10 4 2 14
BITMAP
0001000000
06EFE819C8
2FFFFFFFF7
3BB13BEE80
ENDCHAR
STARTCHAR uni0304
ENCODING 772
SWIDTH 600 0
DWIDTH 14 0
BBX 8 2 3 14
BITMAP
5FFFFFFB
5FFFFFFB
ENDCHAR
STARTCHAR uni0305
ENCODING 773
SWIDTH 600 0
DWIDTH 14 0
BBX 8 2 3 14
BITMAP
5FFFFFFB
5FFFFFFB
ENDCHAR
STARTCHAR uni0306
ENCODING 774
SWIDTH 600 0
DWIDTH 14 0
BBX 9 5 3 14
BITMAP
1310003200
CF6001EF20
8FD319FE00
1EFFFFF600
02AEFD6000
ENDCHAR
STARTCHAR uni0307
ENCODING 775
SWIDTH 600 0
DWIDTH 14 0
BBX 6 4 4 14
BITMAP
05DEA0
1FFFF6
1FFFF7
06DEA1
ENDCHAR
STARTCHAR uni0308
ENCODING 776
SWIDTH 600 0
DWIDTH 14 0
BBX 10 4 2 14
BITMAP
0AEA006ED3
4FFF50EFFA
4FFF50EFFA
0AEA006ED3
ENDCHAR
STARTCHAR uni0309
ENCODING 777
SWIDTH 600 0
DWIDTH 14 0
BBX 5 5 5 14
BITMAP
CDA300
EFFF30
17FF70
05FF40
0DB500
ENDCHAR
STARTCHAR uni030A
ENCODING 778
SWIDTH 600 0
DWIDTH 14 0
BBX 7 4 4 14
BITMAP
2BEEC600
CF61EF30
CF61EF30
2BEFD600
ENDCHAR
STARTCHAR uni030B
ENCODING 779
SWIDTH 600 0
DWIDTH 14 0
BBX 9 5 4 14
BITMAP
02C610B820
09FF34FF70
2FF80CFC00
9FD14FF300
5C403A8000
ENDCHAR
STARTCHAR uni030C
ENCODING 780
SWIDTH 600 0
DWIDTH 14 0
BBX 9 4 3 14
BITMAP
7B20007B10
CFE63CFF40
1DFFFFF500
02EFFF7000
ENDCHAR
STARTCHAR uni030F
ENCODING 783
SWIDTH 600 0
DWIDTH 14 0
BBX 10 5 1 14
BITMAP
06C304A700
2EFA0CFE10
07FF33FF70
00CFA08FE1
003C600C81
ENDCHAR
STARTCHAR uni0310
ENCODING 784
SWIDTH 600 0
DWIDTH 14 0
BBX 10 8 2 14
BITMAP
0000240000
0004FFA000
0009FFF000
0236FFC130
1FE17929F7
0CFA216FF3
03FFFFFFA0
003BEFD700
ENDCHAR
STARTCHAR uni0311
ENCODING 785
SWIDTH 600 0
DWIDTH 14 0
BBX 9 5 3 13
BITMAP
02AEFC5000
1EFFFFF700
8FD319FE00
CF6001EF20
1310003200
ENDCHAR
STARTCHAR uni0312
ENCODING 786
SWIDTH 600 0
DWIDTH 14 0
BBX 4 5 5 14
BITMAP
02A8
2E91
7FE9
7FFF
1BE8
ENDCHAR
STARTCHAR uni0313
ENCODING 787
SWIDTH 600 0
DWIDTH 14 0
BBX 4 5 5 14
BITMAP
3ED5
9FFD
4EFD
05E7
3D60
ENDCHAR
STARTCHAR uni0318
ENCODING 792
SWIDTH 600 0
DWIDTH 14 0
BBX 5 6 5 -7
BITMAP
001980
001FE0
DFFFE0
DFFFE0
001FE0
001980
ENDCHAR
STARTCHAR uni0319
ENCODING 793
SWIDTH 600 0
DWIDTH 14 0
BBX 6 6 4 -7
BITMAP
594000
8F7000
8FFFF4
8FFFF4
8F7000
594000
ENDCHAR
STARTCHAR uni031A
ENCODING 794
SWIDTH 600 0
DWIDTH 14 0
BBX 5 4 5 13
BITMAP
DFFF90
DFFF90
004F90
004D80
ENDCHAR
STARTCHAR uni031B
ENCODING 795
SWIDTH 600 0
DWIDTH 14 0
BBX 5 6 7 10
BITMAP
017C10
0AFF60
07FF70
0AFF40
9FF900
CB5000
ENDCHAR
STARTCHAR uni031C
ENCODING 796
SWIDTH 600 0
DWIDTH 14 0
BBX 5 5 4 -6
BITMAP
02BEC0
0DF910
2FF400
0DF910
02BEC0
ENDCHAR
STARTCHAR uni031D
ENCODING 797
SWIDTH 600 0
DWIDTH 14 0
BBX 7 4 4 -6
BITMAP
00CF3000
00CF3000
DFFFFF40
DFFFFF40
ENDCHAR
STARTCHAR uni031E
ENCODING 798
SWIDTH 600 0
DWIDTH 14 0
BBX 7 4 4 -6
BITMAP
DFFFFF40
DFFFFF40
00CF3000
00CF3000
ENDCHAR
STARTCHAR uni031F
ENCODING 799
SWIDTH 600 0
DWIDTH 14 0
BBX 7 6 4 -7
BITMAP
00792000
00CF3000
DFFFFF40
DFFFFF40
00CF3000
00792000
ENDCHAR
STARTCHAR uni0320
ENCODING 800
SWIDTH 600 0
DWIDTH 14 0
BBX 7 2 4 -4
BITMAP
DFFFFF40
DFFFFF40
ENDCHAR
STARTCHAR uni0323
ENCODING 803
SWIDTH 600 0
DWIDTH 14 0
BBX 6 4 4 -6
BITMAP
05DEA0
1FFFF6
1FFFF7
06DEA1
ENDCHAR
STARTCHAR uni0324
ENCODING 804
SWIDTH 600 0
DWIDTH 14 0
BBX 10 4 2 -5
BITMAP
0AEA006ED3
4FFF50EFFA
4FFF50EFFA
0AEA006ED3
ENDCHAR
STARTCHAR uni0325
ENCODING 805
SWIDTH 600 0
DWIDTH 14 0
BBX 7 4 4 -6
BITMAP
2BEEC600
CF61EF30
CF61EF30
2BEFD600
ENDCHAR
STARTCHAR uni0326
ENCODING 806
SWIDTH 600 0
DWIDTH 14 0
BBX 6 5 4 -6
BITMAP
04EC60
018FF4
001FF7
03AFE2
6EC820
ENDCHAR
STARTCHAR uni0327
ENCODING 807
SWIDTH 600 0
DWIDTH 14 0
BBX 6 6 4 -6
BITMAP
00DF30
04FD00
0AFFA1
016FF6
017FF4
6EDA40
ENDCHAR
STARTCHAR uni0328
ENCODING 808
SWIDTH 600 0
DWIDTH 14 0
BBX 7 5 4 -5
BITMAP
02DD2000
0DF30000
3FF51200
2FFFFD00
06DFD810
ENDCHAR
STARTCHAR uni0329
ENCODING 809
SWIDTH 600 0
DWIDTH 14 0
BBX 4 5 5 -6
BITMAP
1FF7
2FF8
2FF8
3FF8
3FF9
ENDCHAR
STARTCHAR uni032A
ENCODING 810
SWIDTH 600 0
DWIDTH 14 0
BBX 7 4 4 -6
BITMAP
EFFFFF50
EFFFFF50
ED007F50
A9005B40
ENDCHAR
STARTCHAR uni032C
ENCODING 812
SWIDTH 600 0
DWIDTH 14 0
BBX 9 4 3 -5
BITMAP
7B20007B10
CFE63CFF40
1DFFFFF500
02EFFF7000
ENDCHAR
STARTCHAR uni032E
ENCODING 814
SWIDTH 600 0
DWIDTH 14 0
BBX 9 5 3 -5
BITMAP
1310003200
CF6001EF20
8FD319FE00
1EFFFFF600
02AEFD6000
ENDCHAR
STARTCHAR uni032F
ENCODING 815
SWIDTH 600 0
DWIDTH 14 0
BBX 9 5 3 -6
BITMAP
02AEFC5000
1EFFFFF700
8FD319FE00
CF6001EF20
1310003200
ENDCHAR
STARTCHAR uni0330
ENCODING 816
SWIDTH 600 0
DWIDTH 14 0
BBX 10 4 2 -5
BITMAP
0001000000
06EFE819C8
2FFFFFFFF7
3BB13BEE80
ENDCHAR
STARTCHAR uni0331
ENCODING 817
SWIDTH 600 0
DWIDTH 14 0
BBX 8 2 3 -5
BITMAP
5FFFFFFB
5FFFFFFB
ENDCHAR
STARTCHAR uni0334
ENCODING 820
SWIDTH 600 0
DWIDTH 14 0
BBX 12 4 1 4
BITMAP
000100000000
06EFFC831994
1FFFFFFFFFF6
17A2049DEE90
ENDCHAR
STARTCHAR uni0339
ENCODING 825
SWIDTH 600 0
DWIDTH 14 0
BBX 5 5 5 -6
BITMAP
7FC600
04FF40
00DF70
04FF40
7FC600
ENDCHAR
STARTCHAR uni033A
ENCODING 826
SWIDTH 600 0
DWIDTH 14 0
BBX 7 4 4 -5
BITMAP
A9005B40
ED007F50
EFFFFF50
EFFFFF50
ENDCHAR
STARTCHAR uni033B
ENCODING 827
SWIDTH 600 0
DWIDTH 14 0
BBX 7 4 4 -6
BITMAP
EFFFFF50
ED007F50
ED007F50
EFFFFF50
ENDCHAR
STARTCHAR uni033C
ENCODING 828
SWIDTH 600 0
DWIDTH 14 0
BBX 10 5 2 -6
BITMAP
03CE62CE80
0DFFE9FFF5
3FFFFFFFF9
5FC1DF47FB
4D90AF13E9
ENDCHAR
STARTCHAR uni033D
ENCODING 829
SWIDTH 600 0
DWIDTH 14 0
BBX 6 6 4 13
BITMAP
020020
3E94E9
0AFFE3
07FFC1
4FB7FA
040041
ENDCHAR
STARTCHAR uni0342
ENCODING 834
SWIDTH 600 0
DWIDTH 14 0
BBX 10 4 2 14
BITMAP
0001000000
06EFE819C8
2FFFFFFFF7
3BB13BEE80
ENDCHAR
STARTCHAR uni0345
ENCODING 837
SWIDTH 600 0
DWIDTH 14 0
BBX 5 3 5 -5
BITMAP
2FFFA0
1FFFC0
05DFB0
ENDCHAR
STARTCHAR uni035F
ENCODING 863
SWIDTH 600 0
DWIDTH 14 0
BBX 25 3 -5 -5
BITMAP
FFFFFFFFFFFFFFFFFFFFFFFF60
FFFFFFFFFFFFFFFFFFFFFFFF60
FFFFFFFFFFFFFFFFFFFFFFFF60
ENDCHAR
STARTCHAR uni0361
ENCODING 865
SWIDTH 600 0
DWIDTH 14 0
BBX 23 5 -4 14
BITMAP
00000369CDEFEDB841000000
0017CFFFFFFFFFFFFE930000
07EFFFFFFFFFFFFFFFFFA200
8FFFD964210012358BEFFE10
2D720000000000000005B800
ENDCHAR
STARTCHAR uni0374
ENCODING 884
SWIDTH 600 0
DWIDTH 14 0
BBX 5 7 5 9
BITMAP
0FFF70
1FFF40
2FFF10
3FFD00
4FF900
5FF400
6FF100
ENDCHAR
STARTCHAR uni0375
ENCODING 885
SWIDTH 600 0
DWIDTH 14 0
BBX 5 7 4 0
BITMAP
009FC0
00DFB0
03FFA0
07FF90
0AFF80
0DFF70
1FFF60
ENDCHAR
STARTCHAR uni037A
ENCODING 890
SWIDTH 600 0
DWIDTH 14 0
BBX 5 3 5 -5
BITMAP
2FFFA0
1FFFC0
05DFB0
ENDCHAR
STARTCHAR uni037E
ENCODING 894
SWIDTH 600 0
DWIDTH 14 0
BBX 7 20 4 -6
BITMAP
05DE9100
3FFFF900
7FFFFD00
7FFFFE00
3FFFF900
06DEA100
00000000
00000000
00000000
05DFB200
2FFFFB00
5FFFFF10
2FFFFF30
05DFFF40
0009FF20
001EFD00
02CFF600
6FFF9000
2FE60000
04000000
ENDCHAR
STARTCHAR tonos
ENCODING 900
SWIDTH 600 0
DWIDTH 14 0
BBX 6 7 5 13
BITMAP
05DB81
07FFD0
09FF90
0BFF40
0DFE00
0FFA00
1BD600
ENDCHAR
STARTCHAR dieresistonos
ENCODING 901
SWIDTH 600 0
DWIDTH 14 0
BBX 10 6 2 14
BITMAP
00003EB200
00006FE100
00008FA000
2DD1AF58E7
7FF5DE1EFD
2DD1CA08E7
ENDCHAR
STARTCHAR Alphatonos
ENCODING 902
SWIDTH 600 0
DWIDTH 14 0
BBX 15 16 0 0
BITMAP
0DCA17FFFF100000
1FFE0BFFFF500000
3FFA0EFFFF900000
5FF64FFBFFD00000
7FF38FF6EFF20000
9FE0CFF2BFF60000
CFA1FFE07FFA0000
9D75FFB04FFE0000
0009FF801FFF3000
000DFFFFFFFF7000
002FFFFFFFFFB000
006FFFFFFFFFE000
00AFFB0003FFF400
00EFF80001FFF800
03FFF50000DFFC00
07FFF20000AFFF10
ENDCHAR
STARTCHAR anoteleia
ENCODING 903
SWIDTH 600 0
DWIDTH 14 0
BBX 6 6 4 7
BITMAP
05DE91
3FFFF9
7FFFFD
7FFFFE
3FFFF9
06DEA1
ENDCHAR
STARTCHAR Epsilontonos
ENCODING 904
SWIDTH 600 0
DWIDTH 14 0
BBX 13 16 0 0
BITMAP
0ECA0EFFFFFF90
2FFC0EFFFFFF90
4FF90EFFFFFF90
7FF50EFF300000
9FF10EFF300000
BFD00EFF300000
DF900EFFFFF800
AD500EFFFFF800
00000EFFFFF800
00000EFF300000
00000EFF300000
00000EFF300000
00000EFF300000
00000EFFFFFFC0
00000EFFFFFFC0
00000EFFFFFFC0
ENDCHAR
STARTCHAR Etatonos
ENCODING 905
SWIDTH 600 0
DWIDTH 14 0
BBX 14 16 0 0
BITMAP
0ECA4FFD00DFF4
2FFC4FFD00DFF4
4FF94FFD00DFF4
7FF54FFD00DFF4
9FF14FFD00DFF4
BFD04FFD00DFF4
DF904FFFFFFFF4
AD504FFFFFFFF4
00004FFFFFFFF4
00004FFD00DFF4
00004FFD00DFF4
00004FFD00DFF4
00004FFD00DFF4
00004FFD00DFF4
00004FFD00DFF4
00004FFD00DFF4
ENDCHAR
STARTCHAR Iotatonos
ENCODING 906
SWIDTH 600 0
DWIDTH 14 0
BBX 13 16 0 0
BITMAP
0ECA3FFFFFFF90
2FFC3FFFFFFF90
4FF93FFFFFFF90
7FF5001FFF7000
9FF1001FFF7000
BFD0001FFF7000
DF90001FFF7000
AD50001FFF7000
0000001FFF7000
0000001FFF7000
0000001FFF7000
0000001FFF7000
0000001FFF7000
00003FFFFFFF90
00003FFFFFFF90
00003FFFFFFF90
ENDCHAR
STARTCHAR Omicrontonos
ENCODING 908
SWIDTH 600 0
DWIDTH 14 0
BBX 14 16 0 0
BITMAP
0ECA007DFD7000
2FFC0AFFFFFA00
4FF96FFFFFFF60
7FF5CFFA1AFFC0
9FF3FFF302FFF2
BFD5FFF000FFF4
DF96FFD000DFF6
AD57FFD000DFF7
0007FFD000DFF7
0006FFD000DFF6
0004FFF000FFF4
0001FFF303FFF1
0000CFFA1AFFC0
00005FFFFFFF50
000009FFFFFA00
0000006DFD7000
ENDCHAR
STARTCHAR Upsilontonos
ENCODING 910
SWIDTH 600 0
DWIDTH 14 0
BBX 15 16 0 0
BITMAP
0BDB3EFF3004FFC0
0DFF2AFF7008FF70
0FFD05FFA00BFF20
2FF901EFE01FFC00
4FF600AFF34FF700
7FF2005FF68FF200
9FD0001EFACFC000
7C90000AFEFF7000
00000005FFFF2000
00000001EFFC0000
00000000BFF80000
00000000AFF70000
00000000AFF70000
00000000AFF70000
00000000AFF70000
00000000AFF70000
ENDCHAR
STARTCHAR Omegatonos
ENCODING 911
SWIDTH 600 0
DWIDTH 14 0
BBX 14 16 0 0
BITMAP
0ECA007DFD7000
2FFC0BFFFFFB00
4FF97FFFFFFF70
7FF5EFFA1AFFD0
9FF4FFF303FFF3
BFD6FFF000FFF5
DF97FFD000EFF6
AD56FFD000DFF6
0005FFD000EFF5
0003FFE000EFF2
0000DFF102FFD0
00006FF505FF60
00001EF90AFD00
000BFFFD0EFFFA
000BFFFD0EFFFA
000BFFFD0EFFFA
ENDCHAR
STARTCHAR iotadieresistonos
ENCODING 912
SWIDTH 600 0
DWIDTH 14 0
BBX 12 20 1 0
BITMAP
00000AC80000
00000DF70000
00001FF20000
08E73FD2DD20
0EFC5F86FF50
08E76E32DD20
000000000000
000000000000
8FFFFFF70000
8FFFFFF70000
8FFFFFF60000
0001FFF50000
0001FFF50000
0001FFF40000
0001FFF40000
0001FFF50000
0000EFFB2031
0000BFFFFFF7
00004FFFFFFB
000004BEFEC6
ENDCHAR
STARTCHAR Alpha
ENCODING 913
SWIDTH 600 0
DWIDTH 14 0
BBX 15 16 0 0
BITMAP
00001FFFF7000000
00005FFFFC000000
0000AFFEFF100000
0000EFDAFF600000
0004FFA6FFA00000
0009FF62FFE00000
000DFF20DFF40000
003FFD009FF90000
007FF9005FFD0000
00CFFFFFFFFF3000
02FFFFFFFFFF8000
06FFFFFFFFFFC000
0BFFA00006FFF200
1FFF600002FFF600
5FFF300000EFFB00
9FFE000000AFFF10
ENDCHAR
STARTCHAR Beta
ENCODING 914
SWIDTH 600 0
DWIDTH 14 0
BBX 13 16 1 0
BITMAP
3FFFFFEDB71000
3FFFFFFFFFD100
3FFFFFFFFFF800
3FFF4014EFFB00
3FFF4000BFFA00
3FFF4015FFF400
3FFFFFFFFE6000
3FFFFFFFFA4000
3FFFFFFFFFF700
3FFF4002AFFF20
3FFF40001FFF60
3FFF40001FFF70
3FFF4003BFFF40
3FFFFFFFFFFD00
3FFFFFFFFFE300
3FFFFFFEC71000
ENDCHAR
STARTCHAR Gamma
ENCODING 915
SWIDTH 600 0
DWIDTH 14 0
BBX 11 16 2 0
BITMAP
6FFFFFFFFFD0
6FFFFFFFFFD0
6FFFFFFFFFD0
6FFF20000000
6FFF20000000
6FFF20000000
6FFF20000000
6FFF20000000
6FFF20000000
6FFF20000000
6FFF20000000
6FFF20000000
6FFF20000000
6FFF20000000
6FFF20000000
6FFF20000000
ENDCHAR
STARTCHAR uni0394
ENCODING 916
SWIDTH 600 0
DWIDTH 14 0
BBX 14 16 0 0
BITMAP
00001FFFF70000
00006FFFFC0000
0000AFFEFF2000
0001FFDAFF6000
0005FFA6FFB000
000AFF63FFF100
000EFF30EFF500
004FFE00AFFA00
009FFB006FFE00
00DFF7002FFF40
03FFF3000DFF90
08FFE00009FFE0
0DFFA00005FFF4
2FFFFFFFFFFFF8
4FFFFFFFFFFFFA
4FFFFFFFFFFFFA
ENDCHAR
STARTCHAR Epsilon
ENCODING 917
SWIDTH 600 0
DWIDTH 14 0
BBX 11 16 2 0
BITMAP
CFFFFFFFFF90
CFFFFFFFFF90
CFFFFFFFFF90
CFFC00000000
CFFC00000000
CFFC00000000
CFFFFFFFF800
CFFFFFFFF800
CFFFFFFFF800
CFFC00000000
CFFC00000000
CFFC00000000
CFFC00000000
CFFFFFFFFFC0
CFFFFFFFFFC0
CFFFFFFFFFC0
ENDCHAR
STARTCHAR Zeta
ENCODING 918
SWIDTH 600 0
DWIDTH 14 0
BBX 13 16 1 0
BITMAP
0EFFFFFFFFFF00
0EFFFFFFFFFF00
0EFFFFFFFFFC00
0000000AFFF300
0000005FFF7000
000001EFFC0000
00000BFFE20000
00006FFF700000
0002EFFB000000
000BFFE2000000
006FFF60000000
02EFFB00000000
0BFFE200000000
6FFFFFFFFFFF20
AFFFFFFFFFFF20
AFFFFFFFFFFF20
ENDCHAR
STARTCHAR Eta
ENCODING 919
SWIDTH 600 0
DWIDTH 14 0
BBX 12 16 1 0
BITMAP
7FFF1000AFFD
7FFF1000AFFD
7FFF1000AFFD
7FFF1000AFFD
7FFF1000AFFD
7FFF1000AFFD
7FFFFFFFFFFD
7FFFFFFFFFFD
7FFFFFFFFFFD
7FFF1000AFFD
7FFF1000AFFD
7FFF1000AFFD
7FFF1000AFFD
7FFF1000AFFD
7FFF1000AFFD
7FFF1000AFFD
ENDCHAR
STARTCHAR Theta
ENCODING 920
SWIDTH 600 0
DWIDTH 14 0
BBX 14 16 0 0
BITMAP
00006BEFD81000
000BFFFFFFE300
009FFFFFFFFE10
03FFFC218FFF90
09FFF3000CFFE0
0DFFC00006FFF3
0FFF97FFC4FFF6
1FFF87FFC2FFF7
1FFF97FFC3FFF7
0FFFA00004FFF6
0CFFD00007FFF3
08FFF3000CFFE0
02FFFD318FFF80
009FFFFFFFFE10
000AFFFFFFE300
00005BEFD81000
ENDCHAR
STARTCHAR Iota
ENCODING 921
SWIDTH 600 0
DWIDTH 14 0
BBX 12 16 1 0
BITMAP
3FFFFFFFFFF9
3FFFFFFFFFF9
3FFFFFFFFFF9
00009FFF0000
00009FFF0000
00009FFF0000
00009FFF0000
00009FFF0000
00009FFF0000
00009FFF0000
00009FFF0000
00009FFF0000
00009FFF0000
3FFFFFFFFFF9
3FFFFFFFFFF9
3FFFFFFFFFF9
ENDCHAR
STARTCHAR Kappa
ENCODING 922
SWIDTH 600 0
DWIDTH 14 0
BBX 14 16 1 0
BITMAP
6FFF30007FFF70
6FFF3003FFFB00
6FFF300CFFD100
6FFF309FFF4000
6FFF34FFF70000
6FFF4EFFB00000
6FFFDFFF400000
6FFFFFFFB00000
6FFFFFFFF40000
6FFFFCDFFC0000
6FFFE25FFF5000
6FFF500DFFD000
6FFF3006FFF600
6FFF3000DFFD00
6FFF30006FFF70
6FFF30000DFFE1
ENDCHAR
STARTCHAR Lambda
ENCODING 923
SWIDTH 600 0
DWIDTH 14 0
BBX 14 16 0 0
BITMAP
00001FFFF70000
00006FFFFB0000
0000AFFFFF1000
0000EFFDFF5000
0004FFC9FFA000
0008FF85FFE000
000DFF41FFF400
002FFF10DFF800
007FFC009FFC00
00BFF9005FFF20
01FFF5001FFF60
05FFF1000DFFB0
09FFC00009FFF1
0EFF900005FFF5
3FFF500001FFF9
7FFF100000CFFD
ENDCHAR
STARTCHAR Mu
ENCODING 924
SWIDTH 600 0
DWIDTH 14 0
BBX 12 16 1 0
BITMAP
9FFF3000CFFF
9FFF7001FFFF
9FFFC005FFFF
9FEFF10AFEFF
9FEDF50EFBFF
9FF9F93FDAFF
9FF6FC6F9BFF
9FF3FFBF5CFF
9FF3BFFF1DFF
9FF46FFB0EFF
9FF52FF60EFF
9FF509B10FFF
9FF500000FFF
9FF500000FFF
9FF500000FFF
9FF500000FFF
ENDCHAR
STARTCHAR Nu
ENCODING 925
SWIDTH 600 0
DWIDTH 14 0
BBX 12 16 1 0
BITMAP
6FFF60008FFC
6FFFC0008FFC
6FFFF4008FFC
6FFFFA008FFC
6FFEFF108FFC
6FFAFF708FFC
6FFAAFD08FFC
6FFC5FF57FFC
6FFD0DFB6FFC
6FFE07FF6FFC
6FFF01FF9FFC
6FFF00AFEFFC
6FFF004FFFFC
6FFF000DFFFC
6FFF0006FFFC
6FFF0001EFFC
ENDCHAR
STARTCHAR Xi
ENCODING 926
SWIDTH 600 0
DWIDTH 14 0
BBX 12 16 1 0
BITMAP
3FFFFFFFFFF9
3FFFFFFFFFF9
3FFFFFFFFFF9
000000000000
000000000000
000000000000
00CFFFFFFF30
00CFFFFFFF30
00CFFFFFFF30
000000000000
000000000000
000000000000
000000000000
6FFFFFFFFFFC
6FFFFFFFFFFC
6FFFFFFFFFFC
ENDCHAR
STARTCHAR Omicron
ENCODING 927
SWIDTH 600 0
DWIDTH 14 0
BBX 14 16 0 0
BITMAP
00006BEFD81000
001BFFFFFFE400
00AFFFFFFFFE20
03FFFC218FFF90
09FFF2000BFFE1
0DFFC00006FFF4
0FFF900003FFF6
1FFF800002FFF7
1FFF800002FFF7
0FFF900004FFF6
0DFFC00006FFF3
09FFF3000CFFE0
03FFFC218FFF90
009FFFFFFFFE10
001BFFFFFFE300
00006BEFD81000
ENDCHAR
STARTCHAR Pi
ENCODING 928
SWIDTH 600 0
DWIDTH 14 0
BBX 12 16 1 0
BITMAP
7FFFFFFFFFFD
7FFFFFFFFFFD
7FFFFFFFFFFD
7FFF1000AFFD
7FFF1000AFFD
7FFF1000AFFD
7FFF1000AFFD
7FFF1000AFFD
7FFF1000AFFD
7FFF1000AFFD
7FFF1000AFFD
7FFF1000AFFD
7FFF1000AFFD
7FFF1000AFFD
7FFF1000AFFD
7FFF1000AFFD
ENDCHAR
STARTCHAR Rho
ENCODING 929
SWIDTH 600 0
DWIDTH 14 0
BBX 13 16 1 0
BITMAP
3FFFFFFEB71000
3FFFFFFFFFD200
3FFFFFFFFFFC00
3FFF5013CFFF30
3FFF50002FFF60
3FFF50000FFF70
3FFF50003FFF50
3FFF5014DFFF10
3FFFFFFFFFF900
3FFFFFFFFFB100
3FFFFFFEB50000
3FFF5000000000
3FFF5000000000
3FFF5000000000
3FFF5000000000
3FFF5000000000
ENDCHAR
STARTCHAR Sigma
ENCODING 931
SWIDTH 600 0
DWIDTH 14 0
BBX 12 16 1 0
BITMAP
6FFFFFFFFFF5
6FFFFFFFFFF5
3EFFFFFFFFF5
05FFF6000000
007FFF400000
000AFFE20000
0000CFFC0000
00001DFF9000
00002EFF6000
0001DFF90000
000BFFC00000
009FFE200000
06FFF5000000
3FFFFFFFFFFE
7FFFFFFFFFFE
7FFFFFFFFFFE
ENDCHAR
STARTCHAR Tau
ENCODING 932
SWIDTH 600 0
DWIDTH 14 0
BBX 14 16 0 0
BITMAP
4FFFFFFFFFFFFA
4FFFFFFFFFFFFA
4FFFFFFFFFFFFA
000009FFF00000
000009FFF00000
000009FFF00000
000009FFF00000
000009FFF00000
000009FFF00000
000009FFF00000
000009FFF00000
000009FFF00000
000009FFF00000
000009FFF00000
000009FFF00000
000009FFF00000
ENDCHAR
STARTCHAR Upsilon
ENCODING 933
SWIDTH 600 0
DWIDTH 14 0
BBX 14 16 0 0
BITMAP
6FFF600000DFFC
0DFFC00005FFF5
06FFF3000BFFC0
01EFF9002FFF50
007FFE108FFD00
001EFF60DFF600
0008FFC5FFD000
0001EFFDFF7000
00009FFFFE1000
00002FFFF70000
00000AFFF10000
000009FFF00000
000009FFF00000
000009FFF00000
000009FFF00000
000009FFF00000
ENDCHAR
STARTCHAR Phi
ENCODING 934
SWIDTH 600 0
DWIDTH 14 0
BBX 14 16 0 0
BITMAP
000003FF900000
000003FF900000
0006BEFFFC8200
01CFFFFFFFFE40
0BFFFFFFFFFFE2
3FFFA5FF96EFF9
7FFC03FF907FFD
9FF803FF903FFF
9FF903FF903FFF
7FFD03FF907FFD
2FFFB5FFA7FFF8
0AFFFFFFFFFFE2
01BFFFFFFFFE40
0005BEFFFC8100
000003FF900000
000003FF900000
ENDCHAR
STARTCHAR Chi
ENCODING 935
SWIDTH 600 0
DWIDTH 14 0
BBX 14 16 0 0
BITMAP
1EFFD00005FFF6
07FFF6000CFFD0
01DFFD004FFF50
006FFF60AFFC00
000CFFD2FFF400
0004FFFCFFB000
0000BFFFFF3000
00003FFFFA0000
00006FFFFB0000
0001EFFFFF4000
0008FFCBFFD000
002EFF64FFF600
009FFE00CFFE10
03FFF7004FFF80
0BFFE1000BFFF2
4FFF700003FFFA
ENDCHAR
STARTCHAR Psi
ENCODING 936
SWIDTH 600 0
DWIDTH 14 0
BBX 14 16 0 0
BITMAP
8FFC04FFA06FFD
8FFC04FFA06FFD
8FFC04FFA06FFD
8FFC04FFA06FFD
8FFC04FFA06FFD
7FFC04FFA07FFD
6FFF14FFA0AFFC
2FFFA6FFB6FFF8
0BFFFFFFFFFFE2
01CFFFFFFFFF50
0007CEFFFD9200
000004FFA00000
000004FFA00000
000004FFA00000
000004FFA00000
000004FFA00000
ENDCHAR
STARTCHAR uni03A9
ENCODING 937
SWIDTH 600 0
DWIDTH 14 0
BBX 14 16 0 0
BITMAP
00006BEFD81000
001BFFFFFFE400
00AFFFFFFFFE20
04FFFC218FFFA0
0AFFF3000CFFF1
0EFFC00006FFF5
1FFFA00004FFF6
1FFF800002FFF7
0EFF900003FFF5
0BFFA00004FFF2
06FFD00007FFC0
00DFF4000DFF40
003FFB005FF900
4FFFFF20CFFFFA
4FFFFF30CFFFFA
4FFFFF30CFFFFA
ENDCHAR
STARTCHAR Iotadieresis
ENCODING 938
SWIDTH 600 0
DWIDTH 14 0
BBX 12 21 1 0
BITMAP
009E9004EC20
02FFF30CFF80
02FFF30CFF80
008E9004EC20
000000000000
3FFFFFFFFFF9
3FFFFFFFFFF9
3FFFFFFFFFF9
00009FFF0000
00009FFF0000
00009FFF0000
00009FFF0000
00009FFF0000
00009FFF0000
00009FFF0000
00009FFF0000
00009FFF0000
00009FFF0000
3FFFFFFFFFF9
3FFFFFFFFFF9
3FFFFFFFFFF9
ENDCHAR
STARTCHAR Upsilondieresis
ENCODING 939
SWIDTH 600 0
DWIDTH 14 0
BBX 14 21 0 0
BITMAP
0009E9004EC200
002FFF30CFF800
002FFF30CFF800
0008E9004EC200
00000000000000
6FFF600000DFFC
0DFFC00005FFF5
06FFF3000BFFC0
01EFF9002FFF50
007FFE108FFD00
001EFF60DFF600
0008FFC5FFD000
0001EFFDFF7000
00009FFFFE1000
00002FFFF70000
00000AFFF10000
000009FFF00000
000009FFF00000
000009FFF00000
000009FFF00000
000009FFF00000
ENDCHAR
STARTCHAR alphatonos
ENCODING 940
SWIDTH 600 0
DWIDTH 14 0
BBX 14 20 1 0
BITMAP
000000ACA60000
000000CFF80000
000000EFF40000
000001FFE00000
000003FFA00000
000005FF600000
000004CE100000
00000000000000
003AEEA23FFF30
05FFFFFD7FFE00
2EFFFFFFEFFB00
8FFF915FFFF800
CFFD0008FFF500
EFFA0004FFF200
EFFA0005FFE000
DFFD0007FFD000
AFFF715EFFE210
4FFFFFFFFFFFC0
09FFFFF9CFFFF0
006CFD702BEEC1
ENDCHAR
STARTCHAR epsilontonos
ENCODING 941
SWIDTH 600 0
DWIDTH 14 0
BBX 12 20 1 0
BITMAP
0000008DA700
000000BFFA00
000000DFF500
000000EFF100
000001FFB000
000003FF7000
000003BE2000
000000000000
0028CDEED930
03EFFFFFFFF8
0BFFFFFFFFF5
0AFFD31137B0
02DFFFFFB000
005DFFFFB000
0AFFFFFFB000
3FFF71001000
4FFF921127D2
1EFFFFFFFFFA
05EFFFFFFFFA
0028BDEFDA40
ENDCHAR
STARTCHAR etatonos
ENCODING 942
SWIDTH 600 0
DWIDTH 14 0
BBX 12 25 1 -5
BITMAP
000000CCA500
000000EFF600
000001FFF200
000003FFC000
000005FF8000
000007FF3000
000006CD0000
000000000000
6FFB03AEEB30
4FFD4EFFFFE1
3FFFEFFFFFF6
3FFFF912EFF9
3FFFC000AFFB
3FFF60009FFB
3FFF50009FFB
3FFF50009FFB
3FFF50009FFB
3FFF50009FFB
3FFF5000AFFB
3FFF5000AFFB
00000000BFFB
00000000BFFB
00000000BFFB
00000000CFFB
00000000CFFB
ENDCHAR
STARTCHAR iotatonos
ENCODING 943
SWIDTH 600 0
DWIDTH 14 0
BBX 12 20 1 0
BITMAP
00000CC95000
00000FFF6000
00002FFF1000
00003FFC0000
00005FF70000
00007FF30000
00006CD00000
000000000000
8FFFFFF70000
8FFFFFF70000
8FFFFFF60000
0001FFF50000
0001FFF50000
0001FFF40000
0001FFF40000
0001FFF50000
0000EFFB2031
0000BFFFFFF7
00004FFFFFFB
000004BEFEC6
ENDCHAR
STARTCHAR upsilondieresistonos
ENCODING 944
SWIDTH 600 0
DWIDTH 14 0
BBX 12 20 1 0
BITMAP
000006DB1000
000008FC0000
00000BF70000
04EB0DF3AE50
09FF3FD1FFA0
04EB2D70AE50
000000000000
000000000000
7FFE00027AD2
5FFF1003FFF5
4FFF2000FFF9
4FFF2000CFFB
4FFF1000BFFD
5FFF0000AFFD
5FFF0000BFFD
4FFF1000EFFA
2FFFA219FFF6
0BFFFFFFFFD1
02DFFFFFFE30
0018DEFD8200
ENDCHAR
STARTCHAR alpha
ENCODING 945
SWIDTH 600 0
DWIDTH 14 0
BBX 14 12 1 0
BITMAP
003AEEA23FFF30
05FFFFFD7FFE00
2EFFFFFFEFFB00
8FFF915FFFF800
CFFD0008FFF500
EFFA0004FFF200
EFFA0005FFE000
DFFD0007FFD000
AFFF715EFFE210
4FFFFFFFFFFFC0
09FFFFF9CFFFF0
006CFD702BEEC1
ENDCHAR
STARTCHAR beta
ENCODING 946
SWIDTH 600 0
DWIDTH 14 0
BBX 13 22 1 -5
BITMAP
0006CEEC810000
00BFFFFFFD2000
07FFFFFFFFB000
0EFFD21BFFF100
2FFF6004FFF200
4FFF3006FFE000
4FFF205EFF6000
4FFF16FFF70000
4FFF14FFFE8000
4FFF12FFFFF900
4FFF0012BFFF20
4FFF00002FFF50
4FFF20003FFF50
4FFFD402BFFF30
4FFFFFFFFFFC00
4FFFCFFFFFE300
4FFF27DFEA2000
4FFF2000000000
4FFF2000000000
4FFF3000000000
4FFF4000000000
4FFF4000000000
ENDCHAR
STARTCHAR gamma
ENCODING 947
SWIDTH 600 0
DWIDTH 14 0
BBX 14 18 0 -5
BITMAP
036A4000000000
3FFFC00002FFF5
09FFF50003FFF2
01EFFB0006FFD0
008FFF2009FF80
002FFF700DFF30
000AFFC04FFC00
0004FFF29FF500
0000DFF8FFC000
00009FFFFF3000
00004FFFF90000
00001FFFD10000
00000CFF900000
00000AFFA00000
000009FFB00000
000009FFC00000
00000AFFD00000
00000BFFD00000
ENDCHAR
STARTCHAR delta
ENCODING 948
SWIDTH 600 0
DWIDTH 14 0
BBX 13 17 1 0
BITMAP
0029DFFDB73000
02EFFFFFFFF800
08FFFFFFFFF400
07FFD1125AD100
02FFF600000000
006FFFB2000000
0005FFFF700000
004DFFFFFC2000
06FFFB7EFFD100
2FFF6002EFF900
9FFC00007FFE00
BFFA00005FFF10
AFFD00007FFF10
6FFF9215EFFC00
1DFFFFFFFFF500
02DFFFFFFF8000
0017CEFDA30000
ENDCHAR
STARTCHAR epsilon
ENCODING 949
SWIDTH 600 0
DWIDTH 14 0
BBX 12 12 1 0
BITMAP
0028CDEED930
03EFFFFFFFF8
0BFFFFFFFFF5
0AFFD31137B0
02DFFFFFB000
005DFFFFB000
0AFFFFFFB000
3FFF71001000
4FFF921127D2
1EFFFFFFFFFA
05EFFFFFFFFA
0028BDEFDA40
ENDCHAR
STARTCHAR zeta
ENCODING 950
SWIDTH 600 0
DWIDTH 14 0
BBX 11 22 2 -5
BITMAP
3FFFFFFFFFA0
3FFFFFFFFFA0
3FFFFFFFFFA0
132114CFFB30
00007FFE5000
0009FFD20000
009FFD200000
07FFF3000000
2FFF70000000
8FFE10000000
CFFB00000000
EFFB00000000
DFFE10000000
AFFFD6100000
3FFFFFFD8200
06FFFFFFFE30
0029DFFFFFA0
0000027DFFC0
00000005FFA0
00000008FF70
0000002FFF20
00000004A900
ENDCHAR
STARTCHAR eta
ENCODING 951
SWIDTH 600 0
DWIDTH 14 0
BBX 12 17 1 -5
BITMAP
6FFB03AEEB30
4FFD4EFFFFE1
3FFFEFFFFFF6
3FFFF912EFF9
3FFFC000AFFB
3FFF60009FFB
3FFF50009FFB
3FFF50009FFB
3FFF50009FFB
3FFF50009FFB
3FFF5000AFFB
3FFF5000AFFB
00000000BFFB
00000000BFFB
00000000BFFB
00000000CFFB
00000000CFFB
ENDCHAR
STARTCHAR theta
ENCODING 952
SWIDTH 600 0
DWIDTH 14 0
BBX 13 17 1 0
BITMAP
0004BEFC710000
008FFFFFFC1000
04FFFFFFFFA000
0CFFC217FFF300
3FFF3000CFF800
6FFE00008FFC00
9FFC00006FFE00
AFFFFFFFFFFF00
AFFFFFFFFFFF10
AFFFFFFFFFFF00
8FFC00006FFE00
6FFE00008FFC00
2FFF3000CFF800
0CFFC217FFF300
04FFFFFFFFA000
007FFFFFFC1000
0004BEFC700000
ENDCHAR
STARTCHAR iota
ENCODING 953
SWIDTH 600 0
DWIDTH 14 0
BBX 12 12 1 0
BITMAP
8FFFFFF70000
8FFFFFF70000
8FFFFFF60000
0001FFF50000
0001FFF50000
0001FFF40000
0001FFF40000
0001FFF50000
0000EFFB2031
0000BFFFFFF7
00004FFFFFFB
000004BEFEC6
ENDCHAR
STARTCHAR kappa
ENCODING 954
SWIDTH 600 0
DWIDTH 14 0
BBX 13 13 1 -1
BITMAP
3FFF500006B900
1FFF6002CFFB00
0FFF703EFFFD00
0EFF73EFFE7200
0EFF8DFFA10000
0EFFFFFF800000
0EFFFFFFE20000
0EFFF9EFFA0000
0EFFD06FFF5000
0EFF800CFFE200
0EFF6003FFFC00
0EFF50007FFFA0
00000000043210
ENDCHAR
STARTCHAR lambda
ENCODING 955
SWIDTH 600 0
DWIDTH 14 0
BBX 14 18 0 -1
BITMAP
07DFFC70000000
08FFFFFA000000
04FFFFFF600000
00313CFFE00000
000003FFF50000
000003FFFA0000
000009FFFF1000
00001EFFFF6000
00007FFFFFB000
0000DFF9FFF200
0005FFE1EFF700
000CFFA0AFFD00
003FFF505FFF30
00AFFE001FFF80
02FFF9000BFFE0
08FFF40007FFF4
1EFFD00002FFFA
01232000000000
ENDCHAR
STARTCHAR uni03BC
ENCODING 956
SWIDTH 600 0
DWIDTH 14 0
BBX 13 17 1 -5
BITMAP
7FFF1000FFF800
7FFF1000FFF800
7FFF1000FFF700
7FFF1000FFF700
7FFF1000FFF600
7FFF1000FFF600
7FFF1000FFF500
7FFF2004FFF500
7FFF813EFFF600
7FFFFFFFFFFF90
7FFFFFFE6FFFD0
7FFECFB209FFE0
7FFD0000000100
7FFD0000000000
7FFE0000000000
7FFF0000000000
7FFF1000000000
ENDCHAR
STARTCHAR nu
ENCODING 957
SWIDTH 600 0
DWIDTH 14 0
BBX 14 13 0 0
BITMAP
03695000000000
2FFFD00002FFF5
08FFF50004FFF1
01EFFB0007FFD0
007FFF300AFF90
001EFF800EFF40
0008FFD04FFE00
0003FFF2AFF800
0000CFF7FFE100
00007FFEFF9000
00003FFFFE2000
00000FFFF70000
00000CFFD10000
ENDCHAR
STARTCHAR xi
ENCODING 958
SWIDTH 600 0
DWIDTH 14 0
BBX 12 22 1 -5
BITMAP
9FFFFFFFFFFA
9FFFFFFFFFFA
9FFFFFFFFFFA
225FFE610000
00CFFB000000
00AFFF610110
001BFFFFFF50
0003CFFFFF50
005FFFFFFF50
03FFFC410110
0AFFE1000000
0EFFA0000000
0EFFD1000000
0BFFFD620000
05FFFFFFEA30
007FFFFFFFF4
00028DFFFFFB
00000026DFFC
000000005FFB
000000008FF7
00000002FFF2
000000004A90
ENDCHAR
STARTCHAR omicron
ENCODING 959
SWIDTH 600 0
DWIDTH 14 0
BBX 13 12 1 0
BITMAP
0006BEFD820000
01BFFFFFFE4000
0BFFFFFFFFE200
4FFFB217FFFA00
9FFF2000BFFE00
BFFE00008FFF20
BFFE00008FFF20
9FFF2000BFFE00
4FFFB216FFFA00
0BFFFFFFFFE200
01CFFFFFFE4000
0006BEFD820000
ENDCHAR
STARTCHAR pi
ENCODING 960
SWIDTH 600 0
DWIDTH 14 0
BBX 15 13 0 -1
BITMAP
AEFFFFFFFFFFFF20
CFFFFFFFFFFFFF20
CFFFFFFFFFFFFF20
006FFD003FFF2000
007FFD003FFF2000
007FFD004FFF1000
008FFC004FFF1000
009FFC004FFF0000
00AFFB004FFF3000
00BFFA002FFFFB00
00DFF9000BFFFE00
00EFF90001AEFC00
0001220000000000
ENDCHAR
STARTCHAR rho
ENCODING 961
SWIDTH 600 0
DWIDTH 14 0
BBX 13 17 1 -5
BITMAP
0003ADFEB50000
007FFFFFFFA000
04FFFFFFFFF700
0BFFD415EFFE00
1FFF50009FFF20
3FFF10006FFF40
4FFF10007FFF30
4FFF1000AFFF10
4FFFB316FFFC00
4FFFFFFFFFF400
4FFFEFFFFF8000
4FFF4AEEC50000
4FFF2000000000
4FFF2000000000
4FFF3000000000
4FFF4000000000
4FFF4000000000
ENDCHAR
STARTCHAR uni03C2
ENCODING 962
SWIDTH 600 0
DWIDTH 14 0
BBX 12 17 1 -5
BITMAP
00006BEFEB50
003DFFFFFFF9
02EFFFFFFFF5
0AFFFB412680
1FFFC0000000
3FFF70000000
3FFF70000000
1FFFC0000000
0BFFFC510000
03EFFFFFC600
004EFFFFFFC1
00016BFFFFF5
00000017EFF8
000000009FF7
00000000CFF3
00000006FFC0
000000027C50
ENDCHAR
STARTCHAR sigma
ENCODING 963
SWIDTH 600 0
DWIDTH 14 0
BBX 13 12 1 0
BITMAP
0017CEFFFFFFC0
02DFFFFFFFFFC0
0DFFFFFFFDCEC0
6FFF913DFE3000
BFFE0006FFD000
DFFC0002FFF300
DFFC0001FFF400
BFFE1004FFF400
7FFF912CFFF100
1DFFFFFFFF9000
03EFFFFFFB1000
0018DFEC600000
ENDCHAR
STARTCHAR tau
ENCODING 964
SWIDTH 600 0
DWIDTH 14 0
BBX 13 12 1 0
BITMAP
BEFFFFFFFFFF30
CFFFFFFFFFFF30
CFFFFFFFFFFF30
00009FFD000000
00009FFC000000
00009FFC000000
00009FFC000000
00009FFC000000
00008FFE202000
00005FFFFFD000
00000DFFFFF100
000002AEFDA100
ENDCHAR
STARTCHAR upsilon
ENCODING 965
SWIDTH 600 0
DWIDTH 14 0
BBX 12 12 1 0
BITMAP
7FFE00027AD2
5FFF1003FFF5
4FFF2000FFF9
4FFF2000CFFB
4FFF1000BFFD
5FFF0000AFFD
5FFF0000BFFD
4FFF1000EFFA
2FFFA219FFF6
0BFFFFFFFFD1
02DFFFFFFE30
0018DEFD8200
ENDCHAR
STARTCHAR phi
ENCODING 966
SWIDTH 600 0
DWIDTH 14 0
BBX 14 20 0 -5
BITMAP
000004FFA00000
000004FFA00000
000004FFA00000
0005BEFFFD8100
00AFFFFFFFFD20
07FFFFFFFFFFC0
0EFF95FFB5EFF5
4FFE14FFA09FF9
6FFB04FFA05FFB
6FFB04FFA05FFB
4FFE04FFA08FF9
0EFF95FFB5EFF5
07FFFFFFFFFFC0
00AFFFFFFFFD20
0005BEFFFD8100
000004FFA00000
000004FFA00000
000004FFA00000
000004FFA00000
000004FFA00000
ENDCHAR
STARTCHAR chi
ENCODING 967
SWIDTH 600 0
DWIDTH 14 0
BBX 13 19 1 -6
BITMAP
12320000000000
BFFD1000AFFE10
3FFF8002FFF700
09FFF30AFFE100
01EFFC3FFF6000
006FFFDFFD0000
000DFFFFF60000
0004FFFFD00000
0000BFFF500000
0000AFFF600000
0002FFFFD00000
000AFFFFF70000
003FFFFFFE1000
00AFFF7FFF8000
03FFF90BFFE100
0BFFE103FFF900
3FFF80009FFF20
BFFE10001EFFA0
12330000033210
ENDCHAR
STARTCHAR psi
ENCODING 968
SWIDTH 600 0
DWIDTH 14 0
BBX 14 20 0 -5
BITMAP
000004FFA00000
000004FFA00000
000004FFA00000
7FFB04FFA07AD3
6FFD04FFA0DFF7
5FFD04FFA09FFA
4FFD04FFA07FFC
4FFD04FFA06FFD
4FFD04FFA05FFE
4FFD04FFA05FFD
2FFE04FFA08FFB
1FFF85FFB4EFF8
0AFFFFFFFFFFF2
02DFFFFFFFFF60
0018DFFFFEA400
000004FFA00000
000004FFA00000
000004FFA00000
000004FFA00000
000004FFA00000
ENDCHAR
STARTCHAR omega
ENCODING 969
SWIDTH 600 0
DWIDTH 14 0
BBX 14 12 0 0
BITMAP
00C93000027C60
06FFF5000CFFD0
0CFFC00004FFF5
2FFF526630DFF9
5FFF03FF80AFFC
6FFC02FF608FFD
7FFC01FF509FFD
5FFD02FF60AFFB
3FFF37FFA2EFF9
0DFFFFFFFFFFF4
04FFFFEAFFFFA0
004CFD31AEE910
ENDCHAR
STARTCHAR iotadieresis
ENCODING 970
SWIDTH 600 0
DWIDTH 14 0
BBX 12 18 1 0
BITMAP
04DE401BE800
0CFFD07FFF30
0CFFD07FFF30
04DE401BE800
000000000000
000000000000
8FFFFFF70000
8FFFFFF70000
8FFFFFF60000
0001FFF50000
0001FFF50000
0001FFF40000
0001FFF40000
0001FFF50000
0000EFFB2031
0000BFFFFFF7
00004FFFFFFB
000004BEFEC6
ENDCHAR
STARTCHAR upsilondieresis
ENCODING 971
SWIDTH 600 0
DWIDTH 14 0
BBX 12 18 1 0
BITMAP
01BE8008EC10
07FFF32FFF80
07FFF32FFF80
01BE8008EC10
000000000000
000000000000
7FFE00027AD2
5FFF1003FFF5
4FFF2000FFF9
4FFF2000CFFB
4FFF1000BFFD
5FFF0000AFFD
5FFF0000BFFD
4FFF1000EFFA
2FFFA219FFF6
0BFFFFFFFFD1
02DFFFFFFE30
0018DEFD8200
ENDCHAR
STARTCHAR omicrontonos
ENCODING 972
SWIDTH 600 0
DWIDTH 14 0
BBX 13 20 1 0
BITMAP
000005DB810000
000007FFD00000
000009FF900000
00000BFF400000
00000DFE000000
00000FFA000000
00001BD6000000
00000000000000
0006BEFD820000
01BFFFFFFE4000
0BFFFFFFFFE200
4FFFB217FFFA00
9FFF2000BFFE00
BFFE00008FFF20
BFFE00008FFF20
9FFF2000BFFE00
4FFFB216FFFA00
0BFFFFFFFFE200
01CFFFFFFE4000
0006BEFD820000
ENDCHAR
STARTCHAR upsilontonos
ENCODING 973
SWIDTH 600 0
DWIDTH 14 0
BBX 12 20 1 0
BITMAP
000008DA7000
00000AFFB000
00000CFF6000
00000EFF2000
00000FFC0000
00002FF80000
00002BE30000
000000000000
7FFE00027AD2
5FFF1003FFF5
4FFF2000FFF9
4FFF2000CFFB
4FFF1000BFFD
5FFF0000AFFD
5FFF0000BFFD
4FFF1000EFFA
2FFFA219FFF6
0BFFFFFFFFD1
02DFFFFFFE30
0018DEFD8200
ENDCHAR
STARTCHAR omegatonos
ENCODING 974
SWIDTH 600 0
DWIDTH 14 0
BBX 14 20 0 0
BITMAP
0000005DB81000
0000007FFD0000
0000009FF90000
000000BFF40000
000000DFE00000
000000FFA00000
000001BD600000
00000000000000
00C93000027C60
06FFF5000CFFD0
0CFFC00004FFF5
2FFF526630DFF9
5FFF03FF80AFFC
6FFC02FF608FFD
7FFC01FF509FFD
5FFD02FF60AFFB
3FFF37FFA2EFF9
0DFFFFFFFFFFF4
04FFFFEAFFFFA0
004CFD31AEE910
ENDCHAR
STARTCHAR uni03D0
ENCODING 976
SWIDTH 600 0
DWIDTH 14 0
BBX 13 17 1 0
BITMAP
0007CEFC810000
01CFFFFFFD2000
08FFFFFFFFA000
0EFFD22BFFF100
3FFF7005FFF200
4FFF3005FFF000
4FFF200AFFA000
4FFF24BFFC1000
4FFFFFFFF93000
4FFFFFFFFFF400
4FFF7312BFFD10
3FFF10002FFF40
2FFF50002FFF50
0DFFE412BFFF30
05FFFFFFFFFC00
007FFFFFFFE300
00039DFEC81000
ENDCHAR
STARTCHAR uni03D1
ENCODING 977
SWIDTH 600 0
DWIDTH 14 0
BBX 13 17 1 0
BITMAP
0029DFEA400000
05FFFFFFF90000
2FFFFFFFFF8000
7FFE4129FFF200
9FFA0000CFF700
7FFE61007FFB00
1EFFFFEEFFFE00
04EFFFFFFFFF00
0028DFFFFFFF10
022200216FFF00
3FFF30006FFE00
1FFF40009FFC00
1FFF6000DFF900
0EFFC217FFF400
09FFFFFFFFC000
01DFFFFFFD2000
0018CEFD810000
ENDCHAR
STARTCHAR uni03D5
ENCODING 981
SWIDTH 600 0
DWIDTH 14 0
BBX 14 20 0 -5
BITMAP
000004FFA00000
000004FFA00000
000004FFA00000
0005BEFFFD8100
00AFFFFFFFFD20
07FFFFFFFFFFC0
0EFF95FFB5EFF5
4FFE14FFA09FF9
6FFB04FFA05FFB
6FFB04FFA05FFB
4FFE04FFA08FF9
0EFF95FFB5EFF5
07FFFFFFFFFFC0
00AFFFFFFFFD20
0005BEFFFD8100
000004FFA00000
000004FFA00000
000004FFA00000
000004FFA00000
000004FFA00000
ENDCHAR
STARTCHAR uni03D7
ENCODING 983
SWIDTH 600 0
DWIDTH 14 0
BBX 13 16 1 -4
BITMAP
3FFF500006B900
1FFF6002CFFB00
0FFF703EFFFD00
0EFF73EFFE7200
0EFF8DFFA10000
0EFFFFFF800000
0EFFFFFFF20000
0EFFF9DFFB0000
0EFFD06FFF6000
0EFF800BFFF300
0EFF6002EFFD10
0EFF50005FFFC0
000000005FFF80
00000003EFFC00
0000002DFFE200
000000ADEF5000
ENDCHAR
STARTCHAR uni03D9
ENCODING 985
SWIDTH 600 0
DWIDTH 14 0
BBX 13 17 1 -5
BITMAP
0006BEFD820000
01CFFFFFFE4000
0BFFFFFFFFE300
5FFFA216FFFA00
AFFE10009FFF10
CFFC00006FFF30
CFFC00006FFF30
AFFE1000AFFF10
6FFFA216FFFB00
0DFFFFFFFFF400
02DFFFFFFF6000
0019EFFFC40000
00007FFE000000
00007FFF000000
00007FFF000000
00007FFF100000
00007FFF200000
ENDCHAR
STARTCHAR uni03DB
ENCODING 987
SWIDTH 600 0
DWIDTH 14 0
BBX 12 17 1 -5
BITMAP
00017BEFFFFB
004EFFFFFFFB
02EFFFFFFFFB
0AFFFA310000
1FFFC0000000
2FFF80000000
3FFF70000000
1FFFC0000000
0BFFFD610000
02EFFFFFC600
003DFFFFFFC1
00006BFFFFF5
00000017FFF8
000000009FF7
00000000BFF3
00000005FFC0
000000017C50
ENDCHAR
STARTCHAR uni03DD
ENCODING 989
SWIDTH 600 0
DWIDTH 14 0
BBX 11 17 2 -5
BITMAP
3FFFFFFFFFA0
3FFFFFFFFFA0
3FFFFFFFFFA0
3FFF10000000
3FFF10000000
3FFF10000000
3FFFFFFFFF10
3FFFFFFFFF10
3FFFBAAAAA10
3FFF20000000
3FFF20000000
3FFF30000000
3FFF30000000
3FFF30000000
3FFF40000000
3FFF40000000
3FFF50000000
ENDCHAR
STARTCHAR uni03E1
ENCODING 993
SWIDTH 600 0
DWIDTH 14 0
BBX 13 22 1 -5
BITMAP
00088000000000
006FFB10000000
02FFFFC1000000
004EFFFB000000
0002DFFF800000
00002EFFF40000
000004FFFC0000
00017EFFFF5000
039FFFFFFFC000
AFFFFFDBFFF200
8FFFD502FFF700
1ED50001DFFB00
0300028EFFFE00
0003AFFFFFFF10
008FFFFFEFFF30
004FFFC53FFF40
000CD5003FFF40
000200004FFF40
000000005FFF30
000000007FFF10
000000007DFE00
00000000000100
ENDCHAR
STARTCHAR uni0400
ENCODING 1024
SWIDTH 600 0
DWIDTH 14 0
BBX 11 21 2 0
BITMAP
0005A1000000
003EFC200000
005EFFE40000
0001AFFD0000
000004C20000
CFFFFFFFFF90
CFFFFFFFFF90
CFFFFFFFFF90
CFFC00000000
CFFC00000000
CFFC00000000
CFFFFFFFF800
CFFFFFFFF800
CFFFFFFFF800
CFFC00000000
CFFC00000000
CFFC00000000
CFFC00000000
CFFFFFFFFFC0
CFFFFFFFFFC0
CFFFFFFFFFC0
ENDCHAR
STARTCHAR uni0401
ENCODING 1025
SWIDTH 600 0
DWIDTH 14 0
BBX 11 21 2 0
BITMAP
02DE400AE800
09FFC04FFF10
09FFB04FFF10
02DD400AE700
000000000000
CFFFFFFFFF90
CFFFFFFFFF90
CFFFFFFFFF90
CFFC00000000
CFFC00000000
CFFC00000000
CFFFFFFFF800
CFFFFFFFF800
CFFFFFFFF800
CFFC00000000
CFFC00000000
CFFC00000000
CFFC00000000
CFFFFFFFFFC0
CFFFFFFFFFC0
CFFFFFFFFFC0
ENDCHAR
STARTCHAR uni0402
ENCODING 1026
SWIDTH 600 0
DWIDTH 14 0
BBX 14 16 0 0
BITMAP
7FFFFFFFFFF400
7FFFFFFFFFF400
7FFFFFFFFFF400
0003FFF5000000
0003FFF5000000
0003FFF5000000
0003FFFDEEC500
0003FFFFFFFF70
0003FFFFFFFFF2
0003FFF605FFF7
0003FFF500BFFA
0003FFF500AFFA
0003FFF501DFF9
0003FFF54FFFF5
0003FFF57FFFD1
0003FFF58FEB20
ENDCHAR
STARTCHAR uni0403
ENCODING 1027
SWIDTH 600 0
DWIDTH 14 0
BBX 11 21 2 0
BITMAP
000001A40000
00003DFE3000
0005EFFE5000
001EFF910000
0003C4000000
6FFFFFFFFFD0
6FFFFFFFFFD0
6FFFFFFFFFD0
6FFF20000000
6FFF20000000
6FFF20000000
6FFF20000000
6FFF20000000
6FFF20000000
6FFF20000000
6FFF20000000
6FFF20000000
6FFF20000000
6FFF20000000
6FFF20000000
6FFF20000000
ENDCHAR
STARTCHAR uni0404
ENCODING 1028
SWIDTH 600 0
DWIDTH 14 0
BBX 13 16 1 0
BITMAP
00005ADFEB5000
001CFFFFFFFB10
01DFFFFFFFFE20
09FFFA3128E300
1FFFA000001000
5FFF2000000000
8FFFFFFFF50000
AFFFFFFFF50000
AFFFFFFFF50000
9FFE0000000000
6FFF3000000000
2FFFA000003000
0BFFFA3117F900
02EFFFFFFFFF60
003DFFFFFFFB10
00016BEFEB5000
ENDCHAR
STARTCHAR uni0405
ENCODING 1029
SWIDTH 600 0
DWIDTH 14 0
BBX 13 16 1 0
BITMAP
0005BEFEB60000
00AFFFFFFFD300
08FFFFFFFFF600
1EFFC2026D9000
2FFF7000010000
1FFFE600000000
0AFFFFE8200000
01CFFFFFFA2000
0017EFFFFFE300
000006CFFFFC00
00000004EFFF20
016000007FFF30
0BFC5102CFFE10
8FFFFFFFFFF800
1AFFFFFFFFA000
0039CEFDA40000
ENDCHAR
STARTCHAR uni0406
ENCODING 1030
SWIDTH 600 0
DWIDTH 14 0
BBX 12 16 1 0
BITMAP
3FFFFFFFFFF9
3FFFFFFFFFF9
3FFFFFFFFFF9
00009FFF0000
00009FFF0000
00009FFF0000
00009FFF0000
00009FFF0000
00009FFF0000
00009FFF0000
00009FFF0000
00009FFF0000
00009FFF0000
3FFFFFFFFFF9
3FFFFFFFFFF9
3FFFFFFFFFF9
ENDCHAR
STARTCHAR uni0407
ENCODING 1031
SWIDTH 600 0
DWIDTH 14 0
BBX 12 21 1 0
BITMAP
009E9004EC20
02FFF30CFF80
02FFF30CFF80
008E9004EC20
000000000000
3FFFFFFFFFF9
3FFFFFFFFFF9
3FFFFFFFFFF9
00009FFF0000
00009FFF0000
00009FFF0000
00009FFF0000
00009FFF0000
00009FFF0000
00009FFF0000
00009FFF0000
00009FFF0000
00009FFF0000
3FFFFFFFFFF9
3FFFFFFFFFF9
3FFFFFFFFFF9
ENDCHAR
STARTCHAR uni0408
ENCODING 1032
SWIDTH 600 0
DWIDTH 14 0
BBX 12 16 1 0
BITMAP
04FFFFFFFFF6
04FFFFFFFFF6
04FFFFFFFFF6
00000002FFF6
00000002FFF6
00000002FFF6
00000002FFF6
00000002FFF6
00000002FFF6
00000002FFF6
00000002FFF6
00700005FFF4
0AFB303CFFF1
5FFFFFFFFFA0
08FFFFFFFC10
003ADFEC6000
ENDCHAR
STARTCHAR uni0409
ENCODING 1033
SWIDTH 600 0
DWIDTH 14 0
BBX 15 16 -1 0
BITMAP
000CFFFFFF200000
000CFFFFFF200000
000DFFFFFF200000
000DFE0CFF200000
000EFD0CFF200000
000FFD0CFF200000
001FFC0CFFFD9100
003FFB0CFFFFFD10
004FF90CFFFFFF80
005FF80CFF36FFC0
007FF70CFF20EFE0
009FF50CFF20EFD0
00DFF20CFF37FFB0
0DFFE00CFFFFFF60
1FFF800CFFFFFC00
4FEA000CFFFD8100
ENDCHAR
STARTCHAR uni040A
ENCODING 1034
SWIDTH 600 0
DWIDTH 14 0
BBX 14 16 0 0
BITMAP
4FFD01FFF10000
4FFD01FFF10000
4FFD01FFF10000
4FFD01FFF10000
4FFD01FFF10000
4FFD01FFF10000
4FFFFFFFFFD910
4FFFFFFFFFFFD1
4FFFFFFFFFFFF8
4FFFFFFFF18FFC
4FFD01FFF12FFE
4FFD01FFF12FFD
4FFD01FFF18FFB
4FFD01FFFFFFF7
4FFD01FFFFFFD1
4FFD01FFFFD910
ENDCHAR
STARTCHAR uni040B
ENCODING 1035
SWIDTH 600 0
DWIDTH 14 0
BBX 14 16 0 0
BITMAP
8FFFFFFFFFF300
8FFFFFFFFFF300
8FFFFFFFFFF300
0003FFF5000000
0003FFF5000000
0003FFF5000000
0003FFFDEFC700
0003FFFFFFFFB0
0003FFFFFFFFF4
0003FFF605FFF8
0003FFF500DFF9
0003FFF500CFF9
0003FFF500CFF9
0003FFF500CFF9
0003FFF500CFF9
0003FFF500CFF9
ENDCHAR
STARTCHAR uni040C
ENCODING 1036
SWIDTH 600 0
DWIDTH 14 0
BBX 14 21 1 0
BITMAP
00000004B10000
0000006FFB0000
000009FFFB1000
00005FFE600000
000008A1000000
5FFF300018DFA0
5FFF3000CFFF80
5FFF3007FFFF50
5FFF301EFF7000
5FFF309FFB0000
5FFF32FFF40000
5FFFFFFFB00000
5FFFFFFF900000
5FFFFFFFF20000
5FFF32FFFA0000
5FFF308FFF3000
5FFF301EFFB000
5FFF3007FFF500
5FFF3000DFFD00
5FFF30005FFF60
5FFF30000CFFE1
ENDCHAR
STARTCHAR uni040D
ENCODING 1037
SWIDTH 600 0
DWIDTH 14 0
BBX 12 21 1 0
BITMAP
0000B5000000
0009FF800000
001AFFFB1000
00005DFF7000
000001990000
7FFB0001EFFD
7FFB0007FFFD
7FFB000DFFFD
7FFB005FFFFD
7FFB00CFFEFD
7FFB03FFAFFD
7FFA0AFF6FFD
7FF92FFE3FFD
7FF98FF83FFD
7FF7DFF14FFD
7FFAFF905FFD
7FFEFF305FFD
7FFFFB005FFD
7FFFF4005FFD
7FFFC0005FFD
7FFF60005FFD
ENDCHAR
STARTCHAR uni040E
ENCODING 1038
SWIDTH 600 0
DWIDTH 14 0
BBX 14 21 0 0
BITMAP
00001200121000
000CFF619FF800
0006FFFFFFF300
00006CEFEB4000
00000000000000
3FFF700000BFFC
0CFFD00002FFF6
05FFF40007FFE1
00DFFA000DFF90
006FFF203FFF30
000EFF708FFC00
0007FFC0DFF600
0001EFF5FFE100
00008FFEFF9000
00002FFFFF3000
00000AFFFC0000
000004FFF60000
00011AFFE10000
003FFFFF700000
006FFFFA000000
007EFD70000000
ENDCHAR
STARTCHAR uni040F
ENCODING 1039
SWIDTH 600 0
DWIDTH 14 0
BBX 12 21 1 -5
BITMAP
7FFF1000AFFD
7FFF1000AFFD
7FFF1000AFFD
7FFF1000AFFD
7FFF1000AFFD
7FFF1000AFFD
7FFF1000AFFD
7FFF1000AFFD
7FFF1000AFFD
7FFF1000AFFD
7FFF1000AFFD
7FFF1000AFFD
7FFF1000AFFD
7FFFFFFFFFFD
7FFFFFFFFFFD
7FFFFFFFFFFD
00004FFE0000
00004FFD0000
00004FFC0000
00004FFC0000
00004FFB0000
ENDCHAR
STARTCHAR uni0410
ENCODING 1040
SWIDTH 600 0
DWIDTH 14 0
BBX 15 16 0 0
BITMAP
00001FFFF7000000
00005FFFFC000000
0000AFFEFF100000
0000EFDAFF600000
0004FFA6FFA00000
0009FF62FFE00000
000DFF20DFF40000
003FFD009FF90000
007FF9005FFD0000
00CFFFFFFFFF3000
02FFFFFFFFFF8000
06FFFFFFFFFFC000
0BFFA00006FFF200
1FFF600002FFF600
5FFF300000EFFB00
9FFE000000AFFF10
ENDCHAR
STARTCHAR uni0411
ENCODING 1041
SWIDTH 600 0
DWIDTH 14 0
BBX 13 16 1 0
BITMAP
3FFFFFFFFFF700
3FFFFFFFFFF700
3FFFFFFFFFF700
3FFF4000000000
3FFF4000000000
3FFF4000000000
3FFFFFFDC82000
3FFFFFFFFFE400
3FFFFFFFFFFE10
3FFF4002AFFF50
3FFF40001FFF70
3FFF40001FFF60
3FFF4003AFFF40
3FFFFFFFFFFC00
3FFFFFFFFFE300
3FFFFFFEC71000
ENDCHAR
STARTCHAR uni0412
ENCODING 1042
SWIDTH 600 0
DWIDTH 14 0
BBX 13 16 1 0
BITMAP
3FFFFFEDB71000
3FFFFFFFFFD100
3FFFFFFFFFF800
3FFF4014EFFB00
3FFF4000BFFA00
3FFF4015FFF400
3FFFFFFFFE6000
3FFFFFFFFA4000
3FFFFFFFFFF700
3FFF4002AFFF20
3FFF40001FFF60
3FFF40001FFF70
3FFF4003BFFF40
3FFFFFFFFFFD00
3FFFFFFFFFE300
3FFFFFFEC71000
ENDCHAR
STARTCHAR uni0413
ENCODING 1043
SWIDTH 600 0
DWIDTH 14 0
BBX 11 16 2 0
BITMAP
6FFFFFFFFFD0
6FFFFFFFFFD0
6FFFFFFFFFD0
6FFF20000000
6FFF20000000
6FFF20000000
6FFF20000000
6FFF20000000
6FFF20000000
6FFF20000000
6FFF20000000
6FFF20000000
6FFF20000000
6FFF20000000
6FFF20000000
6FFF20000000
ENDCHAR
STARTCHAR uni0414
ENCODING 1044
SWIDTH 600 0
DWIDTH 14 0
BBX 15 21 0 -5
BITMAP
0002FFFFFFFF3000
0004FFFFFFFF3000
0006FFFFFFFF3000
0008FF905FFF3000
000BFF605FFF3000
000DFF405FFF3000
001FFF205FFF3000
003FFF005FFF3000
006FFD005FFF3000
009FFA005FFF3000
00CFF6005FFF3000
02FFF2005FFF3000
09FFB0005FFF3000
BFFFFFFFFFFFFF20
BFFFFFFFFFFFFF20
BFFFFFFFFFFFFF10
AFFB0000005FFF10
9FFB0000005FFF00
8FFB0000005FFE00
8FFB0000005FFE00
7FFB0000005FFD00
ENDCHAR
STARTCHAR uni0415
ENCODING 1045
SWIDTH 600 0
DWIDTH 14 0
BBX 11 16 2 0
BITMAP
CFFFFFFFFF90
CFFFFFFFFF90
CFFFFFFFFF90
CFFC00000000
CFFC00000000
CFFC00000000
CFFFFFFFF800
CFFFFFFFF800
CFFFFFFFF800
CFFC00000000
CFFC00000000
CFFC00000000
CFFC00000000
CFFFFFFFFFC0
CFFFFFFFFFC0
CFFFFFFFFFC0
ENDCHAR
STARTCHAR uni0416
ENCODING 1046
SWIDTH 600 0
DWIDTH 14 0
BBX 15 16 0 0
BITMAP
CEB204FFA008EE40
BFFC04FFA07FFF20
8FFF44FFA0DFFE00
03FF84FFA2FF9100
00CFC4FFA6FF3000
009FF4FFAAFF0000
006FFFFFFFFC0000
005FFFFFFFFB0000
00AFFFFFFFFF1000
00EFB4FFA5FF5000
04FF84FFA2FFA000
09FF54FFA0EFE000
0DFF14FFA0AFF400
3FFD04FFA07FF900
8FF904FFA03FFE00
CFF604FFA00FFF30
ENDCHAR
STARTCHAR uni0417
ENCODING 1047
SWIDTH 600 0
DWIDTH 14 0
BBX 13 16 1 0
BITMAP
0039DEFDA40000
1AFFFFFFFF8000
1DFFFFFFFFF400
03F93017FFF800
00100000EFF800
00000017FFF400
0003FFFFFF9000
0003FFFFFD4000
0003FFFFFFF600
00000013CFFE10
000000003FFF40
033000004FFF40
1DF93114DFFF20
9FFFFFFFFFFA00
2CFFFFFFFFB100
005ADEFDA50000
ENDCHAR
STARTCHAR uni0418
ENCODING 1048
SWIDTH 600 0
DWIDTH 14 0
BBX 12 16 1 0
BITMAP
7FFB0001EFFD
7FFB0007FFFD
7FFB000DFFFD
7FFB005FFFFD
7FFB00CFFEFD
7FFB03FFAFFD
7FFA0AFF6FFD
7FF92FFE3FFD
7FF98FF83FFD
7FF7DFF14FFD
7FFAFF905FFD
7FFEFF305FFD
7FFFFB005FFD
7FFFF4005FFD
7FFFC0005FFD
7FFF60005FFD
ENDCHAR
STARTCHAR uni0419
ENCODING 1049
SWIDTH 600 0
DWIDTH 14 0
BBX 12 21 1 0
BITMAP
000120012100
00DFF41AFF70
007FFFFFFE20
0007CEFEA300
000000000000
7FFB0001EFFD
7FFB0007FFFD
7FFB000DFFFD
7FFB005FFFFD
7FFB00CFFEFD
7FFB03FFAFFD
7FFA0AFF6FFD
7FF92FFE3FFD
7FF98FF83FFD
7FF7DFF14FFD
7FFAFF905FFD
7FFEFF305FFD
7FFFFB005FFD
7FFFF4005FFD
7FFFC0005FFD
7FFF60005FFD
ENDCHAR
STARTCHAR uni041A
ENCODING 1050
SWIDTH 600 0
DWIDTH 14 0
BBX 14 16 1 0
BITMAP
5FFF300018DFA0
5FFF3000CFFF80
5FFF3007FFFF50
5FFF301EFF7000
5FFF309FFB0000
5FFF32FFF40000
5FFFFFFFB00000
5FFFFFFF900000
5FFFFFFFF20000
5FFF32FFFA0000
5FFF308FFF3000
5FFF301EFFB000
5FFF3007FFF500
5FFF3000DFFD00
5FFF30005FFF60
5FFF30000CFFE1
ENDCHAR
STARTCHAR uni041B
ENCODING 1051
SWIDTH 600 0
DWIDTH 14 0
BBX 14 16 -1 0
BITMAP
000008FFFFFFFD
00000BFFFFFFFD
00000EFFFFFFFD
00001FFF30AFFD
00003FFF00AFFD
00006FFD00AFFD
00009FFA00AFFD
0000BFF800AFFD
0000EFF500AFFD
0002FFF200AFFD
0006FFE000AFFD
000AFFA000AFFD
002EFF6000AFFD
09FFFE1000AFFD
0DFFF70000AFFD
1EFE800000AFFD
ENDCHAR
STARTCHAR uni041C
ENCODING 1052
SWIDTH 600 0
DWIDTH 14 0
BBX 12 16 1 0
BITMAP
9FFF3000CFFF
9FFF7001FFFF
9FFFC005FFFF
9FEFF10AFEFF
9FEDF50EFBFF
9FF9F93FDAFF
9FF6FC6F9BFF
9FF3FFBF5CFF
9FF3BFFF1DFF
9FF46FFB0EFF
9FF52FF60EFF
9FF509B10FFF
9FF500000FFF
9FF500000FFF
9FF500000FFF
9FF500000FFF
ENDCHAR
STARTCHAR uni041D
ENCODING 1053
SWIDTH 600 0
DWIDTH 14 0
BBX 12 16 1 0
BITMAP
7FFF1000AFFD
7FFF1000AFFD
7FFF1000AFFD
7FFF1000AFFD
7FFF1000AFFD
7FFF1000AFFD
7FFFFFFFFFFD
7FFFFFFFFFFD
7FFFFFFFFFFD
7FFF1000AFFD
7FFF1000AFFD
7FFF1000AFFD
7FFF1000AFFD
7FFF1000AFFD
7FFF1000AFFD
7FFF1000AFFD
ENDCHAR
STARTCHAR uni041E
ENCODING 1054
SWIDTH 600 0
DWIDTH 14 0
BBX 14 16 0 0
BITMAP
00006BEFD81000
001BFFFFFFE400
00AFFFFFFFFE20
03FFFC218FFF90
09FFF2000BFFE1
0DFFC00006FFF4
0FFF900003FFF6
1FFF800002FFF7
1FFF800002FFF7
0FFF900004FFF6
0DFFC00006FFF3
09FFF3000CFFE0
03FFFC218FFF90
009FFFFFFFFE10
001BFFFFFFE300
00006BEFD81000
ENDCHAR
STARTCHAR uni041F
ENCODING 1055
SWIDTH 600 0
DWIDTH 14 0
BBX 12 16 1 0
BITMAP
7FFFFFFFFFFD
7FFFFFFFFFFD
7FFFFFFFFFFD
7FFF1000AFFD
7FFF1000AFFD
7FFF1000AFFD
7FFF1000AFFD
7FFF1000AFFD
7FFF1000AFFD
7FFF1000AFFD
7FFF1000AFFD
7FFF1000AFFD
7FFF1000AFFD
7FFF1000AFFD
7FFF1000AFFD
7FFF1000AFFD
ENDCHAR
STARTCHAR uni0420
ENCODING 1056
SWIDTH 600 0
DWIDTH 14 0
BBX 13 16 1 0
BITMAP
3FFFFFFEB71000
3FFFFFFFFFD200
3FFFFFFFFFFC00
3FFF5013CFFF30
3FFF50002FFF60
3FFF50000FFF70
3FFF50003FFF50
3FFF5014DFFF10
3FFFFFFFFFF900
3FFFFFFFFFB100
3FFFFFFEB50000
3FFF5000000000
3FFF5000000000
3FFF5000000000
3FFF5000000000
3FFF5000000000
ENDCHAR
STARTCHAR uni0421
ENCODING 1057
SWIDTH 600 0
DWIDTH 14 0
BBX 13 16 1 0
BITMAP
00004ADFEB5000
001BFFFFFFFB10
00CFFFFFFFFD10
08FFFC4017D200
1EFFD100000000
5FFF5000000000
9FFF1000000000
AFFE0000000000
AFFE0000000000
9FFF1000000000
6FFF5000000000
2FFFD100002000
09FFFC4117F800
01DFFFFFFFFF60
002CFFFFFFFC10
00005BEFEB5000
ENDCHAR
STARTCHAR uni0422
ENCODING 1058
SWIDTH 600 0
DWIDTH 14 0
BBX 14 16 0 0
BITMAP
4FFFFFFFFFFFFA
4FFFFFFFFFFFFA
4FFFFFFFFFFFFA
000009FFF00000
000009FFF00000
000009FFF00000
000009FFF00000
000009FFF00000
000009FFF00000
000009FFF00000
000009FFF00000
000009FFF00000
000009FFF00000
000009FFF00000
000009FFF00000
000009FFF00000
ENDCHAR
STARTCHAR uni0423
ENCODING 1059
SWIDTH 600 0
DWIDTH 14 0
BBX 14 16 0 0
BITMAP
3FFF700000BFFC
0CFFD00002FFF6
05FFF40007FFE1
00DFFA000DFF90
006FFF203FFF30
000EFF708FFC00
0007FFC0DFF600
0001EFF5FFE100
00008FFEFF9000
00002FFFFF3000
00000AFFFC0000
000004FFF60000
00011AFFE10000
003FFFFF700000
006FFFFA000000
007EFD70000000
ENDCHAR
STARTCHAR uni0424
ENCODING 1060
SWIDTH 600 0
DWIDTH 14 0
BBX 14 16 0 0
BITMAP
000003FF900000
000003FF900000
0006BEFFFD8200
02CFFFFFFFFF50
0BFFFFFFFFFFF3
3FFF84FF95EFF9
7FFC03FF906FFD
9FF803FF902FFF
9FF803FF903FFF
7FFC03FF906FFD
3FFF94FF95EFF9
0BFFFFFFFFFFF2
01CFFFFFFFFE50
0006BEFFFD8200
000003FF900000
000003FF900000
ENDCHAR
STARTCHAR uni0425
ENCODING 1061
SWIDTH 600 0
DWIDTH 14 0
BBX 14 16 0 0
BITMAP
1EFFD00005FFF6
07FFF6000CFFD0
01DFFD004FFF50
006FFF60AFFC00
000CFFD2FFF400
0004FFFCFFB000
0000BFFFFF3000
00003FFFFA0000
00006FFFFB0000
0001EFFFFF4000
0008FFCBFFD000
002EFF64FFF600
009FFE00CFFE10
03FFF7004FFF80
0BFFE1000BFFF2
4FFF700003FFFA
ENDCHAR
STARTCHAR uni0426
ENCODING 1062
SWIDTH 600 0
DWIDTH 14 0
BBX 14 21 1 -5
BITMAP
7FFF1000CFFB00
7FFF1000CFFB00
7FFF1000CFFB00
7FFF1000CFFB00
7FFF1000CFFB00
7FFF1000CFFB00
7FFF1000CFFB00
7FFF1000CFFB00
7FFF1000CFFB00
7FFF1000CFFB00
7FFF1000CFFB00
7FFF1000CFFB00
7FFF1000CFFB00
7FFFFFFFFFFFF8
7FFFFFFFFFFFF8
7FFFFFFFFFFFF8
0000000000BFF7
0000000000BFF6
0000000000BFF6
0000000000BFF5
0000000000BFF4
ENDCHAR
STARTCHAR uni0427
ENCODING 1063
SWIDTH 600 0
DWIDTH 14 0
BBX 12 16 1 0
BITMAP
EFF800009FFE
EFF800009FFE
EFF800009FFE
EFF800009FFE
DFF900009FFE
CFFB00009FFE
9FFF8201AFFE
3FFFFFFFFFFE
06FFFFFFFFFE
003ADFFEEFFE
000000009FFE
000000009FFE
000000009FFE
000000009FFE
000000009FFE
000000009FFE
ENDCHAR
STARTCHAR uni0428
ENCODING 1064
SWIDTH 600 0
DWIDTH 14 0
BBX 14 16 0 0
BITMAP
4FFD04FFA07FFA
4FFD04FFA07FFA
4FFD04FFA07FFA
4FFD04FFA07FFA
4FFD04FFA07FFA
4FFD04FFA07FFA
4FFD04FFA07FFA
4FFD04FFA07FFA
4FFD04FFA07FFA
4FFD04FFA07FFA
4FFD04FFA07FFA
4FFD04FFA07FFA
4FFD04FFA07FFA
4FFFFFFFFFFFFA
4FFFFFFFFFFFFA
4FFFFFFFFFFFFA
ENDCHAR
STARTCHAR uni0429
ENCODING 1065
SWIDTH 600 0
DWIDTH 14 0
BBX 15 21 0 -5
BITMAP
4FFB07FF40DFF200
4FFB07FF40DFF200
4FFB07FF40DFF200
4FFB07FF40DFF200
4FFB07FF40DFF200
4FFB07FF40DFF200
4FFB07FF40DFF200
4FFB07FF40DFF200
4FFB07FF40DFF200
4FFB07FF40DFF200
4FFB07FF40DFF200
4FFB07FF40DFF200
4FFB07FF40DFF200
4FFFFFFFFFFFFF80
4FFFFFFFFFFFFF80
4FFFFFFFFFFFFF80
000000000008FF70
000000000008FF60
000000000008FF60
000000000008FF50
000000000008FF40
ENDCHAR
STARTCHAR uni042A
ENCODING 1066
SWIDTH 600 0
DWIDTH 14 0
BBX 14 16 0 0
BITMAP
6FFFFFF8000000
6FFFFFF8000000
6FFFFFF8000000
0000FFF8000000
0000FFF8000000
0000FFF8000000
0000FFFFFD9300
0000FFFFFFFF50
0000FFFFFFFFF2
0000FFF816FFF7
0000FFF800BFF9
0000FFF800CFF9
0000FFF816FFF7
0000FFFFFFFFF2
0000FFFFFFFF60
0000FFFFFEA400
ENDCHAR
STARTCHAR uni042B
ENCODING 1067
SWIDTH 600 0
DWIDTH 14 0
BBX 14 16 0 0
BITMAP
3FFE0000008FF9
3FFE0000008FF9
3FFE0000008FF9
3FFE0000008FF9
3FFE0000008FF9
3FFE0000008FF9
3FFFFDA2008FF9
3FFFFFFE308FF9
3FFFFFFFB08FF9
3FFE16FFF18FF9
3FFE00DFF28FF9
3FFE00DFF28FF9
3FFE16FFF08FF9
3FFFFFFFA08FF9
3FFFFFFE208FF9
3FFFFD92008FF9
ENDCHAR
STARTCHAR uni042C
ENCODING 1068
SWIDTH 600 0
DWIDTH 14 0
BBX 13 16 1 0
BITMAP
3FFF4000000000
3FFF4000000000
3FFF4000000000
3FFF4000000000
3FFF4000000000
3FFF4000000000
3FFFFFFEC81000
3FFFFFFFFFE300
3FFFFFFFFFFD00
3FFF4013BFFF50
3FFF40001FFF70
3FFF40001FFF60
3FFF4013BFFF40
3FFFFFFFFFFC00
3FFFFFFFFFE200
3FFFFFFEC71000
ENDCHAR
STARTCHAR uni042D
ENCODING 1069
SWIDTH 600 0
DWIDTH 14 0
BBX 14 16 0 0
BITMAP
0018CEED920000
06EFFFFFFF7000
09FFFFFFFFF600
00BC4115DFFF10
001000003FFF70
000000000BFFC0
0000EFFFFFFFE0
0000EFFFFFFFF1
0000EFFFFFFFF1
0000000009FFF0
000000000CFFC0
003000004FFF80
03FC4116EFFF20
1EFFFFFFFFF700
06EFFFFFFF7000
0028DEED930000
ENDCHAR
STARTCHAR uni042E
ENCODING 1070
SWIDTH 600 0
DWIDTH 14 0
BBX 14 16 0 0
BITMAP
4FFE0007DEC500
4FFE008FFFFF60
4FFE02FFFFFFE1
4FFE07FF92EFF6
4FFE0AFF40BFF9
4FFE0CFF109FFC
4FFFFFFF108FFD
4FFFFFFF007FFE
4FFFFFFF007FFD
4FFE0DFF108FFD
4FFE0BFF209FFB
4FFE09FF40BFF9
4FFE05FF92EFF5
4FFE01EFFFFFE1
4FFE006FFFFF50
4FFE0006DFC500
ENDCHAR
STARTCHAR uni042F
ENCODING 1071
SWIDTH 600 0
DWIDTH 14 0
BBX 13 16 0 0
BITMAP
0004ACEFFFFFB0
009FFFFFFFFFB0
06FFFFFFFFFFB0
0BFFE5100CFFB0
0DFF90000CFFB0
0DFFA0000CFFB0
0AFFF7100CFFB0
03FFFFFFFFFFB0
006FFFFFFFFFB0
0003FFFFFFFFB0
0008FFF30CFFB0
003FFF900CFFB0
00CFFE200CFFB0
06FFF8000CFFB0
1EFFE1000CFFB0
9FFF60000CFFB0
ENDCHAR
STARTCHAR uni0430
ENCODING 1072
SWIDTH 600 0
DWIDTH 14 0
BBX 12 12 1 0
BITMAP
0027BEFEB400
09FFFFFFFF80
0BFFFFFFFFF4
03E83014EFF9
00037ACEFFFC
02CFFFFFFFFD
1EFFFFFFFFFD
6FFF8421AFFD
8FFE2026DFFD
5FFFFFFFFFFD
0CFFFFFEAFFD
018EFD922FFD
ENDCHAR
STARTCHAR uni0431
ENCODING 1073
SWIDTH 600 0
DWIDTH 14 0
BBX 12 17 1 0
BITMAP
0000001469D0
00017CFFFFF3
003DFFFFFFF7
01EFFFFFDB71
09FFF8300000
1EFF70000000
4FFF39EFD700
6FFFEFFFFFB0
7FFFFFFFFFF6
8FFFA215FFFC
8FFD0000BFFE
6FFD0000AFFF
3FFF2000CFFD
0DFFB316FFF9
06FFFFFFFFE2
009FFFFFFF50
0005BEFD9200
ENDCHAR
STARTCHAR uni0432
ENCODING 1074
SWIDTH 600 0
DWIDTH 14 0
BBX 12 12 2 0
BITMAP
FFFFFFED9300
FFFFFFFFFF30
FFFFFFFFFF90
FFF7002DFF80
FFFFFFFFFD20
FFFFFFFFE500
FFFFFFFFFF80
FFF70019FFF0
FFF70019FFF1
FFFFFFFFFFE0
FFFFFFFFFF50
FFFFFFED9300
ENDCHAR
STARTCHAR uni0433
ENCODING 1075
SWIDTH 600 0
DWIDTH 14 0
BBX 11 12 2 0
BITMAP
3FFFFFFFFFA0
3FFFFFFFFFA0
3FFFFFFFFFA0
3FFF50000000
3FFF50000000
3FFF50000000
3FFF50000000
3FFF50000000
3FFF50000000
3FFF50000000
3FFF50000000
3FFF50000000
ENDCHAR
ENDFONT
